<?xml version="1.0" standalone="no"?>
<!DOCTYPE svg PUBLIC "-//W3C//DTD SVG 20010904//EN"
 "http://www.w3.org/TR/2001/REC-SVG-20010904/DTD/svg10.dtd">
<svg version="1.0" xmlns="http://www.w3.org/2000/svg"
 width="240.000000pt" height="240.000000pt" viewBox="0 0 240.000000 240.000000"
 preserveAspectRatio="xMidYMid meet">
<metadata>
Created by potrace 1.14, written by Peter Selinger 2001-2017
</metadata>
<g transform="translate(0.000000,240.000000) scale(0.100000,-0.100000)"
fill="#000000" stroke="none">
<path d="M84 1978 c-4 -6 -8 -39 -10 -72 -19 -556 -19 -595 -8 -605 8 -7 76
-33 292 -112 28 -10 78 -28 110 -40 123 -46 130 -54 81 -105 -28 -29 -50 -40
-84 -44 -21 -3 -43 -32 -38 -50 10 -37 27 -42 76 -21 65 28 122 19 144 -23 26
-49 55 -88 104 -136 83 -82 117 -101 199 -107 75 -5 120 22 178 106 46 68 54
74 167 122 38 17 76 33 83 36 9 4 12 -18 12 -90 l0 -95 93 -32 c50 -18 106
-39 122 -46 17 -7 89 -34 160 -60 72 -26 175 -64 230 -84 302 -112 306 -113
321 -98 4 4 8 40 9 80 7 193 16 468 19 513 4 85 2 88 -118 129 -23 8 -54 20
-71 27 -16 7 -34 13 -40 15 -5 1 -75 27 -155 57 -80 30 -163 60 -185 67 -44
14 -55 25 -55 55 0 16 7 20 31 21 44 2 57 27 54 104 -3 105 -58 194 -147 241
-42 22 -66 14 -89 -28 -7 -13 -16 -23 -21 -23 -22 0 -224 82 -234 94 -5 8 -9
33 -8 55 1 23 -2 44 -7 46 -9 6 -22 -33 -19 -56 7 -44 -1 -51 -132 -113 -73
-35 -135 -60 -138 -56 -3 5 -25 16 -50 25 -25 9 -54 21 -65 26 -11 4 -72 27
-135 49 -63 23 -124 45 -135 50 -11 5 -47 19 -80 30 -33 12 -69 25 -80 30 -47
20 -332 122 -352 126 -12 2 -25 -1 -29 -8z m506 -947 c0 -5 -7 -12 -16 -15
-14 -5 -15 -4 -4 9 14 17 20 19 20 6z m15 -59 c-8 -2 -23 -2 -32 1 -15 3 -13
6 7 14 18 8 27 7 32 -1 4 -6 1 -12 -7 -14z"/>
</g>
</svg>
