<?xml version="1.0" standalone="no"?>
<!DOCTYPE svg PUBLIC "-//W3C//DTD SVG 20010904//EN"
 "http://www.w3.org/TR/2001/REC-SVG-20010904/DTD/svg10.dtd">
<svg version="1.0" xmlns="http://www.w3.org/2000/svg"
 width="1478.000000pt" height="1478.000000pt" viewBox="0 0 1478.000000 1478.000000"
 preserveAspectRatio="xMidYMid meet">
<metadata>
Created by potrace 1.14, written by Peter Selinger 2001-2017
</metadata>
<g transform="translate(0.000000,1478.000000) scale(0.100000,-0.100000)"
fill="#000000" stroke="none">
<path d="M7577 13503 c-4 -3 -7 -13 -7 -20 0 -14 -9 -34 -76 -181 -19 -41 -34
-75 -34 -78 0 -2 -13 -32 -29 -66 -16 -35 -48 -106 -71 -158 -23 -52 -50 -113
-60 -135 -10 -22 -37 -83 -60 -135 -23 -52 -50 -114 -61 -137 -10 -23 -19 -44
-19 -46 0 -3 -22 -53 -50 -111 -27 -58 -50 -108 -50 -111 0 -3 -15 -38 -33
-77 -19 -40 -40 -90 -47 -110 -8 -21 -18 -38 -24 -38 -5 0 -7 -3 -4 -6 4 -3
-9 -40 -28 -82 -19 -42 -39 -86 -43 -97 -5 -11 -21 -45 -34 -75 -42 -93 -74
-163 -96 -212 -11 -26 -64 -145 -117 -265 -52 -120 -103 -236 -113 -258 -54
-119 -111 -254 -111 -264 0 -6 -5 -11 -10 -11 -6 0 -9 -3 -8 -7 1 -5 -6 -25
-15 -47 -9 -21 -17 -40 -17 -42 0 -2 -13 -32 -29 -66 -39 -86 -55 -128 -49
-133 2 -2 24 3 48 11 37 13 287 78 340 89 8 2 35 9 60 16 53 15 46 13 90 23
19 4 100 24 180 43 80 20 154 37 165 38 11 2 40 8 65 15 25 7 52 13 60 15 8 2
67 15 130 29 63 15 169 37 235 51 141 28 132 27 360 70 44 8 192 36 220 41
186 32 214 37 300 49 11 2 34 6 50 8 17 3 49 8 72 12 52 8 57 15 38 51 -8 16
-15 32 -15 36 0 4 -22 56 -50 114 -27 58 -50 108 -50 110 0 1 -20 45 -45 96
-25 51 -45 99 -45 106 0 6 -5 12 -10 12 -6 0 -9 3 -8 8 3 7 -11 39 -76 177
-80 168 -106 228 -106 241 0 8 -4 14 -9 14 -5 0 -15 16 -21 35 -6 19 -29 71
-51 115 -21 45 -39 83 -39 86 0 3 -15 38 -34 77 -18 40 -44 95 -56 122 -12 28
-43 93 -67 145 -25 52 -46 100 -47 105 -1 6 -21 48 -43 95 -56 116 -76 164
-75 173 1 4 -2 7 -8 7 -5 0 -10 5 -10 11 0 6 -18 50 -41 98 -22 47 -42 91 -43
96 -6 21 -156 335 -160 335 -2 0 -6 -3 -9 -7z"/>
<path d="M10413 11611 c-136 -40 -236 -141 -285 -290 -22 -66 -23 -179 -1
-231 8 -19 16 -39 17 -45 1 -5 17 -33 35 -60 40 -59 99 -108 178 -150 52 -27
67 -30 153 -30 86 0 101 3 160 31 103 50 215 173 235 261 3 10 8 34 13 53 12
51 6 144 -12 179 -9 16 -16 39 -16 51 0 11 -3 20 -8 20 -4 0 -16 16 -26 35
-40 74 -145 157 -224 176 -76 19 -155 19 -219 0z"/>
<path d="M11085 11240 c-81 -5 -90 -7 -91 -25 -1 -33 -15 -106 -36 -183 -11
-41 -18 -75 -16 -77 1 -2 64 -6 138 -9 74 -3 155 -8 180 -11 95 -10 236 -26
260 -31 14 -2 79 -13 145 -24 66 -11 161 -29 210 -40 50 -11 101 -23 115 -26
79 -16 309 -81 360 -101 8 -3 21 -7 28 -9 34 -7 218 -82 319 -130 188 -90 348
-200 480 -332 81 -81 92 -94 133 -152 13 -19 27 -37 30 -40 7 -7 28 -44 70
-125 96 -184 136 -433 106 -660 -13 -95 -71 -313 -93 -348 -4 -7 -8 -16 -9
-22 -2 -14 -59 -137 -99 -217 -31 -60 -49 -92 -92 -163 -29 -48 -116 -183
-136 -210 -12 -17 -46 -64 -76 -105 -30 -41 -68 -91 -85 -111 -17 -19 -43 -51
-58 -70 -29 -37 -31 -39 -148 -169 -105 -116 -309 -320 -420 -420 -52 -47 -97
-87 -100 -90 -17 -19 -293 -239 -380 -305 -58 -43 -107 -81 -110 -84 -12 -14
-151 -111 -159 -111 -5 0 -11 -4 -13 -8 -5 -12 -500 -362 -512 -362 -2 0 -50
-31 -107 -70 -56 -38 -108 -70 -114 -70 -6 0 -40 66 -75 148 -35 81 -78 179
-96 217 -18 39 -57 126 -87 195 -30 69 -69 155 -86 193 -17 37 -31 70 -31 72
0 4 -25 61 -74 170 -18 39 -39 89 -41 95 0 3 -11 26 -23 52 -20 42 -41 93 -45
108 0 3 -15 34 -33 70 -17 36 -34 75 -38 87 -4 12 -22 53 -41 92 -19 40 -35
74 -35 77 0 4 -16 40 -35 81 -19 41 -35 77 -35 80 0 3 -16 39 -35 80 -19 41
-35 77 -35 80 0 6 -27 67 -51 116 -10 22 -19 43 -19 47 0 5 -13 37 -29 72 -17
35 -62 140 -101 233 -40 94 -82 193 -95 220 -12 28 -30 68 -40 90 -9 22 -23
54 -30 70 -8 17 -20 45 -27 63 -7 17 -17 32 -21 32 -5 0 -5 4 -2 10 3 5 -2 21
-11 35 -9 14 -12 25 -8 25 5 0 4 4 -1 8 -11 7 -156 330 -156 347 0 6 -7 17
-14 25 -7 8 -17 29 -21 45 -4 17 -10 35 -14 40 -5 6 -20 39 -35 75 -31 75 -42
99 -85 195 -33 73 -52 117 -55 125 0 3 -17 39 -37 80 -39 81 -56 122 -54 130
0 3 -9 19 -22 37 -12 17 -22 36 -22 42 0 11 -47 115 -116 259 l-45 92 -47 -4
c-26 -2 -54 -7 -62 -10 -8 -2 -40 -7 -70 -10 -30 -3 -66 -8 -80 -10 -34 -7
-266 -45 -310 -52 -48 -7 -80 -13 -110 -18 -14 -3 -43 -8 -65 -11 -22 -3 -74
-12 -115 -20 -41 -8 -86 -17 -100 -19 -14 -3 -61 -11 -105 -20 -44 -8 -96 -18
-115 -21 -118 -21 -142 -25 -185 -36 -22 -5 -56 -12 -75 -15 -19 -2 -48 -9
-65 -14 -16 -5 -47 -11 -69 -15 -21 -3 -42 -7 -46 -10 -5 -3 -21 -7 -37 -9
-15 -3 -68 -14 -118 -26 -266 -64 -373 -89 -405 -95 -19 -3 -46 -10 -60 -16
-14 -5 -34 -10 -45 -12 -11 -1 -26 -6 -32 -10 -7 -5 -13 -6 -13 -3 0 3 -21 -1
-47 -9 -44 -13 -67 -18 -128 -30 -11 -3 -65 -16 -120 -31 l-100 -27 -22 -46
c-12 -25 -31 -66 -41 -91 -11 -25 -28 -65 -39 -90 -12 -25 -35 -79 -53 -120
-18 -41 -44 -100 -57 -130 -14 -30 -45 -102 -70 -160 -24 -58 -50 -118 -58
-135 -7 -16 -41 -95 -75 -175 -35 -80 -67 -151 -73 -157 -5 -7 -6 -13 -3 -13
4 0 1 -12 -7 -27 -15 -30 -50 -105 -52 -113 -1 -3 -9 -23 -20 -45 -10 -22 -19
-44 -21 -50 -3 -9 -261 -608 -409 -950 -7 -16 -19 -45 -26 -62 -8 -18 -17 -33
-20 -33 -3 0 -6 -6 -6 -12 0 -7 -8 -31 -18 -53 -10 -22 -19 -42 -20 -45 -2 -6
-8 -21 -65 -157 -23 -54 -45 -107 -50 -118 -33 -76 -100 -235 -100 -239 0 -3
-11 -29 -24 -58 -14 -29 -53 -118 -86 -198 -71 -167 -80 -188 -109 -252 -11
-26 -21 -50 -21 -54 0 -3 -11 -29 -24 -57 -13 -29 -51 -119 -86 -202 -34 -82
-66 -154 -71 -160 -5 -5 -9 -17 -9 -27 0 -10 -4 -18 -8 -18 -4 0 -8 -8 -9 -18
-1 -10 -22 -61 -46 -113 -25 -52 -54 -117 -67 -146 -23 -53 -27 -56 -120 -68
-14 -2 -56 -9 -95 -15 -38 -7 -81 -14 -95 -15 -52 -6 -126 -16 -150 -21 -14
-3 -43 -7 -65 -9 -22 -2 -56 -6 -75 -9 -19 -3 -62 -8 -95 -11 -33 -3 -96 -8
-140 -12 -174 -16 -839 -8 -987 11 -174 23 -307 47 -398 71 -14 4 -38 8 -53
11 -15 2 -36 8 -46 13 -10 6 -21 7 -25 4 -3 -3 -6 -2 -6 3 0 5 -9 10 -20 11
-26 2 -141 43 -158 55 -6 6 -12 7 -12 4 0 -4 -59 23 -130 60 -72 37 -130 71
-130 76 0 4 -6 8 -12 8 -7 0 -26 11 -42 25 -16 14 -32 25 -35 25 -3 0 -22 15
-42 33 -19 17 -54 49 -77 69 -23 21 -40 38 -38 38 2 0 -9 14 -25 31 -90 96
-196 308 -224 444 -20 99 -24 150 -20 235 7 129 12 164 47 285 30 108 161 358
248 475 73 98 126 165 159 202 42 47 233 239 282 283 63 56 164 141 204 170
21 16 47 37 56 46 15 15 191 142 227 164 34 20 77 50 82 55 8 9 338 220 344
220 3 0 25 14 49 30 25 17 48 30 52 30 4 0 19 8 33 18 15 11 52 32 82 49 30
17 83 47 117 67 34 20 66 36 71 36 5 0 21 9 36 21 14 11 26 18 26 14 0 -4 15
3 33 14 38 23 298 154 407 204 41 19 119 55 173 81 54 25 100 46 103 46 2 0
27 11 56 24 73 32 112 49 118 51 11 4 47 18 78 31 135 58 132 57 239 98 51 20
95 36 98 36 4 0 25 9 48 19 24 11 55 23 70 26 15 4 27 11 27 17 0 5 4 6 10 3
5 -3 27 4 50 15 22 11 40 18 40 15 0 -3 14 1 30 10 17 9 30 13 30 9 0 -4 6 -2
13 3 6 6 26 14 42 18 34 9 34 9 58 18 38 15 52 20 62 23 6 1 80 26 165 54 85
29 163 53 173 55 9 2 22 7 27 10 5 3 18 8 27 10 10 2 90 26 178 53 165 52 183
58 213 69 9 3 22 7 27 8 12 3 161 43 190 51 11 3 27 7 35 9 8 1 22 5 30 8 8 3
40 11 70 18 30 7 62 16 70 20 14 8 126 39 215 61 55 13 53 13 205 53 74 20
143 38 153 40 10 2 26 6 35 9 9 3 30 7 45 10 15 3 51 12 80 20 29 8 64 17 80
20 61 13 82 17 146 32 36 9 77 18 91 20 14 3 43 10 65 16 22 5 49 12 60 14 30
7 96 22 125 28 14 3 59 13 100 21 41 8 86 18 100 21 28 5 174 33 205 39 11 1
38 6 60 10 22 4 72 13 110 21 39 9 86 17 105 20 19 2 46 6 60 9 55 11 77 15
115 20 22 3 108 16 190 30 83 14 166 27 185 29 19 2 51 7 70 10 84 13 197 29
220 31 39 5 112 14 150 20 19 3 53 8 75 11 67 9 89 12 120 17 17 3 57 9 90 12
33 4 67 8 75 10 8 2 44 7 80 11 36 3 76 8 90 10 36 4 106 12 175 18 33 3 71 8
85 11 35 6 196 17 248 17 36 0 43 3 38 17 -3 9 -18 60 -33 113 l-28 98 -45 0
c-25 0 -83 -4 -130 -9 -47 -5 -112 -12 -145 -15 -65 -7 -110 -12 -165 -21 -19
-2 -55 -7 -80 -10 -25 -3 -54 -7 -66 -9 -12 -2 -45 -7 -75 -11 -30 -3 -92 -12
-139 -20 -47 -8 -103 -16 -125 -20 -22 -3 -49 -7 -60 -9 -11 -2 -51 -9 -90
-15 -38 -6 -82 -13 -97 -16 -16 -3 -40 -7 -55 -10 -36 -7 -314 -54 -353 -60
-17 -3 -44 -7 -60 -10 -17 -2 -42 -7 -58 -10 -15 -3 -74 -14 -132 -25 -58 -11
-116 -22 -130 -25 -14 -3 -72 -14 -130 -25 -120 -23 -129 -25 -230 -45 -41 -8
-86 -17 -100 -19 -14 -3 -40 -9 -57 -15 -18 -5 -33 -8 -33 -6 0 3 -10 1 -23
-4 -13 -5 -39 -12 -58 -15 -19 -3 -74 -15 -124 -27 -49 -11 -101 -23 -115 -26
-14 -3 -29 -6 -35 -7 -67 -17 -227 -55 -254 -61 -11 -3 -29 -7 -38 -9 -10 -3
-47 -11 -83 -19 -36 -8 -72 -18 -80 -21 -8 -3 -26 -8 -40 -10 -14 -3 -68 -16
-120 -31 -115 -31 -113 -31 -175 -45 -113 -25 -421 -113 -495 -141 -14 -5 -34
-11 -45 -13 -11 -2 -47 -13 -80 -24 -33 -11 -100 -32 -150 -46 -49 -15 -99
-31 -110 -36 -11 -5 -49 -18 -85 -29 -104 -32 -367 -125 -469 -166 -51 -20
-99 -38 -105 -39 -6 -1 -29 -10 -51 -20 -22 -10 -44 -19 -50 -20 -5 -2 -23 -8
-40 -15 -16 -6 -43 -17 -60 -23 -16 -6 -50 -20 -75 -32 -25 -11 -47 -21 -50
-22 -12 -2 -307 -128 -385 -164 -33 -15 -85 -39 -115 -53 -30 -13 -86 -39
-123 -56 -38 -17 -74 -33 -80 -34 -7 -1 -14 -5 -17 -8 -3 -3 -81 -44 -175 -91
-93 -47 -199 -101 -235 -120 -36 -19 -110 -59 -165 -88 -55 -29 -107 -58 -115
-64 -8 -7 -33 -21 -55 -31 -21 -11 -75 -42 -120 -69 -44 -27 -103 -62 -132
-77 -28 -16 -99 -58 -157 -94 -58 -36 -110 -65 -116 -65 -5 0 -10 -4 -10 -8 0
-5 -16 -17 -35 -28 -19 -10 -35 -22 -35 -26 0 -5 -5 -8 -11 -8 -6 0 -41 -21
-78 -48 -36 -26 -86 -61 -111 -77 -25 -16 -80 -56 -122 -87 -42 -32 -82 -58
-87 -58 -6 0 -11 -3 -11 -7 0 -5 -23 -23 -50 -42 -28 -19 -50 -38 -50 -42 0
-4 -8 -10 -18 -13 -10 -4 -27 -14 -38 -24 -10 -9 -50 -42 -89 -72 -38 -30 -74
-60 -80 -66 -5 -6 -32 -28 -60 -50 -27 -21 -56 -46 -65 -54 -9 -8 -39 -35 -69
-60 -115 -98 -318 -310 -428 -448 -76 -95 -203 -277 -203 -292 0 -3 -13 -26
-28 -51 -16 -24 -30 -48 -31 -54 -2 -5 -14 -34 -27 -64 -25 -56 -73 -186 -79
-211 -2 -8 -9 -37 -15 -65 -20 -81 -24 -125 -24 -225 0 -112 7 -165 29 -240
17 -56 84 -211 95 -220 4 -3 25 -32 47 -65 71 -106 191 -219 328 -312 185
-124 495 -241 765 -287 19 -3 46 -8 60 -11 35 -7 242 -33 260 -33 8 1 38 -2
65 -6 101 -12 256 -17 500 -16 255 1 287 2 480 15 61 4 133 9 160 10 28 1 66
5 85 8 19 3 64 9 100 12 36 3 79 7 95 10 17 2 53 6 80 9 28 3 59 8 70 10 11 2
47 7 80 11 33 5 67 9 75 10 8 2 35 5 59 9 23 3 56 8 73 11 16 3 28 2 26 -2
-16 -34 -61 -132 -68 -148 -4 -11 -18 -42 -29 -68 -12 -26 -29 -67 -38 -90 -9
-23 -20 -46 -25 -52 -4 -5 -8 -14 -8 -21 0 -6 -13 -40 -29 -75 -16 -35 -30
-68 -30 -74 -1 -5 -8 -19 -15 -30 -6 -11 -29 -62 -50 -112 -21 -51 -42 -93
-47 -93 -5 0 -6 -6 -3 -14 3 -7 -2 -21 -11 -30 -9 -9 -14 -16 -11 -16 5 0 -10
-39 -39 -105 -8 -16 -25 -59 -40 -95 -14 -36 -30 -74 -35 -85 -37 -82 -60
-136 -60 -140 0 -2 -11 -28 -24 -57 -13 -29 -38 -89 -56 -133 -18 -44 -40 -98
-50 -120 -47 -99 -210 -491 -210 -502 0 -7 -4 -13 -10 -13 -5 0 -10 -8 -10
-18 0 -10 -7 -28 -16 -40 -8 -12 -13 -22 -10 -22 5 0 -11 -38 -60 -148 -13
-29 -24 -55 -24 -57 0 -3 -9 -24 -19 -48 -11 -23 -40 -94 -65 -157 -26 -63
-53 -127 -62 -142 -8 -15 -14 -29 -14 -30 1 -3 -7 -23 -35 -93 -5 -11 -9 -22
-10 -25 -1 -3 -11 -27 -23 -53 -12 -27 -22 -51 -22 -53 0 -2 -9 -24 -20 -49
-11 -25 -29 -65 -40 -89 -10 -24 -22 -56 -26 -70 -3 -14 -10 -26 -15 -26 -5 0
-8 -4 -7 -8 5 -14 -25 -82 -36 -82 -5 0 -7 -3 -3 -6 6 -6 -9 -54 -40 -124 -11
-25 -42 -99 -68 -165 -26 -66 -53 -133 -60 -150 -21 -47 -60 -143 -95 -230
-18 -44 -37 -91 -42 -105 -6 -14 -12 -29 -14 -35 -1 -5 -29 -73 -61 -150 -65
-152 -75 -177 -78 -185 -5 -14 -19 -48 -30 -75 -7 -16 -16 -41 -20 -55 -4 -14
-11 -29 -15 -35 -4 -5 -11 -25 -15 -42 -3 -18 -11 -33 -17 -33 -6 0 -8 -3 -5
-6 3 -4 2 -15 -4 -26 -10 -19 -10 -19 18 -1 15 9 30 20 33 23 12 12 89 70 94
70 3 0 95 64 203 142 109 77 227 161 262 186 36 25 72 51 80 58 9 7 72 54 141
103 69 50 130 94 135 98 6 5 26 20 45 33 19 13 40 28 45 32 54 43 89 68 94 68
3 0 19 11 34 25 15 14 27 22 27 18 0 -4 4 -3 8 3 6 9 168 132 322 244 14 10
142 106 285 212 143 107 312 232 375 278 63 47 120 88 125 92 6 5 42 32 80 61
39 28 72 55 75 58 3 3 12 10 21 15 9 5 32 21 50 36 19 15 88 68 154 117 66 50
125 94 130 98 6 5 71 53 145 108 74 55 137 102 140 105 3 3 50 39 105 80 55
41 104 79 110 83 5 4 109 82 230 172 236 177 273 204 289 220 6 6 36 28 66 50
30 21 62 45 70 52 8 8 35 29 60 47 25 18 189 141 365 272 176 131 323 240 327
242 8 4 332 244 360 267 9 7 29 22 45 32 30 19 57 40 78 61 8 6 16 12 19 12 3
0 28 16 56 36 l49 35 31 -22 c16 -13 30 -26 30 -31 0 -4 6 -8 13 -8 7 0 22 -8
33 -18 10 -10 75 -58 144 -107 69 -49 139 -100 155 -112 17 -13 35 -27 40 -31
6 -4 32 -23 60 -42 27 -19 56 -40 65 -47 110 -86 162 -123 169 -123 5 0 11 -3
13 -8 3 -8 16 -17 278 -204 91 -64 170 -121 175 -126 6 -4 73 -53 150 -107 77
-55 145 -103 150 -108 6 -4 42 -30 80 -57 39 -27 75 -53 80 -57 6 -4 33 -24
60 -42 28 -19 52 -37 55 -40 3 -4 12 -10 21 -16 19 -11 278 -195 354 -250 28
-21 103 -75 168 -121 66 -46 129 -92 142 -101 12 -10 33 -25 45 -33 12 -8 84
-60 161 -115 133 -96 298 -214 519 -372 58 -41 114 -81 125 -89 21 -15 158
-112 235 -166 45 -31 173 -120 214 -148 11 -8 47 -33 79 -57 31 -24 62 -43 67
-43 6 0 10 -4 10 -10 0 -5 5 -10 10 -10 6 0 45 -26 88 -57 42 -32 100 -73 127
-92 28 -19 52 -38 53 -43 2 -4 9 -8 16 -8 7 0 21 -8 32 -18 10 -9 55 -41 99
-71 44 -30 82 -57 85 -60 5 -6 44 -33 81 -56 18 -11 105 -71 242 -167 45 -32
89 -62 97 -68 8 -5 71 -49 140 -96 112 -78 150 -103 226 -154 74 -49 132 -91
153 -109 13 -12 30 -21 38 -21 7 0 13 -3 13 -7 0 -5 23 -21 51 -38 28 -16 57
-36 64 -42 28 -26 34 -11 13 35 -11 26 -29 67 -38 92 -10 25 -42 101 -70 170
-28 69 -52 130 -54 135 -1 6 -4 15 -8 20 -3 6 -29 66 -58 135 -62 149 -78 186
-96 224 -8 16 -14 33 -14 37 0 4 -13 37 -30 72 -16 36 -30 68 -30 71 0 3 -13
34 -29 68 -15 35 -40 92 -56 128 -15 36 -35 83 -45 105 -21 45 -72 164 -101
239 -11 27 -29 66 -40 87 -11 22 -17 39 -13 39 4 0 2 6 -4 12 -5 7 -33 69 -62
138 -28 69 -56 134 -61 145 -9 20 -31 76 -34 85 -1 3 -9 21 -17 40 -36 77 -52
115 -54 125 -1 6 -23 57 -48 114 -25 57 -43 108 -39 114 3 6 1 7 -5 3 -11 -6
-16 6 -13 27 0 4 -3 7 -8 7 -5 0 -12 11 -15 24 -3 14 -20 54 -36 89 -17 36
-30 67 -30 70 0 2 -10 26 -22 53 -12 27 -23 51 -23 54 -1 3 -8 21 -17 40 -67
152 -131 307 -131 318 0 6 -4 12 -9 12 -4 0 -8 6 -9 13 0 6 -11 34 -24 62 -13
27 -21 53 -19 57 3 5 1 8 -5 8 -5 0 -15 17 -21 38 -6 20 -20 55 -30 77 -10 22
-25 56 -33 75 -8 19 -24 55 -35 80 -32 72 -54 124 -56 135 -1 6 -12 31 -24 57
-23 49 -44 99 -46 108 -1 3 -14 32 -30 65 -15 33 -29 68 -31 79 -3 10 -8 23
-13 30 -5 6 -15 27 -22 46 -7 19 -26 63 -42 98 -15 35 -28 65 -28 67 0 2 -5
16 -12 32 -6 15 -12 30 -13 33 -1 3 -9 21 -17 40 -9 19 -23 51 -31 70 -8 19
-24 55 -35 80 -52 118 -61 140 -56 140 3 0 -4 13 -15 29 -12 16 -21 34 -21 40
0 6 -11 34 -24 63 -57 123 -81 180 -86 203 -1 6 -9 18 -17 28 -9 9 -14 17 -10
17 3 0 -10 35 -28 79 l-33 78 45 34 c72 53 233 167 286 202 26 17 47 35 47 39
0 5 7 8 15 8 8 0 15 5 15 10 0 6 6 10 14 10 8 0 16 4 18 8 2 4 75 58 163 120
340 239 385 272 575 414 187 139 286 216 361 277 31 25 72 59 92 74 43 34 72
59 287 246 169 148 492 465 590 580 30 35 60 69 65 75 26 28 140 174 160 206
13 19 31 44 42 55 20 22 148 218 179 275 10 19 21 37 24 40 21 21 186 379 195
424 3 10 9 24 15 30 5 7 7 16 3 19 -3 4 0 13 7 22 7 8 10 15 7 15 -3 0 2 21
10 48 8 26 17 58 19 72 3 14 9 43 13 65 5 22 9 47 9 55 1 8 3 29 7 45 12 65 6
291 -10 355 0 3 -9 31 -18 63 -10 32 -15 62 -12 67 3 5 1 11 -4 14 -10 6 -42
94 -40 110 0 5 -3 12 -8 15 -5 3 -26 39 -46 79 -32 65 -101 178 -117 192 -3 3
-18 23 -34 44 -35 46 -136 148 -190 191 -20 17 -49 40 -64 52 -15 13 -30 23
-33 23 -3 0 -17 9 -30 20 -47 39 -56 44 -204 120 -142 72 -208 100 -325 137
-121 39 -212 66 -225 69 -5 1 -37 9 -70 17 -57 15 -78 20 -150 32 -16 3 -50 9
-75 14 -70 14 -209 36 -295 46 -22 2 -58 6 -80 9 -22 3 -69 8 -105 11 -36 4
-81 9 -100 11 -50 5 -161 13 -260 20 -120 7 -488 10 -595 4z"/>
</g>
</svg>
