<?xml version="1.0" standalone="no"?>
<!DOCTYPE svg PUBLIC "-//W3C//DTD SVG 20010904//EN"
 "http://www.w3.org/TR/2001/REC-SVG-20010904/DTD/svg10.dtd">
<svg version="1.0" xmlns="http://www.w3.org/2000/svg"
 width="982.000000pt" height="982.000000pt" viewBox="0 0 982.000000 982.000000"
 preserveAspectRatio="xMidYMid meet">
<metadata>
Created by potrace 1.14, written by Peter Selinger 2001-2017
</metadata>
<g transform="translate(0.000000,982.000000) scale(0.100000,-0.100000)"
fill="#000000" stroke="none">
<path d="M4775 9791 c-103 -60 -282 -246 -412 -431 -232 -330 -395 -677 -575
-1225 -150 -459 -248 -1064 -248 -1536 l0 -209 -42 -67 c-160 -260 -424 -933
-522 -1328 -129 -518 -207 -1019 -246 -1575 -6 -85 -13 -171 -15 -190 -3 -19
-8 -228 -11 -465 -7 -457 -2 -588 41 -1125 33 -398 37 -440 44 -440 3 0 74
102 158 228 423 634 738 1008 1127 1336 148 126 350 263 354 241 6 -26 77
-166 147 -285 137 -237 231 -464 282 -683 32 -136 36 -171 40 -332 4 -153 2
-199 -16 -304 -52 -304 -216 -645 -444 -918 -84 -101 -302 -324 -412 -423 -60
-53 -63 -58 -25 -34 25 16 95 64 155 108 468 336 788 712 1045 1226 182 362
272 740 271 1135 0 148 -14 361 -27 428 -3 15 -3 27 0 27 11 0 174 -106 261
-170 302 -222 650 -585 966 -1010 65 -87 268 -386 324 -477 21 -35 41 -63 45
-63 6 0 24 276 51 759 15 282 12 896 -6 1156 -35 513 -97 980 -181 1360 -96
435 -186 753 -296 1050 -127 342 -221 548 -378 825 l-48 85 -7 175 c-11 307
-31 493 -81 755 -87 449 -248 952 -434 1355 -184 397 -375 688 -601 912 -112
111 -176 158 -216 158 -10 0 -40 -13 -68 -29z m85 -6782 c0 -6 -4 -7 -10 -4
-5 3 -10 11 -10 16 0 6 5 7 10 4 6 -3 10 -11 10 -16z"/>
</g>
</svg>
