# Generated by scripts/mesh-gen - do not hand-edit, re-run npm run generate-meshes
# Basis: Crumpled MLI thermal-blanket foil (tight crumple)
# Authored true 1:10 (sub-meter debris, reached via the size-scaled camera standoff); origin-centered, tumbles
# Recipe: crumpled MLI foil, 6x6, two-sided gold/amber
# Seed: 20120829
mtllib deb-mli-03.mtl
o deb-mli-03
v -0.0285 -0.0023 -0.0279
v -0.0179 -0.0031 -0.0236
v -0.0189 0.0184 -0.0181
v -0.0338 0.0097 -0.0207
v -0.0190 0.0157 -0.0092
v -0.0285 0.0140 -0.0070
v -0.0210 -0.0030 0.0008
v -0.0335 0.0049 -0.0018
v -0.0202 0.0043 0.0107
v -0.0309 0.0079 0.0076
v -0.0207 0.0138 0.0197
v -0.0314 0.0103 0.0197
v -0.0213 0.0125 0.0289
v -0.0266 0.0179 0.0243
v -0.0073 -0.0043 -0.0219
v -0.0083 0.0102 -0.0196
v -0.0106 0.0098 -0.0095
v -0.0085 -0.0069 -0.0018
v -0.0094 -0.0009 0.0094
v -0.0092 0.0129 0.0201
v -0.0112 0.0038 0.0263
v -0.0008 -0.0108 -0.0238
v -0.0013 -0.0022 -0.0171
v -0.0014 -0.0004 -0.0084
v 0.0015 -0.0099 -0.0005
v 0.0010 -0.0165 0.0106
v -0.0013 -0.0025 0.0170
v 0.0008 -0.0018 0.0300
v 0.0097 -0.0192 -0.0242
v 0.0110 0.0025 -0.0193
v 0.0095 0.0018 -0.0101
v 0.0108 -0.0187 0.0000
v 0.0117 -0.0123 0.0094
v 0.0116 0.0024 0.0175
v 0.0086 -0.0073 0.0239
v 0.0179 -0.0078 -0.0234
v 0.0189 -0.0033 -0.0175
v 0.0210 -0.0018 -0.0083
v 0.0201 -0.0180 -0.0018
v 0.0183 -0.0124 0.0091
v 0.0206 0.0057 0.0181
v 0.0188 -0.0010 0.0245
v 0.0295 0.0007 -0.0288
v 0.0294 0.0085 -0.0163
v 0.0291 0.0077 -0.0076
v 0.0285 -0.0068 0.0018
v 0.0326 0.0006 0.0107
v 0.0299 0.0058 0.0190
v 0.0284 0.0106 0.0269
vn -0.1327 -0.3731 0.9183
vn 0.1327 0.3731 -0.9183
vn 0.3912 -0.9200 -0.0252
vn -0.3912 0.9200 0.0252
vn -0.1138 -0.4550 -0.8832
vn 0.1138 0.4550 0.8832
vn -0.4778 -0.7373 0.4777
vn 0.4778 0.7373 -0.4777
vn -0.0740 -0.8700 0.4874
vn 0.0740 0.8700 -0.4874
vn -0.2361 -0.8553 0.4612
vn 0.2361 0.8553 -0.4612
vn -0.1019 -0.2152 0.9712
vn 0.1019 0.2152 -0.9712
vn -0.5937 -0.7791 -0.2012
vn 0.5937 0.7791 0.2012
vn -0.3149 -0.4255 -0.8484
vn 0.3149 0.4255 0.8484
vn -0.2372 -0.8228 0.5165
vn 0.2372 0.8228 -0.5165
vn -0.1413 -0.6390 0.7561
vn 0.1413 0.6390 -0.7561
vn -0.3834 -0.7351 -0.5591
vn 0.3834 0.7351 0.5591
vn -0.5143 -0.3404 0.7871
vn 0.5143 0.3404 -0.7871
vn -0.8088 -0.5853 -0.0578
vn 0.8088 0.5853 0.0578
vn -0.2641 -0.5304 -0.8056
vn 0.2641 0.5304 0.8056
vn -0.6668 -0.7428 -0.0602
vn 0.6668 0.7428 0.0602
vn -0.6579 -0.4289 0.6191
vn 0.6579 0.4289 -0.6191
vn -0.6900 -0.6641 -0.2878
vn 0.6900 0.6641 0.2878
vn 0.0494 -0.3595 0.9318
vn -0.0494 0.3595 -0.9318
vn 0.3008 -0.9493 0.0918
vn -0.3008 0.9493 -0.0918
vn -0.2173 -0.5237 -0.8237
vn 0.2173 0.5237 0.8237
vn -0.2243 -0.9745 -0.0049
vn 0.2243 0.9745 0.0049
vn 0.1893 -0.4311 0.8822
vn -0.1893 0.4311 -0.8822
vn -0.1436 -0.8955 -0.4213
vn 0.1436 0.8955 0.4213
vn -0.0186 -0.3818 0.9241
vn 0.0186 0.3818 -0.9241
vn -0.4497 -0.8915 0.0550
vn 0.4497 0.8915 -0.0550
vn -0.0618 -0.4119 -0.9091
vn 0.0618 0.4119 0.9091
vn 0.0916 -0.8551 0.5103
vn -0.0916 0.8551 -0.5103
vn 0.0820 -0.4657 0.8811
vn -0.0820 0.4657 -0.8811
vn 0.3558 -0.6395 -0.6815
vn -0.3558 0.6395 0.6815
vn 0.6633 -0.6367 0.3933
vn -0.6633 0.6367 -0.3933
vn 0.7570 -0.6512 -0.0531
vn -0.7570 0.6512 0.0531
vn 0.6506 -0.3740 -0.6609
vn -0.6506 0.3740 0.6609
vn 0.6373 -0.6739 0.3737
vn -0.6373 0.6739 -0.3737
vn 0.2397 -0.5748 0.7824
vn -0.2397 0.5748 -0.7824
vn 0.5275 -0.8496 0.0062
vn -0.5275 0.8496 -0.0062
usemtl gold
f 1//1 2//1 3//1 4//1
f 6//5 5//5 7//5 8//5
f 8//7 7//7 9//7 10//7
f 10//9 9//9 11//9 12//9
f 2//13 15//13 16//13 3//13
f 3//15 16//15 17//15 5//15
f 5//17 17//17 18//17 7//17
f 9//21 19//21 20//21 11//21
f 15//25 22//25 23//25 16//25
f 17//29 24//29 25//29 18//29
f 18//31 25//31 26//31 19//31
f 19//33 26//33 27//33 20//33
f 20//35 27//35 28//35 21//35
f 22//37 29//37 30//37 23//37
f 23//39 30//39 31//39 24//39
f 24//41 31//41 32//41 25//41
f 25//43 32//43 33//43 26//43
f 26//45 33//45 34//45 27//45
f 29//49 36//49 37//49 30//49
f 30//51 37//51 38//51 31//51
f 33//57 40//57 41//57 34//57
f 36//61 43//61 44//61 37//61
f 37//63 44//63 45//63 38//63
f 38//65 45//65 46//65 39//65
f 39//67 46//67 47//67 40//67
f 40//69 47//69 48//69 41//69
f 41//71 48//71 49//71 42//71
usemtl amber
f 4//2 3//2 2//2 1//2
f 6//4 5//4 3//4 4//4
f 8//6 7//6 5//6 6//6
f 10//8 9//8 7//8 8//8
f 12//10 11//10 9//10 10//10
f 14//12 13//12 11//12 12//12
f 3//14 16//14 15//14 2//14
f 5//16 17//16 16//16 3//16
f 7//18 18//18 17//18 5//18
f 9//20 19//20 18//20 7//20
f 11//22 20//22 19//22 9//22
f 13//24 21//24 20//24 11//24
f 16//26 23//26 22//26 15//26
f 17//28 24//28 23//28 16//28
f 18//30 25//30 24//30 17//30
f 19//32 26//32 25//32 18//32
f 20//34 27//34 26//34 19//34
f 21//36 28//36 27//36 20//36
f 23//38 30//38 29//38 22//38
f 24//40 31//40 30//40 23//40
f 25//42 32//42 31//42 24//42
f 26//44 33//44 32//44 25//44
f 27//46 34//46 33//46 26//46
f 28//48 35//48 34//48 27//48
f 30//50 37//50 36//50 29//50
f 31//52 38//52 37//52 30//52
f 32//54 39//54 38//54 31//54
f 33//56 40//56 39//56 32//56
f 34//58 41//58 40//58 33//58
f 35//60 42//60 41//60 34//60
f 37//62 44//62 43//62 36//62
f 38//64 45//64 44//64 37//64
f 39//66 46//66 45//66 38//66
f 40//68 47//68 46//68 39//68
f 41//70 48//70 47//70 40//70
f 42//72 49//72 48//72 41//72
usemtl goldB
f 4//3 3//3 5//3 6//3
f 12//11 11//11 13//11 14//11
f 7//19 18//19 19//19 9//19
f 11//23 20//23 21//23 13//23
f 16//27 23//27 24//27 17//27
f 27//47 34//47 35//47 28//47
f 31//53 38//53 39//53 32//53
f 32//55 39//55 40//55 33//55
f 34//59 41//59 42//59 35//59
