# Generated by scripts/mesh-gen - do not hand-edit, re-run npm run generate-meshes
# Basis: Crumpled MLI thermal-blanket foil (large)
# Authored real meters 1:1 (sub-meter debris, reached via the size-scaled camera standoff); origin-centered, tumbles
# Recipe: crumpled MLI foil, 6x5, two-sided gold/amber
# Seed: 19850925
mtllib deb-mli-01.mtl
o deb-mli-01
v -0.3893 -0.0555 -0.2878
v -0.2071 -0.0008 -0.2597
v -0.2757 -0.0999 -0.1914
v -0.3440 -0.0951 -0.1478
v -0.2690 -0.1253 -0.0822
v -0.4069 -0.1299 -0.0837
v -0.2455 -0.0813 0.0423
v -0.3363 -0.0824 0.0400
v -0.2442 -0.0104 0.2017
v -0.3772 -0.0475 0.1946
v -0.2839 0.0370 0.3166
v -0.3938 0.0430 0.2823
v -0.1399 0.0581 -0.3052
v -0.1106 -0.0344 -0.1945
v -0.1547 -0.0407 -0.0381
v -0.1560 -0.0010 0.0673
v -0.1255 0.0944 0.1920
v -0.0977 0.1198 0.2419
v -0.0167 0.0820 -0.2731
v -0.0196 0.0241 -0.1877
v 0.0096 -0.0092 -0.0517
v 0.0232 -0.0254 0.0541
v -0.0060 0.0386 0.2016
v -0.0137 0.1178 0.2774
v 0.1081 -0.0138 -0.3112
v 0.1346 -0.0652 -0.1749
v 0.1237 -0.1275 -0.0820
v 0.1158 -0.1195 0.0514
v 0.1195 -0.0027 0.1698
v 0.1009 -0.0037 0.2710
v 0.2143 -0.0568 -0.2454
v 0.2698 -0.1143 -0.1863
v 0.2830 -0.1419 -0.0565
v 0.2650 -0.1142 0.0759
v 0.2566 0.0140 0.1785
v 0.2419 0.0213 0.2365
v 0.3632 0.0446 -0.2620
v 0.3909 -0.0215 -0.2055
v 0.3689 -0.0274 -0.0721
v 0.3507 0.0544 0.0563
v 0.4381 0.0997 0.1717
v 0.3651 0.1019 0.3059
vn 0.1319 -0.8318 -0.5391
vn -0.1319 0.8318 0.5391
vn -0.0718 -0.9349 -0.3477
vn 0.0718 0.9349 0.3477
vn 0.0182 -0.9403 0.3398
vn -0.0182 0.9403 -0.3398
vn 0.1452 -0.9321 0.3320
vn -0.1452 0.9321 -0.3320
vn 0.0095 -0.8251 0.5649
vn -0.0095 0.8251 -0.5649
vn 0.2255 -0.6894 -0.6884
vn -0.2255 0.6894 0.6884
vn 0.4771 -0.8780 -0.0374
vn -0.4771 0.8780 0.0374
vn 0.5618 -0.7934 0.2345
vn -0.5618 0.7934 -0.2345
vn 0.6079 -0.7130 0.3493
vn -0.6079 0.7130 -0.3493
vn 0.5589 -0.7427 0.3688
vn -0.5589 0.7427 -0.3688
vn 0.3803 -0.7084 -0.5946
vn -0.3803 0.7084 0.5946
vn 0.3278 -0.9383 -0.1103
vn -0.3278 0.9383 0.1103
vn 0.0290 -0.9937 0.1087
vn -0.0290 0.9937 -0.1087
vn -0.2200 -0.8414 0.4937
vn 0.2200 0.8414 -0.4937
vn -0.3381 -0.6958 0.6337
vn 0.3381 0.6958 -0.6337
vn -0.5432 -0.7745 -0.3241
vn 0.5432 0.7745 0.3241
vn -0.6006 -0.7537 -0.2669
vn 0.6006 0.7537 0.2669
vn -0.7169 -0.6972 -0.0067
vn 0.7169 0.6972 0.0067
vn -0.4032 -0.7744 0.4875
vn 0.4032 0.7744 -0.4875
vn -0.5066 -0.8138 0.2848
vn 0.5066 0.8138 -0.2848
vn -0.2506 -0.8866 -0.3887
vn 0.2506 0.8866 0.3887
vn -0.1792 -0.9128 -0.3671
vn 0.1792 0.9128 0.3671
vn -0.0503 -0.9905 0.1283
vn 0.0503 0.9905 -0.1283
vn -0.0348 -0.6699 0.7417
vn 0.0348 0.6699 -0.7417
vn 0.1545 -0.9854 0.0717
vn -0.1545 0.9854 -0.0717
vn 0.2870 -0.5444 -0.7882
vn -0.2870 0.5444 0.7882
vn 0.7003 -0.7106 -0.0674
vn -0.7003 0.7106 0.0674
vn 0.8296 -0.4644 0.3100
vn -0.8296 0.4644 -0.3100
vn 0.6739 -0.6774 0.2949
vn -0.6739 0.6774 -0.2949
vn 0.4270 -0.8723 0.2384
vn -0.4270 0.8723 -0.2384
usemtl gold
f 1//1 2//1 3//1 4//1
f 8//7 7//7 9//7 10//7
f 10//9 9//9 11//9 12//9
f 5//15 15//15 16//15 7//15
f 7//17 16//17 17//17 9//17
f 13//21 19//21 20//21 14//21
f 16//27 22//27 23//27 17//27
f 17//29 23//29 24//29 18//29
f 19//31 25//31 26//31 20//31
f 21//35 27//35 28//35 22//35
f 22//37 28//37 29//37 23//37
f 23//39 29//39 30//39 24//39
f 25//41 31//41 32//41 26//41
f 26//43 32//43 33//43 27//43
f 27//45 33//45 34//45 28//45
f 31//51 37//51 38//51 32//51
f 32//53 38//53 39//53 33//53
f 33//55 39//55 40//55 34//55
f 34//57 40//57 41//57 35//57
f 35//59 41//59 42//59 36//59
usemtl amber
f 4//2 3//2 2//2 1//2
f 6//4 5//4 3//4 4//4
f 8//6 7//6 5//6 6//6
f 10//8 9//8 7//8 8//8
f 12//10 11//10 9//10 10//10
f 3//12 14//12 13//12 2//12
f 5//14 15//14 14//14 3//14
f 7//16 16//16 15//16 5//16
f 9//18 17//18 16//18 7//18
f 11//20 18//20 17//20 9//20
f 14//22 20//22 19//22 13//22
f 15//24 21//24 20//24 14//24
f 16//26 22//26 21//26 15//26
f 17//28 23//28 22//28 16//28
f 18//30 24//30 23//30 17//30
f 20//32 26//32 25//32 19//32
f 21//34 27//34 26//34 20//34
f 22//36 28//36 27//36 21//36
f 23//38 29//38 28//38 22//38
f 24//40 30//40 29//40 23//40
f 26//42 32//42 31//42 25//42
f 27//44 33//44 32//44 26//44
f 28//46 34//46 33//46 27//46
f 29//48 35//48 34//48 28//48
f 30//50 36//50 35//50 29//50
f 32//52 38//52 37//52 31//52
f 33//54 39//54 38//54 32//54
f 34//56 40//56 39//56 33//56
f 35//58 41//58 40//58 34//58
f 36//60 42//60 41//60 35//60
usemtl goldB
f 4//3 3//3 5//3 6//3
f 6//5 5//5 7//5 8//5
f 2//11 13//11 14//11 3//11
f 3//13 14//13 15//13 5//13
f 9//19 17//19 18//19 11//19
f 14//23 20//23 21//23 15//23
f 15//25 21//25 22//25 16//25
f 20//33 26//33 27//33 21//33
f 28//47 34//47 35//47 29//47
f 29//49 35//49 36//49 30//49
