# Generated by scripts/mesh-gen - do not hand-edit, re-run npm run generate-meshes
# Basis: Solar-array / honeycomb panel fragment (small, strongly curled)
# Authored real meters 1:1 (sub-meter debris, reached via the size-scaled camera standoff); origin-centered, tumbles
# Recipe: bent torn honeycomb solar-panel fragment, 5x5 cells
# Seed: 20081120
mtllib deb-panel-03.mtl
o deb-panel-03
v -0.3097 0.0785 -0.1902
v -0.2115 0.0761 -0.1899
v -0.1784 0.0156 -0.3283
v -0.3776 0.0283 -0.3666
v -0.3776 -0.0217 -0.3666
v -0.1784 -0.0344 -0.3283
v -0.2115 0.0261 -0.1899
v -0.3097 0.0285 -0.1902
v -0.3120 0.1285 -0.0468
v -0.2254 0.1421 -0.0573
v -0.2254 0.0921 -0.0573
v -0.3120 0.0785 -0.0468
v -0.3122 0.1539 0.0383
v -0.2294 0.1276 0.0574
v -0.2294 0.0776 0.0574
v -0.3122 0.1039 0.0383
v -0.3631 0.0943 0.1956
v -0.1918 0.0755 0.1911
v -0.1918 0.0255 0.1911
v -0.3631 0.0443 0.1956
v -0.3054 0.0092 0.3186
v -0.2024 0.0261 0.3405
v -0.2024 -0.0239 0.3405
v -0.3054 -0.0408 0.3186
v -0.0687 0.1009 -0.1851
v -0.0444 0.0368 -0.3187
v -0.0444 -0.0132 -0.3187
v -0.0687 0.0509 -0.1851
v -0.0790 0.1550 -0.0638
v -0.0790 0.1050 -0.0638
v -0.0777 0.1556 0.0550
v -0.0777 0.1056 0.0550
v -0.0718 0.0818 0.1900
v -0.0718 0.0318 0.1900
v -0.0950 0.0204 0.3790
v -0.0950 -0.0296 0.3790
v 0.0670 0.0896 -0.2285
v 0.0697 0.0198 -0.3440
v 0.0697 -0.0302 -0.3440
v 0.0670 0.0396 -0.2285
v 0.0947 0.1262 -0.0841
v 0.0947 0.0762 -0.0841
v 0.0803 0.1359 0.0795
v 0.0803 0.0859 0.0795
v 0.0675 0.1113 0.2278
v 0.0675 0.0613 0.2278
v 0.0877 0.0293 0.3677
v 0.0877 -0.0207 0.3677
v 0.1923 0.0895 -0.1987
v 0.1560 0.0149 -0.2768
v 0.1560 -0.0351 -0.2768
v 0.1923 0.0395 -0.1987
v 0.2324 0.1316 -0.0944
v 0.2324 0.0816 -0.0944
v 0.1918 0.1412 0.0850
v 0.1918 0.0912 0.0850
v 0.2070 0.0911 0.1866
v 0.2070 0.0411 0.1866
v 0.2326 0.0278 0.3877
v 0.2326 -0.0222 0.3877
v 0.3168 0.0899 -0.2217
v 0.3336 0.0057 -0.3067
v 0.3336 -0.0443 -0.3067
v 0.3168 0.0399 -0.2217
v 0.3068 0.1570 -0.0582
v 0.3068 0.1070 -0.0582
v 0.2922 0.1232 0.0454
v 0.2922 0.0732 0.0454
v 0.3777 0.0792 0.2159
v 0.3777 0.0292 0.2159
v 0.2899 0.0283 0.2988
v 0.2899 -0.0217 0.2988
vn 0.0915 0.9361 -0.3395
vn -0.0915 -0.9361 0.3395
vn -0.0772 0.9175 -0.3902
vn 0.0772 -0.9175 0.3902
vn 0.0776 0.9956 -0.0527
vn -0.0776 -0.9956 0.0527
vn 0.1430 0.9218 0.3602
vn -0.1430 -0.9218 -0.3602
vn -0.0223 0.8947 0.4461
vn 0.0223 -0.8947 -0.4461
vn -0.1256 0.8916 -0.4350
vn 0.1256 -0.8916 0.4350
vn -0.1189 0.8931 -0.4338
vn 0.1189 -0.8931 0.4338
vn -0.1341 0.9893 0.0572
vn 0.1341 -0.9893 -0.0572
vn -0.1071 0.8935 0.4362
vn 0.1071 -0.8935 -0.4362
vn -0.0526 0.9505 0.3061
vn 0.0526 -0.9505 -0.3061
vn -0.0311 0.8791 -0.4757
vn 0.0311 -0.8791 0.4757
vn 0.0554 0.9438 -0.3258
vn -0.0554 -0.9438 0.3258
vn 0.1450 0.9890 -0.0296
vn -0.1450 -0.9890 0.0296
vn -0.0991 0.9406 0.3247
vn 0.0991 -0.9406 -0.3247
vn -0.1408 0.9080 0.3947
vn 0.1408 -0.9080 -0.3947
vn 0.2943 0.7408 -0.6039
vn -0.2943 -0.7408 0.6039
vn 0.0028 0.9532 -0.3024
vn -0.0028 -0.9532 0.3024
vn -0.0441 0.9970 -0.0631
vn 0.0441 -0.9970 0.0631
vn 0.0973 0.9538 0.2842
vn -0.0973 -0.9538 -0.2842
vn 0.0982 0.9202 0.3789
vn -0.0982 -0.9202 -0.3789
vn -0.0994 0.7190 -0.6879
vn 0.0994 -0.7190 0.6879
vn -0.0951 0.9254 -0.3670
vn 0.0951 -0.9254 0.3670
vn -0.0409 0.9962 0.0774
vn 0.0409 -0.9962 -0.0774
vn 0.1155 0.9512 0.2863
vn -0.1155 -0.9512 -0.2863
vn 0.1494 0.9056 0.3969
vn -0.1494 -0.9056 -0.3969
vn 0.1889 0.0000 -0.9820
vn -0.2084 0.0000 0.9780
vn 0.0714 0.0000 -0.9974
vn -0.3374 0.0000 0.9414
vn -0.2170 0.0000 -0.9762
vn 0.0618 0.0000 0.9981
vn 0.6147 0.0000 -0.7887
vn -0.1368 0.0000 0.9906
vn -0.1660 0.0000 -0.9861
vn 0.8407 0.0000 0.5415
vn -0.9332 0.0000 0.3594
vn 0.9810 0.0000 0.1940
vn -0.9999 0.0000 -0.0161
vn 0.9981 0.0000 0.0611
vn -1.0000 0.0000 -0.0027
vn 0.9902 0.0000 0.1396
vn -0.9516 0.0000 -0.3074
vn 0.8939 0.0000 -0.4482
vn -0.9053 0.0000 0.4247
vn 0.6859 0.0000 0.7277
usemtl cellB
f 1//1 2//1 3//1 4//1
f 9//3 10//3 2//3 1//3
f 33//27 45//27 43//27 31//27
f 35//29 47//29 45//29 33//29
f 45//37 57//37 55//37 43//37
f 55//45 67//45 65//45 53//45
usemtl back
f 5//2 6//2 7//2 8//2
f 8//4 7//4 11//4 12//4
f 12//6 11//6 15//6 16//6
f 16//8 15//8 19//8 20//8
f 20//10 19//10 23//10 24//10
f 6//12 27//12 28//12 7//12
f 7//14 28//14 30//14 11//14
f 11//16 30//16 32//16 15//16
f 15//18 32//18 34//18 19//18
f 19//20 34//20 36//20 23//20
f 27//22 39//22 40//22 28//22
f 28//24 40//24 42//24 30//24
f 30//26 42//26 44//26 32//26
f 32//28 44//28 46//28 34//28
f 34//30 46//30 48//30 36//30
f 39//32 51//32 52//32 40//32
f 40//34 52//34 54//34 42//34
f 42//36 54//36 56//36 44//36
f 44//38 56//38 58//38 46//38
f 46//40 58//40 60//40 48//40
f 51//42 63//42 64//42 52//42
f 52//44 64//44 66//44 54//44
f 54//46 66//46 68//46 56//46
f 56//48 68//48 70//48 58//48
f 58//50 70//50 72//50 60//50
usemtl cellA
f 13//5 14//5 10//5 9//5
f 17//7 18//7 14//7 13//7
f 21//9 22//9 18//9 17//9
f 2//11 25//11 26//11 3//11
f 10//13 29//13 25//13 2//13
f 14//15 31//15 29//15 10//15
f 18//17 33//17 31//17 14//17
f 22//19 35//19 33//19 18//19
f 25//21 37//21 38//21 26//21
f 29//23 41//23 37//23 25//23
f 31//25 43//25 41//25 29//25
f 37//31 49//31 50//31 38//31
f 41//33 53//33 49//33 37//33
f 43//35 55//35 53//35 41//35
f 47//39 59//39 57//39 45//39
f 49//41 61//41 62//41 50//41
f 53//43 65//43 61//43 49//43
f 57//47 69//47 67//47 55//47
f 59//49 71//49 69//49 57//49
usemtl edge
f 4//51 3//51 6//51 5//51
f 24//52 23//52 22//52 21//52
f 3//53 26//53 27//53 6//53
f 23//54 36//54 35//54 22//54
f 26//55 38//55 39//55 27//55
f 36//56 48//56 47//56 35//56
f 38//57 50//57 51//57 39//57
f 48//58 60//58 59//58 47//58
f 50//59 62//59 63//59 51//59
f 60//60 72//60 71//60 59//60
f 5//61 8//61 1//61 4//61
f 62//62 61//62 64//62 63//62
f 8//63 12//63 9//63 1//63
f 61//64 65//64 66//64 64//64
f 12//65 16//65 13//65 9//65
f 65//66 67//66 68//66 66//66
f 16//67 20//67 17//67 13//67
f 67//68 69//68 70//68 68//68
f 20//69 24//69 21//69 17//69
f 69//70 71//70 72//70 70//70
