# Generated by scripts/mesh-gen - do not hand-edit, re-run npm run generate-meshes
# Basis: Solar-array / honeycomb panel fragment (long strip, slight bow)
# Authored true 1:10 (sub-meter debris, reached via the size-scaled camera standoff); origin-centered, tumbles
# Recipe: bent torn honeycomb solar-panel fragment, 7x4 cells
# Seed: 20190315
mtllib deb-panel-02.mtl
o deb-panel-02
v -0.0487 0.0049 -0.0120
v -0.0412 0.0059 -0.0106
v -0.0394 0.0028 -0.0252
v -0.0507 0.0015 -0.0227
v -0.0507 -0.0020 -0.0227
v -0.0394 -0.0007 -0.0252
v -0.0412 0.0024 -0.0106
v -0.0487 0.0014 -0.0120
v -0.0561 0.0076 0.0008
v -0.0382 0.0080 0.0007
v -0.0382 0.0045 0.0007
v -0.0561 0.0041 0.0008
v -0.0549 0.0052 0.0118
v -0.0375 0.0059 0.0133
v -0.0375 0.0024 0.0133
v -0.0549 0.0017 0.0118
v -0.0493 0.0030 0.0240
v -0.0371 0.0018 0.0233
v -0.0371 -0.0017 0.0233
v -0.0493 -0.0005 0.0240
v -0.0239 0.0059 -0.0120
v -0.0209 0.0007 -0.0250
v -0.0209 -0.0028 -0.0250
v -0.0239 0.0024 -0.0120
v -0.0241 0.0075 0.0018
v -0.0241 0.0040 0.0018
v -0.0215 0.0052 0.0136
v -0.0215 0.0017 0.0136
v -0.0193 0.0018 0.0225
v -0.0193 -0.0017 0.0225
v -0.0094 0.0042 -0.0134
v -0.0084 0.0031 -0.0256
v -0.0084 -0.0004 -0.0256
v -0.0094 0.0007 -0.0134
v -0.0101 0.0074 -0.0009
v -0.0101 0.0039 -0.0009
v -0.0094 0.0053 0.0134
v -0.0094 0.0018 0.0134
v -0.0088 0.0028 0.0246
v -0.0088 -0.0007 0.0246
v 0.0061 0.0059 -0.0117
v 0.0078 0.0023 -0.0211
v 0.0078 -0.0012 -0.0211
v 0.0061 0.0024 -0.0117
v 0.0066 0.0060 0.0015
v 0.0066 0.0025 0.0015
v 0.0100 0.0055 0.0141
v 0.0100 0.0020 0.0141
v 0.0057 0.0017 0.0222
v 0.0057 -0.0018 0.0222
v 0.0251 0.0059 -0.0104
v 0.0210 0.0031 -0.0241
v 0.0210 -0.0004 -0.0241
v 0.0251 0.0024 -0.0104
v 0.0213 0.0078 -0.0011
v 0.0213 0.0043 -0.0011
v 0.0225 0.0064 0.0114
v 0.0225 0.0029 0.0114
v 0.0218 0.0018 0.0246
v 0.0218 -0.0017 0.0246
v 0.0412 0.0052 -0.0111
v 0.0347 0.0030 -0.0233
v 0.0347 -0.0005 -0.0233
v 0.0412 0.0017 -0.0111
v 0.0375 0.0061 0.0002
v 0.0375 0.0026 0.0002
v 0.0377 0.0046 0.0113
v 0.0377 0.0011 0.0113
v 0.0355 0.0008 0.0226
v 0.0355 -0.0027 0.0226
v 0.0503 0.0044 -0.0127
v 0.0550 0.0009 -0.0241
v 0.0550 -0.0026 -0.0241
v 0.0503 0.0009 -0.0127
v 0.0553 0.0067 -0.0017
v 0.0553 0.0032 -0.0017
v 0.0565 0.0052 0.0137
v 0.0565 0.0017 0.0137
v 0.0550 0.0005 0.0261
v 0.0550 -0.0030 0.0261
vn -0.1315 0.9593 -0.2500
vn 0.1315 -0.9593 0.2500
vn -0.0461 0.9784 -0.2016
vn 0.0461 -0.9784 0.2016
vn -0.0411 0.9806 0.1917
vn 0.0411 -0.9806 -0.1917
vn 0.0060 0.9629 0.2697
vn -0.0060 -0.9629 -0.2697
vn 0.0471 0.9580 -0.2830
vn -0.0471 -0.9580 0.2830
vn 0.0172 0.9890 -0.1471
vn -0.0172 -0.9890 0.1471
vn 0.0324 0.9847 0.1710
vn -0.0324 -0.9847 -0.1710
vn 0.0266 0.9292 0.3685
vn -0.0266 -0.9292 -0.3685
vn -0.0420 0.9681 -0.2469
vn 0.0420 -0.9681 0.2469
vn 0.0370 0.9830 -0.1798
vn -0.0370 -0.9830 0.1798
vn 0.0189 0.9863 0.1638
vn -0.0189 -0.9863 -0.1638
vn -0.0693 0.9536 0.2930
vn 0.0693 -0.9536 -0.2930
vn 0.0139 0.9775 -0.2103
vn -0.0139 -0.9775 0.2103
vn 0.0069 0.9916 -0.1293
vn -0.0069 -0.9916 0.1293
vn 0.0270 0.9951 0.0948
vn -0.0270 -0.9951 -0.0948
vn 0.0405 0.9489 0.3131
vn -0.0405 -0.9489 -0.3131
vn -0.0380 0.9638 -0.2639
vn 0.0380 -0.9638 0.2639
vn -0.0576 0.9934 -0.0990
vn 0.0576 -0.9934 0.0990
vn -0.0816 0.9922 0.0941
vn 0.0816 -0.9922 -0.0941
vn -0.0285 0.9349 0.3539
vn 0.0285 -0.9349 -0.3539
vn 0.0259 0.9796 -0.1991
vn -0.0259 -0.9796 0.1991
vn 0.0766 0.9911 -0.1089
vn -0.0766 -0.9911 0.1089
vn 0.1048 0.9876 0.1170
vn -0.1048 -0.9876 -0.1170
vn 0.1135 0.9365 0.3317
vn -0.1135 -0.9365 -0.3317
vn 0.0769 0.9676 -0.2405
vn -0.0769 -0.9676 0.2405
vn -0.0105 0.9901 -0.1400
vn 0.0105 -0.9901 0.1400
vn -0.0345 0.9933 0.1105
vn 0.0345 -0.9933 -0.1105
vn -0.0591 0.9419 0.3305
vn 0.0591 -0.9419 -0.3305
vn -0.2120 0.0000 -0.9773
vn 0.0568 0.0000 0.9984
vn 0.0120 0.0000 -0.9999
vn 0.0479 0.0000 0.9989
vn -0.0481 0.0000 -0.9988
vn -0.1992 0.0000 0.9800
vn 0.2653 0.0000 -0.9642
vn 0.1608 0.0000 0.9870
vn -0.2182 0.0000 -0.9759
vn -0.1418 0.0000 0.9899
vn 0.0550 0.0000 -0.9985
vn 0.1380 0.0000 0.9904
vn -0.0378 0.0000 -0.9993
vn -0.1733 0.0000 0.9849
vn -0.9845 0.0000 0.1754
vn 0.9234 0.0000 0.3839
vn -0.8671 0.0000 -0.4981
vn 0.9112 0.0000 -0.4119
vn -0.9937 0.0000 0.1120
vn 0.9968 0.0000 -0.0800
vn -0.9074 0.0000 0.4202
vn 0.9930 0.0000 0.1185
usemtl cellB
f 1//1 2//1 3//1 4//1
f 17//7 18//7 14//7 13//7
f 10//11 25//11 21//11 2//11
f 18//15 29//15 27//15 14//15
f 35//27 45//27 41//27 31//27
f 47//37 57//37 55//37 45//37
f 49//39 59//39 57//39 47//39
f 55//43 65//43 61//43 51//43
f 65//51 75//51 71//51 61//51
f 67//53 77//53 75//53 65//53
usemtl back
f 5//2 6//2 7//2 8//2
f 8//4 7//4 11//4 12//4
f 12//6 11//6 15//6 16//6
f 16//8 15//8 19//8 20//8
f 6//10 23//10 24//10 7//10
f 7//12 24//12 26//12 11//12
f 11//14 26//14 28//14 15//14
f 15//16 28//16 30//16 19//16
f 23//18 33//18 34//18 24//18
f 24//20 34//20 36//20 26//20
f 26//22 36//22 38//22 28//22
f 28//24 38//24 40//24 30//24
f 33//26 43//26 44//26 34//26
f 34//28 44//28 46//28 36//28
f 36//30 46//30 48//30 38//30
f 38//32 48//32 50//32 40//32
f 43//34 53//34 54//34 44//34
f 44//36 54//36 56//36 46//36
f 46//38 56//38 58//38 48//38
f 48//40 58//40 60//40 50//40
f 53//42 63//42 64//42 54//42
f 54//44 64//44 66//44 56//44
f 56//46 66//46 68//46 58//46
f 58//48 68//48 70//48 60//48
f 63//50 73//50 74//50 64//50
f 64//52 74//52 76//52 66//52
f 66//54 76//54 78//54 68//54
f 68//56 78//56 80//56 70//56
usemtl cellA
f 9//3 10//3 2//3 1//3
f 13//5 14//5 10//5 9//5
f 2//9 21//9 22//9 3//9
f 14//13 27//13 25//13 10//13
f 21//17 31//17 32//17 22//17
f 25//19 35//19 31//19 21//19
f 27//21 37//21 35//21 25//21
f 29//23 39//23 37//23 27//23
f 31//25 41//25 42//25 32//25
f 37//29 47//29 45//29 35//29
f 39//31 49//31 47//31 37//31
f 41//33 51//33 52//33 42//33
f 45//35 55//35 51//35 41//35
f 51//41 61//41 62//41 52//41
f 57//45 67//45 65//45 55//45
f 59//47 69//47 67//47 57//47
f 61//49 71//49 72//49 62//49
f 69//55 79//55 77//55 67//55
usemtl edge
f 4//57 3//57 6//57 5//57
f 20//58 19//58 18//58 17//58
f 3//59 22//59 23//59 6//59
f 19//60 30//60 29//60 18//60
f 22//61 32//61 33//61 23//61
f 30//62 40//62 39//62 29//62
f 32//63 42//63 43//63 33//63
f 40//64 50//64 49//64 39//64
f 42//65 52//65 53//65 43//65
f 50//66 60//66 59//66 49//66
f 52//67 62//67 63//67 53//67
f 60//68 70//68 69//68 59//68
f 62//69 72//69 73//69 63//69
f 70//70 80//70 79//70 69//70
f 5//71 8//71 1//71 4//71
f 72//72 71//72 74//72 73//72
f 8//73 12//73 9//73 1//73
f 71//74 75//74 76//74 74//74
f 12//75 16//75 13//75 9//75
f 75//76 77//76 78//76 76//76
f 16//77 20//77 17//77 13//77
f 77//78 79//78 80//78 78//78
