# Generated by scripts/mesh-gen - do not hand-edit, re-run npm run generate-meshes
# Basis: Solar-array / honeycomb panel fragment (bent, torn)
# Authored 1:10 then x5 oversize for visibility (sub-meter debris is ~1px at the 0.75 km camera floor); origin-centered, tumbles
# Recipe: bent torn honeycomb solar-panel fragment, 6x5 cells
# Seed: 20260704
mtllib deb-panel-01.mtl
o deb-panel-01
v -0.2252 0.0412 -0.1099
v -0.1501 0.0370 -0.1065
v -0.1300 0.0082 -0.1444
v -0.2202 0.0148 -0.1567
v -0.2202 -0.0052 -0.1567
v -0.1300 -0.0118 -0.1444
v -0.1501 0.0170 -0.1065
v -0.2252 0.0212 -0.1099
v -0.2253 0.0422 -0.0387
v -0.1528 0.0512 -0.0387
v -0.1528 0.0312 -0.0387
v -0.2253 0.0222 -0.0387
v -0.2063 0.0536 0.0301
v -0.1429 0.0403 0.0283
v -0.1429 0.0203 0.0283
v -0.2063 0.0336 0.0301
v -0.1896 0.0381 0.0764
v -0.1599 0.0395 0.1066
v -0.1599 0.0195 0.1066
v -0.1896 0.0181 0.0764
v -0.2268 0.0081 0.1635
v -0.1509 0.0178 0.1418
v -0.1509 -0.0022 0.1418
v -0.2268 -0.0119 0.1635
v -0.0690 0.0410 -0.0936
v -0.0702 0.0161 -0.1545
v -0.0702 -0.0039 -0.1545
v -0.0690 0.0210 -0.0936
v -0.0705 0.0457 -0.0402
v -0.0705 0.0257 -0.0402
v -0.0795 0.0424 0.0278
v -0.0795 0.0224 0.0278
v -0.0690 0.0256 0.0989
v -0.0690 0.0056 0.0989
v -0.0769 0.0141 0.1813
v -0.0769 -0.0059 0.1813
v -0.0067 0.0377 -0.0899
v 0.0076 0.0138 -0.1270
v 0.0076 -0.0062 -0.1270
v -0.0067 0.0177 -0.0899
v -0.0006 0.0412 -0.0317
v -0.0006 0.0212 -0.0317
v 0.0111 0.0446 0.0257
v 0.0111 0.0246 0.0257
v -0.0055 0.0320 0.1036
v -0.0055 0.0120 0.1036
v -0.0098 0.0165 0.1502
v -0.0098 -0.0035 0.1502
v 0.0694 0.0373 -0.0902
v 0.0718 0.0106 -0.1636
v 0.0718 -0.0094 -0.1636
v 0.0694 0.0173 -0.0902
v 0.0661 0.0425 -0.0319
v 0.0661 0.0225 -0.0319
v 0.0664 0.0550 0.0291
v 0.0664 0.0350 0.0291
v 0.0854 0.0298 0.0911
v 0.0854 0.0098 0.0911
v 0.0779 0.0080 0.1534
v 0.0779 -0.0120 0.1534
v 0.1464 0.0304 -0.0989
v 0.1507 0.0099 -0.1435
v 0.1507 -0.0101 -0.1435
v 0.1464 0.0104 -0.0989
v 0.1405 0.0543 -0.0275
v 0.1405 0.0343 -0.0275
v 0.1395 0.0545 0.0270
v 0.1395 0.0345 0.0270
v 0.1416 0.0386 0.1068
v 0.1416 0.0186 0.1068
v 0.1329 0.0041 0.1389
v 0.1329 -0.0159 0.1389
v 0.2377 0.0352 -0.0886
v 0.2240 0.0028 -0.1609
v 0.2240 -0.0172 -0.1609
v 0.2377 0.0152 -0.0886
v 0.2192 0.0451 -0.0333
v 0.2192 0.0251 -0.0333
v 0.2004 0.0460 0.0380
v 0.2004 0.0260 0.0380
v 0.2077 0.0279 0.0915
v 0.2077 0.0079 0.0915
v 0.2123 0.0021 0.1658
v 0.2123 -0.0179 0.1658
vn 0.1044 0.8470 -0.5212
vn -0.1044 -0.8470 0.5212
vn -0.0293 0.9936 -0.1093
vn 0.0293 -0.9936 0.1093
vn 0.0317 0.9994 -0.0107
vn -0.0317 -0.9994 0.0107
vn 0.0857 0.9878 0.1299
vn -0.0857 -0.9878 -0.1299
vn -0.1260 0.9239 0.3614
vn 0.1260 -0.9239 -0.3614
vn -0.0636 0.8718 -0.4857
vn 0.0636 -0.8718 0.4857
vn 0.0193 0.9880 -0.1530
vn -0.0193 -0.9880 0.1530
vn 0.0248 0.9942 0.1042
vn -0.0248 -0.9942 -0.1042
vn 0.0826 0.9893 0.1200
vn -0.0826 -0.9893 -0.1200
vn 0.0502 0.9612 0.2712
vn -0.0502 -0.9612 -0.2712
vn 0.1311 0.8943 -0.4279
vn -0.1311 -0.8943 0.4279
vn 0.0661 0.9950 -0.0753
vn -0.0661 -0.9950 0.0753
vn 0.0145 0.9999 -0.0009
vn -0.0145 -0.9999 0.0009
vn -0.0581 0.9800 0.1905
vn 0.0581 -0.9800 -0.1905
vn -0.0250 0.9789 0.2027
vn 0.0250 -0.9789 -0.2027
vn -0.0890 0.9002 -0.4263
vn 0.0890 -0.9002 0.4263
vn -0.0071 0.9972 -0.0739
vn 0.0071 -0.9972 0.0739
vn -0.0917 0.9882 -0.1229
vn 0.0917 -0.9882 0.1229
vn -0.0378 0.9647 0.2606
vn 0.0378 -0.9647 -0.2606
vn 0.0735 0.9408 0.3308
vn -0.0735 -0.9408 -0.3308
vn 0.0715 0.9273 -0.3673
vn -0.0715 -0.9273 0.3673
vn -0.0376 0.9745 -0.2211
vn 0.0376 -0.9745 0.2211
vn -0.0741 0.9914 -0.1083
vn 0.0741 -0.9914 0.1083
vn -0.0911 0.9529 0.2892
vn 0.0911 -0.9529 -0.2892
vn -0.0436 0.8614 0.5060
vn 0.0436 -0.8614 -0.5060
vn -0.0048 0.9112 -0.4119
vn 0.0048 -0.9112 0.4119
vn 0.0316 0.9673 -0.2518
vn -0.0316 -0.9673 0.2518
vn 0.1253 0.9920 0.0120
vn -0.1253 -0.9920 -0.0120
vn 0.1529 0.9601 0.2340
vn -0.1529 -0.9601 -0.2340
vn 0.0369 0.8691 0.4933
vn -0.0369 -0.8691 -0.4933
vn 0.1344 0.0000 -0.9909
vn 0.2754 0.0000 0.9613
vn -0.1656 0.0000 -0.9862
vn -0.4709 0.0000 0.8822
vn 0.3334 0.0000 -0.9428
vn 0.4208 0.0000 0.9072
vn -0.4963 0.0000 -0.8682
vn -0.0364 0.0000 0.9993
vn 0.2464 0.0000 -0.9692
vn 0.2544 0.0000 0.9671
vn -0.2306 0.0000 -0.9730
vn -0.3200 0.0000 0.9474
vn -0.9944 0.0000 -0.1055
vn 0.9825 0.0000 -0.1863
vn -1.0000 0.0000 -0.0020
vn 0.9482 0.0000 0.3177
vn -0.9639 0.0000 0.2662
vn 0.9668 0.0000 0.2556
vn -0.9409 0.0000 0.3387
vn 0.9908 0.0000 -0.1354
vn -0.9197 0.0000 -0.3926
vn 0.9980 0.0000 -0.0628
usemtl cellA
f 1//1 2//1 3//1 4//1
f 13//5 14//5 10//5 9//5
f 17//7 18//7 14//7 13//7
f 21//9 22//9 18//9 17//9
f 2//11 25//11 26//11 3//11
f 25//21 37//21 38//21 26//21
f 29//23 41//23 37//23 25//23
f 31//25 43//25 41//25 29//25
f 41//33 53//33 49//33 37//33
f 45//37 57//37 55//37 43//37
f 47//39 59//39 57//39 45//39
f 49//41 61//41 62//41 50//41
f 53//43 65//43 61//43 49//43
f 57//47 69//47 67//47 55//47
f 59//49 71//49 69//49 57//49
f 61//51 73//51 74//51 62//51
usemtl back
f 5//2 6//2 7//2 8//2
f 8//4 7//4 11//4 12//4
f 12//6 11//6 15//6 16//6
f 16//8 15//8 19//8 20//8
f 20//10 19//10 23//10 24//10
f 6//12 27//12 28//12 7//12
f 7//14 28//14 30//14 11//14
f 11//16 30//16 32//16 15//16
f 15//18 32//18 34//18 19//18
f 19//20 34//20 36//20 23//20
f 27//22 39//22 40//22 28//22
f 28//24 40//24 42//24 30//24
f 30//26 42//26 44//26 32//26
f 32//28 44//28 46//28 34//28
f 34//30 46//30 48//30 36//30
f 39//32 51//32 52//32 40//32
f 40//34 52//34 54//34 42//34
f 42//36 54//36 56//36 44//36
f 44//38 56//38 58//38 46//38
f 46//40 58//40 60//40 48//40
f 51//42 63//42 64//42 52//42
f 52//44 64//44 66//44 54//44
f 54//46 66//46 68//46 56//46
f 56//48 68//48 70//48 58//48
f 58//50 70//50 72//50 60//50
f 63//52 75//52 76//52 64//52
f 64//54 76//54 78//54 66//54
f 66//56 78//56 80//56 68//56
f 68//58 80//58 82//58 70//58
f 70//60 82//60 84//60 72//60
usemtl cellB
f 9//3 10//3 2//3 1//3
f 10//13 29//13 25//13 2//13
f 14//15 31//15 29//15 10//15
f 18//17 33//17 31//17 14//17
f 22//19 35//19 33//19 18//19
f 33//27 45//27 43//27 31//27
f 35//29 47//29 45//29 33//29
f 37//31 49//31 50//31 38//31
f 43//35 55//35 53//35 41//35
f 55//45 67//45 65//45 53//45
f 65//53 77//53 73//53 61//53
f 67//55 79//55 77//55 65//55
f 69//57 81//57 79//57 67//57
f 71//59 83//59 81//59 69//59
usemtl edge
f 4//61 3//61 6//61 5//61
f 24//62 23//62 22//62 21//62
f 3//63 26//63 27//63 6//63
f 23//64 36//64 35//64 22//64
f 26//65 38//65 39//65 27//65
f 36//66 48//66 47//66 35//66
f 38//67 50//67 51//67 39//67
f 48//68 60//68 59//68 47//68
f 50//69 62//69 63//69 51//69
f 60//70 72//70 71//70 59//70
f 62//71 74//71 75//71 63//71
f 72//72 84//72 83//72 71//72
f 5//73 8//73 1//73 4//73
f 74//74 73//74 76//74 75//74
f 8//75 12//75 9//75 1//75
f 73//76 77//76 78//76 76//76
f 12//77 16//77 13//77 9//77
f 77//78 79//78 80//78 78//78
f 16//79 20//79 17//79 13//79
f 79//80 81//80 82//80 80//80
f 20//81 24//81 21//81 17//81
f 81//82 83//82 84//82 82//82
