# Generated by scripts/mesh-gen - do not hand-edit, re-run npm run generate-meshes
# Basis: Solar-array / honeycomb panel fragment (bent, torn)
# Authored true 1:10 (sub-meter debris, reached via the size-scaled camera standoff); origin-centered, tumbles
# Recipe: bent torn honeycomb solar-panel fragment, 6x5 cells
# Seed: 20260704
mtllib deb-panel-01.mtl
o deb-panel-01
v -0.0450 0.0082 -0.0220
v -0.0300 0.0074 -0.0213
v -0.0260 0.0016 -0.0289
v -0.0440 0.0030 -0.0313
v -0.0440 -0.0010 -0.0313
v -0.0260 -0.0024 -0.0289
v -0.0300 0.0034 -0.0213
v -0.0450 0.0042 -0.0220
v -0.0451 0.0084 -0.0077
v -0.0306 0.0102 -0.0077
v -0.0306 0.0062 -0.0077
v -0.0451 0.0044 -0.0077
v -0.0413 0.0107 0.0060
v -0.0286 0.0081 0.0057
v -0.0286 0.0041 0.0057
v -0.0413 0.0067 0.0060
v -0.0379 0.0076 0.0153
v -0.0320 0.0079 0.0213
v -0.0320 0.0039 0.0213
v -0.0379 0.0036 0.0153
v -0.0454 0.0016 0.0327
v -0.0302 0.0036 0.0284
v -0.0302 -0.0004 0.0284
v -0.0454 -0.0024 0.0327
v -0.0138 0.0082 -0.0187
v -0.0140 0.0032 -0.0309
v -0.0140 -0.0008 -0.0309
v -0.0138 0.0042 -0.0187
v -0.0141 0.0091 -0.0080
v -0.0141 0.0051 -0.0080
v -0.0159 0.0085 0.0056
v -0.0159 0.0045 0.0056
v -0.0138 0.0051 0.0198
v -0.0138 0.0011 0.0198
v -0.0154 0.0028 0.0363
v -0.0154 -0.0012 0.0363
v -0.0013 0.0075 -0.0180
v 0.0015 0.0028 -0.0254
v 0.0015 -0.0012 -0.0254
v -0.0013 0.0035 -0.0180
v -0.0001 0.0082 -0.0063
v -0.0001 0.0042 -0.0063
v 0.0022 0.0089 0.0051
v 0.0022 0.0049 0.0051
v -0.0011 0.0064 0.0207
v -0.0011 0.0024 0.0207
v -0.0020 0.0033 0.0300
v -0.0020 -0.0007 0.0300
v 0.0139 0.0075 -0.0180
v 0.0144 0.0021 -0.0327
v 0.0144 -0.0019 -0.0327
v 0.0139 0.0035 -0.0180
v 0.0132 0.0085 -0.0064
v 0.0132 0.0045 -0.0064
v 0.0133 0.0110 0.0058
v 0.0133 0.0070 0.0058
v 0.0171 0.0060 0.0182
v 0.0171 0.0020 0.0182
v 0.0156 0.0016 0.0307
v 0.0156 -0.0024 0.0307
v 0.0293 0.0061 -0.0198
v 0.0301 0.0020 -0.0287
v 0.0301 -0.0020 -0.0287
v 0.0293 0.0021 -0.0198
v 0.0281 0.0109 -0.0055
v 0.0281 0.0069 -0.0055
v 0.0279 0.0109 0.0054
v 0.0279 0.0069 0.0054
v 0.0283 0.0077 0.0214
v 0.0283 0.0037 0.0214
v 0.0266 0.0008 0.0278
v 0.0266 -0.0032 0.0278
v 0.0475 0.0070 -0.0177
v 0.0448 0.0006 -0.0322
v 0.0448 -0.0034 -0.0322
v 0.0475 0.0030 -0.0177
v 0.0438 0.0090 -0.0067
v 0.0438 0.0050 -0.0067
v 0.0401 0.0092 0.0076
v 0.0401 0.0052 0.0076
v 0.0415 0.0056 0.0183
v 0.0415 0.0016 0.0183
v 0.0425 0.0004 0.0332
v 0.0425 -0.0036 0.0332
vn 0.1044 0.8470 -0.5212
vn -0.1044 -0.8470 0.5212
vn -0.0293 0.9936 -0.1093
vn 0.0293 -0.9936 0.1093
vn 0.0317 0.9994 -0.0107
vn -0.0317 -0.9994 0.0107
vn 0.0857 0.9878 0.1299
vn -0.0857 -0.9878 -0.1299
vn -0.1260 0.9239 0.3614
vn 0.1260 -0.9239 -0.3614
vn -0.0636 0.8718 -0.4857
vn 0.0636 -0.8718 0.4857
vn 0.0193 0.9880 -0.1530
vn -0.0193 -0.9880 0.1530
vn 0.0248 0.9942 0.1042
vn -0.0248 -0.9942 -0.1042
vn 0.0826 0.9893 0.1200
vn -0.0826 -0.9893 -0.1200
vn 0.0502 0.9612 0.2712
vn -0.0502 -0.9612 -0.2712
vn 0.1311 0.8943 -0.4279
vn -0.1311 -0.8943 0.4279
vn 0.0661 0.9950 -0.0753
vn -0.0661 -0.9950 0.0753
vn 0.0145 0.9999 -0.0009
vn -0.0145 -0.9999 0.0009
vn -0.0581 0.9800 0.1905
vn 0.0581 -0.9800 -0.1905
vn -0.0250 0.9789 0.2027
vn 0.0250 -0.9789 -0.2027
vn -0.0890 0.9002 -0.4263
vn 0.0890 -0.9002 0.4263
vn -0.0071 0.9972 -0.0739
vn 0.0071 -0.9972 0.0739
vn -0.0917 0.9882 -0.1229
vn 0.0917 -0.9882 0.1229
vn -0.0378 0.9647 0.2606
vn 0.0378 -0.9647 -0.2606
vn 0.0735 0.9408 0.3308
vn -0.0735 -0.9408 -0.3308
vn 0.0715 0.9273 -0.3673
vn -0.0715 -0.9273 0.3673
vn -0.0376 0.9745 -0.2211
vn 0.0376 -0.9745 0.2211
vn -0.0741 0.9914 -0.1083
vn 0.0741 -0.9914 0.1083
vn -0.0911 0.9529 0.2892
vn 0.0911 -0.9529 -0.2892
vn -0.0436 0.8614 0.5060
vn 0.0436 -0.8614 -0.5060
vn -0.0048 0.9112 -0.4119
vn 0.0048 -0.9112 0.4119
vn 0.0316 0.9673 -0.2518
vn -0.0316 -0.9673 0.2518
vn 0.1253 0.9920 0.0120
vn -0.1253 -0.9920 -0.0120
vn 0.1529 0.9601 0.2340
vn -0.1529 -0.9601 -0.2340
vn 0.0369 0.8691 0.4933
vn -0.0369 -0.8691 -0.4933
vn 0.1344 0.0000 -0.9909
vn 0.2754 0.0000 0.9613
vn -0.1656 0.0000 -0.9862
vn -0.4709 0.0000 0.8822
vn 0.3334 0.0000 -0.9428
vn 0.4208 0.0000 0.9072
vn -0.4963 0.0000 -0.8682
vn -0.0364 0.0000 0.9993
vn 0.2464 0.0000 -0.9692
vn 0.2544 0.0000 0.9671
vn -0.2306 0.0000 -0.9730
vn -0.3200 0.0000 0.9474
vn -0.9944 0.0000 -0.1055
vn 0.9825 0.0000 -0.1863
vn -1.0000 0.0000 -0.0020
vn 0.9482 0.0000 0.3177
vn -0.9639 0.0000 0.2662
vn 0.9668 0.0000 0.2556
vn -0.9409 0.0000 0.3387
vn 0.9908 0.0000 -0.1354
vn -0.9197 0.0000 -0.3926
vn 0.9980 0.0000 -0.0628
usemtl cellA
f 1//1 2//1 3//1 4//1
f 13//5 14//5 10//5 9//5
f 17//7 18//7 14//7 13//7
f 21//9 22//9 18//9 17//9
f 2//11 25//11 26//11 3//11
f 25//21 37//21 38//21 26//21
f 29//23 41//23 37//23 25//23
f 31//25 43//25 41//25 29//25
f 41//33 53//33 49//33 37//33
f 45//37 57//37 55//37 43//37
f 47//39 59//39 57//39 45//39
f 49//41 61//41 62//41 50//41
f 53//43 65//43 61//43 49//43
f 57//47 69//47 67//47 55//47
f 59//49 71//49 69//49 57//49
f 61//51 73//51 74//51 62//51
usemtl back
f 5//2 6//2 7//2 8//2
f 8//4 7//4 11//4 12//4
f 12//6 11//6 15//6 16//6
f 16//8 15//8 19//8 20//8
f 20//10 19//10 23//10 24//10
f 6//12 27//12 28//12 7//12
f 7//14 28//14 30//14 11//14
f 11//16 30//16 32//16 15//16
f 15//18 32//18 34//18 19//18
f 19//20 34//20 36//20 23//20
f 27//22 39//22 40//22 28//22
f 28//24 40//24 42//24 30//24
f 30//26 42//26 44//26 32//26
f 32//28 44//28 46//28 34//28
f 34//30 46//30 48//30 36//30
f 39//32 51//32 52//32 40//32
f 40//34 52//34 54//34 42//34
f 42//36 54//36 56//36 44//36
f 44//38 56//38 58//38 46//38
f 46//40 58//40 60//40 48//40
f 51//42 63//42 64//42 52//42
f 52//44 64//44 66//44 54//44
f 54//46 66//46 68//46 56//46
f 56//48 68//48 70//48 58//48
f 58//50 70//50 72//50 60//50
f 63//52 75//52 76//52 64//52
f 64//54 76//54 78//54 66//54
f 66//56 78//56 80//56 68//56
f 68//58 80//58 82//58 70//58
f 70//60 82//60 84//60 72//60
usemtl cellB
f 9//3 10//3 2//3 1//3
f 10//13 29//13 25//13 2//13
f 14//15 31//15 29//15 10//15
f 18//17 33//17 31//17 14//17
f 22//19 35//19 33//19 18//19
f 33//27 45//27 43//27 31//27
f 35//29 47//29 45//29 33//29
f 37//31 49//31 50//31 38//31
f 43//35 55//35 53//35 41//35
f 55//45 67//45 65//45 53//45
f 65//53 77//53 73//53 61//53
f 67//55 79//55 77//55 65//55
f 69//57 81//57 79//57 67//57
f 71//59 83//59 81//59 69//59
usemtl edge
f 4//61 3//61 6//61 5//61
f 24//62 23//62 22//62 21//62
f 3//63 26//63 27//63 6//63
f 23//64 36//64 35//64 22//64
f 26//65 38//65 39//65 27//65
f 36//66 48//66 47//66 35//66
f 38//67 50//67 51//67 39//67
f 48//68 60//68 59//68 47//68
f 50//69 62//69 63//69 51//69
f 60//70 72//70 71//70 59//70
f 62//71 74//71 75//71 63//71
f 72//72 84//72 83//72 71//72
f 5//73 8//73 1//73 4//73
f 74//74 73//74 76//74 75//74
f 8//75 12//75 9//75 1//75
f 73//76 77//76 78//76 76//76
f 12//77 16//77 13//77 9//77
f 77//78 79//78 80//78 78//78
f 16//79 20//79 17//79 13//79
f 79//80 81//80 82//80 80//80
f 20//81 24//81 21//81 17//81
f 81//82 83//82 84//82 82//82
