# Generated by scripts/mesh-gen - do not hand-edit, re-run npm run generate-meshes
# Basis: Crumpled MLI thermal-blanket foil (folded strip)
# Authored true 1:10 (sub-meter debris, reached via the size-scaled camera standoff); origin-centered, tumbles
# Recipe: crumpled MLI foil, 7x4, two-sided gold/amber
# Seed: 20060713
mtllib deb-mli-02.mtl
o deb-mli-02
v -0.0513 0.0000 -0.0219
v -0.0331 0.0014 -0.0220
v -0.0348 0.0093 -0.0127
v -0.0488 0.0058 -0.0092
v -0.0378 0.0062 -0.0017
v -0.0508 0.0067 0.0010
v -0.0357 0.0025 0.0110
v -0.0520 -0.0025 0.0128
v -0.0383 0.0010 0.0258
v -0.0434 -0.0044 0.0217
v -0.0236 -0.0058 -0.0244
v -0.0219 0.0007 -0.0123
v -0.0234 0.0060 -0.0006
v -0.0224 -0.0032 0.0091
v -0.0200 -0.0016 0.0188
v -0.0051 -0.0068 -0.0217
v -0.0075 -0.0018 -0.0094
v -0.0091 0.0003 0.0001
v -0.0076 -0.0069 0.0105
v -0.0063 -0.0064 0.0182
v 0.0050 -0.0085 -0.0198
v 0.0054 -0.0006 -0.0129
v 0.0076 -0.0005 -0.0002
v 0.0084 -0.0061 0.0098
v 0.0056 -0.0083 0.0179
v 0.0251 -0.0054 -0.0238
v 0.0198 0.0023 -0.0128
v 0.0219 0.0039 0.0000
v 0.0195 -0.0041 0.0126
v 0.0185 -0.0026 0.0187
v 0.0372 -0.0008 -0.0221
v 0.0346 0.0058 -0.0117
v 0.0362 0.0102 -0.0015
v 0.0335 -0.0006 0.0100
v 0.0356 0.0015 0.0222
v 0.0440 -0.0035 -0.0215
v 0.0445 0.0059 -0.0116
v 0.0461 0.0083 -0.0010
v 0.0454 -0.0015 0.0098
v 0.0488 -0.0032 0.0248
vn 0.1856 -0.8377 0.5136
vn -0.1856 0.8377 -0.5136
vn 0.0942 -0.9923 -0.0801
vn -0.0942 0.9923 0.0801
vn 0.0635 -0.8821 -0.4667
vn -0.0635 0.8821 0.4667
vn 0.4449 -0.8649 -0.2326
vn -0.4449 0.8649 0.2326
vn -0.4703 -0.7309 0.4946
vn 0.4703 0.7309 -0.4946
vn -0.3093 -0.9504 0.0337
vn 0.3093 0.9504 -0.0337
vn -0.1958 -0.8605 -0.4703
vn 0.1958 0.8605 0.4703
vn -0.2542 -0.9672 0.0026
vn 0.2542 0.9672 -0.0026
vn -0.1657 -0.8941 0.4162
vn 0.1657 0.8941 -0.4162
vn -0.2968 -0.9134 0.2785
vn 0.2968 0.9134 -0.2785
vn -0.2059 -0.7710 -0.6026
vn 0.2059 0.7710 0.6026
vn -0.2841 -0.9440 0.1679
vn 0.2841 0.9440 -0.1679
vn 0.0182 -0.8320 0.5544
vn -0.0182 0.8320 -0.5544
vn 0.0229 -0.9945 0.1017
vn -0.0229 0.9945 -0.1017
vn -0.0184 -0.8491 -0.5279
vn 0.0184 0.8491 0.5279
vn -0.0410 -0.9926 -0.1144
vn 0.0410 0.9926 0.1144
vn 0.2022 -0.7116 0.6729
vn -0.2022 0.7116 -0.6729
vn 0.2496 -0.9681 0.0202
vn -0.2496 0.9681 -0.0202
vn 0.2666 -0.8351 -0.4812
vn -0.2666 0.8351 0.4812
vn 0.2969 -0.9543 0.0354
vn -0.2969 0.9543 -0.0354
vn 0.1719 -0.7889 0.5900
vn -0.1719 0.7889 -0.5900
vn 0.3149 -0.9295 0.1923
vn -0.3149 0.9295 -0.1923
vn 0.1936 -0.7931 -0.5775
vn -0.1936 0.7931 0.5775
vn 0.2308 -0.9561 0.1806
vn -0.2308 0.9561 -0.1806
vn -0.1425 -0.7838 0.6045
vn 0.1425 0.7838 -0.6045
vn -0.0908 -0.9413 0.3251
vn 0.0908 0.9413 -0.3251
vn -0.0806 -0.7279 -0.6809
vn 0.0806 0.7279 0.6809
vn -0.2236 -0.9729 0.0595
vn 0.2236 0.9729 -0.0595
usemtl goldB
f 1//1 2//1 3//1 4//1
f 6//5 5//5 7//5 8//5
f 2//9 11//9 12//9 3//9
f 5//13 13//13 14//13 7//13
f 13//21 18//21 19//21 14//21
f 17//27 22//27 23//27 18//27
f 21//33 26//33 27//33 22//33
f 24//39 29//39 30//39 25//39
usemtl amber
f 4//2 3//2 2//2 1//2
f 6//4 5//4 3//4 4//4
f 8//6 7//6 5//6 6//6
f 10//8 9//8 7//8 8//8
f 3//10 12//10 11//10 2//10
f 5//12 13//12 12//12 3//12
f 7//14 14//14 13//14 5//14
f 9//16 15//16 14//16 7//16
f 12//18 17//18 16//18 11//18
f 13//20 18//20 17//20 12//20
f 14//22 19//22 18//22 13//22
f 15//24 20//24 19//24 14//24
f 17//26 22//26 21//26 16//26
f 18//28 23//28 22//28 17//28
f 19//30 24//30 23//30 18//30
f 20//32 25//32 24//32 19//32
f 22//34 27//34 26//34 21//34
f 23//36 28//36 27//36 22//36
f 24//38 29//38 28//38 23//38
f 25//40 30//40 29//40 24//40
f 27//42 32//42 31//42 26//42
f 28//44 33//44 32//44 27//44
f 29//46 34//46 33//46 28//46
f 30//48 35//48 34//48 29//48
f 32//50 37//50 36//50 31//50
f 33//52 38//52 37//52 32//52
f 34//54 39//54 38//54 33//54
f 35//56 40//56 39//56 34//56
usemtl gold
f 4//3 3//3 5//3 6//3
f 8//7 7//7 9//7 10//7
f 3//11 12//11 13//11 5//11
f 7//15 14//15 15//15 9//15
f 11//17 16//17 17//17 12//17
f 12//19 17//19 18//19 13//19
f 14//23 19//23 20//23 15//23
f 16//25 21//25 22//25 17//25
f 18//29 23//29 24//29 19//29
f 19//31 24//31 25//31 20//31
f 22//35 27//35 28//35 23//35
f 23//37 28//37 29//37 24//37
f 26//41 31//41 32//41 27//41
f 27//43 32//43 33//43 28//43
f 28//45 33//45 34//45 29//45
f 29//47 34//47 35//47 30//47
f 31//49 36//49 37//49 32//49
f 32//51 37//51 38//51 33//51
f 33//53 38//53 39//53 34//53
f 34//55 39//55 40//55 35//55
