# Generated by scripts/mesh-gen - do not hand-edit, re-run npm run generate-meshes
# Basis: Solar-array / honeycomb panel fragment (bent, torn)
# Authored real meters 1:1 (sub-meter debris, reached via the size-scaled camera standoff); origin-centered, tumbles
# Recipe: bent torn honeycomb solar-panel fragment, 6x5 cells
# Seed: 20260704
mtllib deb-panel-01.mtl
o deb-panel-01
v -0.4503 0.0824 -0.2198
v -0.3003 0.0740 -0.2131
v -0.2600 0.0165 -0.2889
v -0.4404 0.0296 -0.3133
v -0.4404 -0.0104 -0.3133
v -0.2600 -0.0235 -0.2889
v -0.3003 0.0340 -0.2131
v -0.4503 0.0424 -0.2198
v -0.4506 0.0845 -0.0775
v -0.3055 0.1024 -0.0774
v -0.3055 0.0624 -0.0774
v -0.4506 0.0445 -0.0775
v -0.4126 0.1072 0.0603
v -0.2858 0.0807 0.0566
v -0.2858 0.0407 0.0566
v -0.4126 0.0672 0.0603
v -0.3792 0.0761 0.1529
v -0.3199 0.0791 0.2132
v -0.3199 0.0391 0.2132
v -0.3792 0.0361 0.1529
v -0.4536 0.0163 0.3270
v -0.3018 0.0356 0.2836
v -0.3018 -0.0044 0.2836
v -0.4536 -0.0237 0.3270
v -0.1380 0.0821 -0.1871
v -0.1404 0.0322 -0.3090
v -0.1404 -0.0078 -0.3090
v -0.1380 0.0421 -0.1871
v -0.1410 0.0914 -0.0804
v -0.1410 0.0514 -0.0804
v -0.1590 0.0848 0.0556
v -0.1590 0.0448 0.0556
v -0.1379 0.0512 0.1977
v -0.1379 0.0112 0.1977
v -0.1538 0.0282 0.3626
v -0.1538 -0.0118 0.3626
v -0.0134 0.0754 -0.1798
v 0.0153 0.0276 -0.2539
v 0.0153 -0.0124 -0.2539
v -0.0134 0.0354 -0.1798
v -0.0012 0.0824 -0.0633
v -0.0012 0.0424 -0.0633
v 0.0222 0.0892 0.0514
v 0.0222 0.0492 0.0514
v -0.0109 0.0641 0.2072
v -0.0109 0.0241 0.2072
v -0.0196 0.0330 0.3004
v -0.0196 -0.0070 0.3004
v 0.1388 0.0747 -0.1804
v 0.1435 0.0211 -0.3272
v 0.1435 -0.0189 -0.3272
v 0.1388 0.0347 -0.1804
v 0.1321 0.0850 -0.0639
v 0.1321 0.0450 -0.0639
v 0.1328 0.1099 0.0583
v 0.1328 0.0699 0.0583
v 0.1708 0.0597 0.1822
v 0.1708 0.0197 0.1822
v 0.1559 0.0160 0.3068
v 0.1559 -0.0240 0.3068
v 0.2927 0.0608 -0.1979
v 0.3014 0.0199 -0.2871
v 0.3014 -0.0201 -0.2871
v 0.2927 0.0208 -0.1979
v 0.2810 0.1086 -0.0549
v 0.2810 0.0686 -0.0549
v 0.2790 0.1089 0.0541
v 0.2790 0.0689 0.0541
v 0.2831 0.0771 0.2137
v 0.2831 0.0371 0.2137
v 0.2658 0.0083 0.2778
v 0.2658 -0.0317 0.2778
v 0.4755 0.0705 -0.1772
v 0.4480 0.0056 -0.3219
v 0.4480 -0.0344 -0.3219
v 0.4755 0.0305 -0.1772
v 0.4384 0.0902 -0.0667
v 0.4384 0.0502 -0.0667
v 0.4007 0.0919 0.0760
v 0.4007 0.0519 0.0760
v 0.4153 0.0558 0.1830
v 0.4153 0.0158 0.1830
v 0.4247 0.0042 0.3315
v 0.4247 -0.0358 0.3315
vn 0.1044 0.8470 -0.5212
vn -0.1044 -0.8470 0.5212
vn -0.0293 0.9936 -0.1093
vn 0.0293 -0.9936 0.1093
vn 0.0317 0.9994 -0.0107
vn -0.0317 -0.9994 0.0107
vn 0.0857 0.9878 0.1299
vn -0.0857 -0.9878 -0.1299
vn -0.1260 0.9239 0.3614
vn 0.1260 -0.9239 -0.3614
vn -0.0636 0.8718 -0.4857
vn 0.0636 -0.8718 0.4857
vn 0.0193 0.9880 -0.1530
vn -0.0193 -0.9880 0.1530
vn 0.0248 0.9942 0.1042
vn -0.0248 -0.9942 -0.1042
vn 0.0826 0.9893 0.1200
vn -0.0826 -0.9893 -0.1200
vn 0.0502 0.9612 0.2712
vn -0.0502 -0.9612 -0.2712
vn 0.1311 0.8943 -0.4279
vn -0.1311 -0.8943 0.4279
vn 0.0661 0.9950 -0.0753
vn -0.0661 -0.9950 0.0753
vn 0.0145 0.9999 -0.0009
vn -0.0145 -0.9999 0.0009
vn -0.0581 0.9800 0.1905
vn 0.0581 -0.9800 -0.1905
vn -0.0250 0.9789 0.2027
vn 0.0250 -0.9789 -0.2027
vn -0.0890 0.9002 -0.4263
vn 0.0890 -0.9002 0.4263
vn -0.0071 0.9972 -0.0739
vn 0.0071 -0.9972 0.0739
vn -0.0917 0.9882 -0.1229
vn 0.0917 -0.9882 0.1229
vn -0.0378 0.9647 0.2606
vn 0.0378 -0.9647 -0.2606
vn 0.0735 0.9408 0.3308
vn -0.0735 -0.9408 -0.3308
vn 0.0715 0.9273 -0.3673
vn -0.0715 -0.9273 0.3673
vn -0.0376 0.9745 -0.2211
vn 0.0376 -0.9745 0.2211
vn -0.0741 0.9914 -0.1083
vn 0.0741 -0.9914 0.1083
vn -0.0911 0.9529 0.2892
vn 0.0911 -0.9529 -0.2892
vn -0.0436 0.8614 0.5060
vn 0.0436 -0.8614 -0.5060
vn -0.0048 0.9112 -0.4119
vn 0.0048 -0.9112 0.4119
vn 0.0316 0.9673 -0.2518
vn -0.0316 -0.9673 0.2518
vn 0.1253 0.9920 0.0120
vn -0.1253 -0.9920 -0.0120
vn 0.1529 0.9601 0.2340
vn -0.1529 -0.9601 -0.2340
vn 0.0369 0.8691 0.4933
vn -0.0369 -0.8691 -0.4933
vn 0.1344 0.0000 -0.9909
vn 0.2754 0.0000 0.9613
vn -0.1656 0.0000 -0.9862
vn -0.4709 0.0000 0.8822
vn 0.3334 0.0000 -0.9428
vn 0.4208 0.0000 0.9072
vn -0.4963 0.0000 -0.8682
vn -0.0364 0.0000 0.9993
vn 0.2464 0.0000 -0.9692
vn 0.2544 0.0000 0.9671
vn -0.2306 0.0000 -0.9730
vn -0.3200 0.0000 0.9474
vn -0.9944 0.0000 -0.1055
vn 0.9825 0.0000 -0.1863
vn -1.0000 0.0000 -0.0020
vn 0.9482 0.0000 0.3177
vn -0.9639 0.0000 0.2662
vn 0.9668 0.0000 0.2556
vn -0.9409 0.0000 0.3387
vn 0.9908 0.0000 -0.1354
vn -0.9197 0.0000 -0.3926
vn 0.9980 0.0000 -0.0628
usemtl cellA
f 1//1 2//1 3//1 4//1
f 13//5 14//5 10//5 9//5
f 17//7 18//7 14//7 13//7
f 21//9 22//9 18//9 17//9
f 2//11 25//11 26//11 3//11
f 25//21 37//21 38//21 26//21
f 29//23 41//23 37//23 25//23
f 31//25 43//25 41//25 29//25
f 41//33 53//33 49//33 37//33
f 45//37 57//37 55//37 43//37
f 47//39 59//39 57//39 45//39
f 49//41 61//41 62//41 50//41
f 53//43 65//43 61//43 49//43
f 57//47 69//47 67//47 55//47
f 59//49 71//49 69//49 57//49
f 61//51 73//51 74//51 62//51
usemtl back
f 5//2 6//2 7//2 8//2
f 8//4 7//4 11//4 12//4
f 12//6 11//6 15//6 16//6
f 16//8 15//8 19//8 20//8
f 20//10 19//10 23//10 24//10
f 6//12 27//12 28//12 7//12
f 7//14 28//14 30//14 11//14
f 11//16 30//16 32//16 15//16
f 15//18 32//18 34//18 19//18
f 19//20 34//20 36//20 23//20
f 27//22 39//22 40//22 28//22
f 28//24 40//24 42//24 30//24
f 30//26 42//26 44//26 32//26
f 32//28 44//28 46//28 34//28
f 34//30 46//30 48//30 36//30
f 39//32 51//32 52//32 40//32
f 40//34 52//34 54//34 42//34
f 42//36 54//36 56//36 44//36
f 44//38 56//38 58//38 46//38
f 46//40 58//40 60//40 48//40
f 51//42 63//42 64//42 52//42
f 52//44 64//44 66//44 54//44
f 54//46 66//46 68//46 56//46
f 56//48 68//48 70//48 58//48
f 58//50 70//50 72//50 60//50
f 63//52 75//52 76//52 64//52
f 64//54 76//54 78//54 66//54
f 66//56 78//56 80//56 68//56
f 68//58 80//58 82//58 70//58
f 70//60 82//60 84//60 72//60
usemtl cellB
f 9//3 10//3 2//3 1//3
f 10//13 29//13 25//13 2//13
f 14//15 31//15 29//15 10//15
f 18//17 33//17 31//17 14//17
f 22//19 35//19 33//19 18//19
f 33//27 45//27 43//27 31//27
f 35//29 47//29 45//29 33//29
f 37//31 49//31 50//31 38//31
f 43//35 55//35 53//35 41//35
f 55//45 67//45 65//45 53//45
f 65//53 77//53 73//53 61//53
f 67//55 79//55 77//55 65//55
f 69//57 81//57 79//57 67//57
f 71//59 83//59 81//59 69//59
usemtl edge
f 4//61 3//61 6//61 5//61
f 24//62 23//62 22//62 21//62
f 3//63 26//63 27//63 6//63
f 23//64 36//64 35//64 22//64
f 26//65 38//65 39//65 27//65
f 36//66 48//66 47//66 35//66
f 38//67 50//67 51//67 39//67
f 48//68 60//68 59//68 47//68
f 50//69 62//69 63//69 51//69
f 60//70 72//70 71//70 59//70
f 62//71 74//71 75//71 63//71
f 72//72 84//72 83//72 71//72
f 5//73 8//73 1//73 4//73
f 74//74 73//74 76//74 75//74
f 8//75 12//75 9//75 1//75
f 73//76 77//76 78//76 76//76
f 12//77 16//77 13//77 9//77
f 77//78 79//78 80//78 78//78
f 16//79 20//79 17//79 13//79
f 79//80 81//80 82//80 80//80
f 20//81 24//81 21//81 17//81
f 81//82 83//82 84//82 82//82
