# Generated by scripts/mesh-gen - do not hand-edit, re-run npm run generate-meshes
# Basis: Solar-array / honeycomb panel fragment (long strip, slight bow)
# Authored real meters 1:1 (sub-meter debris, reached via the size-scaled camera standoff); origin-centered, tumbles
# Recipe: bent torn honeycomb solar-panel fragment, 7x4 cells
# Seed: 20190315
mtllib deb-panel-02.mtl
o deb-panel-02
v -0.4874 0.0492 -0.1204
v -0.4118 0.0595 -0.1060
v -0.3941 0.0278 -0.2517
v -0.5065 0.0149 -0.2274
v -0.5065 -0.0201 -0.2274
v -0.3941 -0.0072 -0.2517
v -0.4118 0.0245 -0.1060
v -0.4874 0.0142 -0.1204
v -0.5614 0.0760 0.0084
v -0.3820 0.0803 0.0065
v -0.3820 0.0453 0.0065
v -0.5614 0.0410 0.0084
v -0.5490 0.0515 0.1182
v -0.3754 0.0594 0.1331
v -0.3754 0.0244 0.1331
v -0.5490 0.0165 0.1182
v -0.4925 0.0302 0.2401
v -0.3713 0.0182 0.2332
v -0.3713 -0.0168 0.2332
v -0.4925 -0.0048 0.2401
v -0.2388 0.0590 -0.1203
v -0.2090 0.0071 -0.2495
v -0.2090 -0.0279 -0.2495
v -0.2388 0.0240 -0.1203
v -0.2411 0.0750 0.0180
v -0.2411 0.0400 0.0180
v -0.2152 0.0525 0.1355
v -0.2152 0.0175 0.1355
v -0.1925 0.0179 0.2246
v -0.1925 -0.0171 0.2246
v -0.0938 0.0417 -0.1335
v -0.0842 0.0312 -0.2555
v -0.0842 -0.0038 -0.2555
v -0.0938 0.0067 -0.1335
v -0.1009 0.0742 -0.0087
v -0.1009 0.0392 -0.0087
v -0.0938 0.0529 0.1341
v -0.0938 0.0179 0.1341
v -0.0877 0.0278 0.2459
v -0.0877 -0.0072 0.2459
v 0.0615 0.0590 -0.1169
v 0.0776 0.0226 -0.2111
v 0.0776 -0.0124 -0.2111
v 0.0615 0.0240 -0.1169
v 0.0664 0.0599 0.0146
v 0.0664 0.0249 0.0146
v 0.1000 0.0545 0.1407
v 0.1000 0.0195 0.1407
v 0.0565 0.0173 0.2224
v 0.0565 -0.0177 0.2224
v 0.2507 0.0588 -0.1037
v 0.2103 0.0309 -0.2407
v 0.2103 -0.0041 -0.2407
v 0.2507 0.0238 -0.1037
v 0.2133 0.0783 -0.0115
v 0.2133 0.0433 -0.0115
v 0.2246 0.0635 0.1139
v 0.2246 0.0285 0.1139
v 0.2181 0.0184 0.2456
v 0.2181 -0.0166 0.2456
v 0.4124 0.0520 -0.1108
v 0.3472 0.0300 -0.2332
v 0.3472 -0.0050 -0.2332
v 0.4124 0.0170 -0.1108
v 0.3748 0.0608 0.0021
v 0.3748 0.0258 0.0021
v 0.3774 0.0462 0.1128
v 0.3774 0.0112 0.1128
v 0.3551 0.0078 0.2265
v 0.3551 -0.0272 0.2265
v 0.5031 0.0439 -0.1271
v 0.5503 0.0087 -0.2408
v 0.5503 -0.0263 -0.2408
v 0.5031 0.0089 -0.1271
v 0.5528 0.0667 -0.0172
v 0.5528 0.0317 -0.0172
v 0.5651 0.0524 0.1369
v 0.5651 0.0174 0.1369
v 0.5503 0.0051 0.2608
v 0.5503 -0.0299 0.2608
vn -0.1315 0.9593 -0.2500
vn 0.1315 -0.9593 0.2500
vn -0.0461 0.9784 -0.2016
vn 0.0461 -0.9784 0.2016
vn -0.0411 0.9806 0.1917
vn 0.0411 -0.9806 -0.1917
vn 0.0060 0.9629 0.2697
vn -0.0060 -0.9629 -0.2697
vn 0.0471 0.9580 -0.2830
vn -0.0471 -0.9580 0.2830
vn 0.0172 0.9890 -0.1471
vn -0.0172 -0.9890 0.1471
vn 0.0324 0.9847 0.1710
vn -0.0324 -0.9847 -0.1710
vn 0.0266 0.9292 0.3685
vn -0.0266 -0.9292 -0.3685
vn -0.0420 0.9681 -0.2469
vn 0.0420 -0.9681 0.2469
vn 0.0370 0.9830 -0.1798
vn -0.0370 -0.9830 0.1798
vn 0.0189 0.9863 0.1638
vn -0.0189 -0.9863 -0.1638
vn -0.0693 0.9536 0.2930
vn 0.0693 -0.9536 -0.2930
vn 0.0139 0.9775 -0.2103
vn -0.0139 -0.9775 0.2103
vn 0.0069 0.9916 -0.1293
vn -0.0069 -0.9916 0.1293
vn 0.0270 0.9951 0.0948
vn -0.0270 -0.9951 -0.0948
vn 0.0405 0.9489 0.3131
vn -0.0405 -0.9489 -0.3131
vn -0.0380 0.9638 -0.2639
vn 0.0380 -0.9638 0.2639
vn -0.0576 0.9934 -0.0990
vn 0.0576 -0.9934 0.0990
vn -0.0816 0.9922 0.0941
vn 0.0816 -0.9922 -0.0941
vn -0.0285 0.9349 0.3539
vn 0.0285 -0.9349 -0.3539
vn 0.0259 0.9796 -0.1991
vn -0.0259 -0.9796 0.1991
vn 0.0766 0.9911 -0.1089
vn -0.0766 -0.9911 0.1089
vn 0.1048 0.9876 0.1170
vn -0.1048 -0.9876 -0.1170
vn 0.1135 0.9365 0.3317
vn -0.1135 -0.9365 -0.3317
vn 0.0769 0.9676 -0.2405
vn -0.0769 -0.9676 0.2405
vn -0.0105 0.9901 -0.1400
vn 0.0105 -0.9901 0.1400
vn -0.0345 0.9933 0.1105
vn 0.0345 -0.9933 -0.1105
vn -0.0591 0.9419 0.3305
vn 0.0591 -0.9419 -0.3305
vn -0.2120 0.0000 -0.9773
vn 0.0568 0.0000 0.9984
vn 0.0120 0.0000 -0.9999
vn 0.0479 0.0000 0.9989
vn -0.0481 0.0000 -0.9988
vn -0.1992 0.0000 0.9800
vn 0.2653 0.0000 -0.9642
vn 0.1608 0.0000 0.9870
vn -0.2182 0.0000 -0.9759
vn -0.1418 0.0000 0.9899
vn 0.0550 0.0000 -0.9985
vn 0.1380 0.0000 0.9904
vn -0.0378 0.0000 -0.9993
vn -0.1733 0.0000 0.9849
vn -0.9845 0.0000 0.1754
vn 0.9234 0.0000 0.3839
vn -0.8671 0.0000 -0.4981
vn 0.9112 0.0000 -0.4119
vn -0.9937 0.0000 0.1120
vn 0.9968 0.0000 -0.0800
vn -0.9074 0.0000 0.4202
vn 0.9930 0.0000 0.1185
usemtl cellB
f 1//1 2//1 3//1 4//1
f 17//7 18//7 14//7 13//7
f 10//11 25//11 21//11 2//11
f 18//15 29//15 27//15 14//15
f 35//27 45//27 41//27 31//27
f 47//37 57//37 55//37 45//37
f 49//39 59//39 57//39 47//39
f 55//43 65//43 61//43 51//43
f 65//51 75//51 71//51 61//51
f 67//53 77//53 75//53 65//53
usemtl back
f 5//2 6//2 7//2 8//2
f 8//4 7//4 11//4 12//4
f 12//6 11//6 15//6 16//6
f 16//8 15//8 19//8 20//8
f 6//10 23//10 24//10 7//10
f 7//12 24//12 26//12 11//12
f 11//14 26//14 28//14 15//14
f 15//16 28//16 30//16 19//16
f 23//18 33//18 34//18 24//18
f 24//20 34//20 36//20 26//20
f 26//22 36//22 38//22 28//22
f 28//24 38//24 40//24 30//24
f 33//26 43//26 44//26 34//26
f 34//28 44//28 46//28 36//28
f 36//30 46//30 48//30 38//30
f 38//32 48//32 50//32 40//32
f 43//34 53//34 54//34 44//34
f 44//36 54//36 56//36 46//36
f 46//38 56//38 58//38 48//38
f 48//40 58//40 60//40 50//40
f 53//42 63//42 64//42 54//42
f 54//44 64//44 66//44 56//44
f 56//46 66//46 68//46 58//46
f 58//48 68//48 70//48 60//48
f 63//50 73//50 74//50 64//50
f 64//52 74//52 76//52 66//52
f 66//54 76//54 78//54 68//54
f 68//56 78//56 80//56 70//56
usemtl cellA
f 9//3 10//3 2//3 1//3
f 13//5 14//5 10//5 9//5
f 2//9 21//9 22//9 3//9
f 14//13 27//13 25//13 10//13
f 21//17 31//17 32//17 22//17
f 25//19 35//19 31//19 21//19
f 27//21 37//21 35//21 25//21
f 29//23 39//23 37//23 27//23
f 31//25 41//25 42//25 32//25
f 37//29 47//29 45//29 35//29
f 39//31 49//31 47//31 37//31
f 41//33 51//33 52//33 42//33
f 45//35 55//35 51//35 41//35
f 51//41 61//41 62//41 52//41
f 57//45 67//45 65//45 55//45
f 59//47 69//47 67//47 57//47
f 61//49 71//49 72//49 62//49
f 69//55 79//55 77//55 67//55
usemtl edge
f 4//57 3//57 6//57 5//57
f 20//58 19//58 18//58 17//58
f 3//59 22//59 23//59 6//59
f 19//60 30//60 29//60 18//60
f 22//61 32//61 33//61 23//61
f 30//62 40//62 39//62 29//62
f 32//63 42//63 43//63 33//63
f 40//64 50//64 49//64 39//64
f 42//65 52//65 53//65 43//65
f 50//66 60//66 59//66 49//66
f 52//67 62//67 63//67 53//67
f 60//68 70//68 69//68 59//68
f 62//69 72//69 73//69 63//69
f 70//70 80//70 79//70 69//70
f 5//71 8//71 1//71 4//71
f 72//72 71//72 74//72 73//72
f 8//73 12//73 9//73 1//73
f 71//74 75//74 76//74 74//74
f 12//75 16//75 13//75 9//75
f 75//76 77//76 78//76 76//76
f 16//77 20//77 17//77 13//77
f 77//78 79//78 80//78 78//78
