# Blender 3.6.4
# www.blender.org
mtllib debris0.mtl
o Cylinder.001
o Cube
v -0.03135 -0.32309 0.17992
v -0.005 0.37567 -0.17973
v -0.01135 -0.32309 0.17992
v 0.01 0.4 -0.2
v -0.00428 0.4 0.2
v -0.01 0.4 0.08562
v -0.01 0.17124 0.2
v 0.00057 0.4 0.2
v 0.01 0.02286 0.2
v 0.01 0.4 0.01143
v -0.01 -0.4 -0.07774
v -0.01 -0.15549 -0.2
v 0.01 -0.15549 -0.2
v 0.01 -0.4 -0.07774
vn 0.9998 -0.0116 0.0177
vn -0.1087 -0.0293 0.9936
vn -0.0000 -0.4472 -0.8944
vn -0.9995 0.0138 -0.0281
vn -0.9984 0.0250 0.0499
vn -0.5092 0.8599 -0.0357
vn 0.9984 0.0250 0.0499
vn -0.5105 0.0184 -0.8597
vn -0.0000 -0.9582 0.2860
vt 0.375000 0.576410
vt 0.451410 0.500000
vt 0.625000 0.500000
vt 0.625000 0.632145
vt 0.507145 0.750000
vt 0.375000 0.750000
vt 0.625000 0.867855
vt 0.625000 0.928513
vt 0.553513 1.000000
vt 0.375000 1.000000
vt 0.375000 0.173590
vt 0.451410 0.250000
vt 0.375000 0.000000
vt 0.553513 0.000000
vt 0.625000 0.071487
vt 0.625000 0.250000
vt 0.625000 1.000000
vt 0.875000 0.500000
vt 0.875000 0.678513
vt 0.803513 0.750000
vt 0.742856 0.750000
vt 0.625000 0.750000
s 0
usemtl LightGrayMetal
f 14/1/1 13/2/1 4/3/1 10/4/1 9/5/1 3/6/1
f 3/6/2 9/5/2 8/7/2 5/8/2 7/9/2 1/10/2
f 11/11/3 12/12/3 13/2/3 14/1/3
f 4/3/6 2/18/6 6/19/6 5/20/6 8/21/6 10/4/6
f 8/21/7 9/22/7 10/4/7
f 4/3/8 13/2/8 12/12/8 2/16/8
f 3/6/9 1/13/9 11/11/9 14/1/9
usemtl GoldFoil
f 1/13/4 7/14/4 6/15/4 2/16/4 12/12/4 11/11/4
f 5/8/5 6/17/5 7/9/5
