# Blender 3.6.4
# www.blender.org
mtllib globalstar.mtl
o Cube.001
v -0.793875 -0.284213 1.521524
v -0.267588 0.516461 1.521524
v -0.793875 -0.284213 -1.681155
v -0.267588 0.516461 -1.681155
v 0.807473 -0.284213 1.521524
v 0.281187 0.516461 1.521524
v 0.807473 -0.284213 -1.681155
v 0.281187 0.516461 -1.681155
vn -0.8356 0.5493 -0.0000
vn -0.0000 -0.0000 -1.0000
vn 0.8356 0.5493 -0.0000
vn -0.0000 -0.0000 1.0000
vn -0.0000 -1.0000 -0.0000
vn -0.0000 1.0000 -0.0000
vt 0.375000 0.000000
vt 0.625000 0.000000
vt 0.625000 0.250000
vt 0.375000 0.250000
vt 0.625000 0.500000
vt 0.375000 0.500000
vt 0.625000 0.750000
vt 0.375000 0.750000
vt 0.625000 1.000000
vt 0.375000 1.000000
vt 0.125000 0.500000
vt 0.125000 0.750000
vt 0.875000 0.500000
vt 0.875000 0.750000
s 0
usemtl GoldFoil
f 1/1/1 2/2/1 4/3/1 3/4/1
f 3/4/2 4/3/2 8/5/2 7/6/2
f 7/6/3 8/5/3 6/7/3 5/8/3
f 5/8/4 6/7/4 2/9/4 1/10/4
f 8/5/6 4/13/6 2/14/6 6/7/6
usemtl LightGrayMetal
f 3/11/5 7/6/5 5/8/5 1/12/5
o Cube.002
v -1.558376 0.405275 0.038348
v -1.558376 0.485337 0.038348
v -1.558376 0.405275 -0.041714
v -1.558376 0.485337 -0.041714
v -0.283499 0.405275 0.038348
v -0.283499 0.485337 0.038348
v -0.283499 0.405275 -0.041714
v -0.283499 0.485337 -0.041714
vn -1.0000 -0.0000 -0.0000
vn -0.0000 -0.0000 -1.0000
vn 1.0000 -0.0000 -0.0000
vn -0.0000 -0.0000 1.0000
vn -0.0000 -1.0000 -0.0000
vn -0.0000 1.0000 -0.0000
vt 0.375000 0.000000
vt 0.625000 0.000000
vt 0.625000 0.250000
vt 0.375000 0.250000
vt 0.625000 0.500000
vt 0.375000 0.500000
vt 0.625000 0.750000
vt 0.375000 0.750000
vt 0.625000 1.000000
vt 0.375000 1.000000
vt 0.125000 0.500000
vt 0.125000 0.750000
vt 0.875000 0.500000
vt 0.875000 0.750000
s 0
usemtl DarkGrayMetal
f 9/15/7 10/16/7 12/17/7 11/18/7
f 11/18/8 12/17/8 16/19/8 15/20/8
f 15/20/9 16/19/9 14/21/9 13/22/9
f 13/22/10 14/21/10 10/23/10 9/24/10
f 11/25/11 15/20/11 13/22/11 9/26/11
f 16/19/12 12/27/12 10/28/12 14/21/12
o Cube.003
v -1.383514 0.42467 1.051791
v -1.383514 0.464701 1.051791
v -1.383514 0.42467 -1.049921
v -1.383514 0.464701 -1.049921
v -2.700429 0.42467 1.051791
v -2.700429 0.464701 1.051791
v -2.700429 0.42467 -1.049921
v -2.700429 0.464701 -1.049921
vn -0.0000 -0.0000 1.0000
vn -1.0000 -0.0000 -0.0000
vn -0.0000 1.0000 -0.0000
vn -0.0000 -1.0000 -0.0000
vn -0.0000 -0.0000 -1.0000
vt 0.375000 1.000000
vt 0.625000 1.000000
vt 0.375000 0.000000
vt 0.625000 0.000000
vt 0.625000 0.250000
vt 0.375000 0.250000
vt 0.875000 0.750000
vt 0.875000 0.500000
vt 0.125000 0.500000
vt 0.125000 0.750000
s 0
usemtl SolarPanels
f 17/29/13 18/30/13 22/30/13 21/29/13
f 21/31/14 22/32/14 24/33/14 23/34/14
f 18/35/15 20/36/15 24/36/15 22/35/15
f 19/37/16 17/38/16 21/38/16 23/37/16
f 20/33/17 19/34/17 23/34/17 24/33/17
o Cube.004
v -2.960538 0.405275 0.040966
v -2.960538 0.485337 0.040966
v -2.960538 0.405275 -0.039096
v -2.960538 0.485337 -0.039096
v -2.566277 0.405275 0.040966
v -2.566277 0.485337 0.040966
v -2.566277 0.405275 -0.039096
v -2.566277 0.485337 -0.039096
vn -1.0000 -0.0000 -0.0000
vn -0.0000 -0.0000 -1.0000
vn 1.0000 -0.0000 -0.0000
vn -0.0000 -0.0000 1.0000
vn -0.0000 -1.0000 -0.0000
vn -0.0000 1.0000 -0.0000
vt 0.375000 0.000000
vt 0.625000 0.000000
vt 0.625000 0.250000
vt 0.375000 0.250000
vt 0.625000 0.500000
vt 0.375000 0.500000
vt 0.625000 0.750000
vt 0.375000 0.750000
vt 0.625000 1.000000
vt 0.375000 1.000000
vt 0.125000 0.500000
vt 0.125000 0.750000
vt 0.875000 0.500000
vt 0.875000 0.750000
s 0
usemtl DarkGrayMetal
f 25/39/18 26/40/18 28/41/18 27/42/18
f 27/42/19 28/41/19 32/43/19 31/44/19
f 31/44/20 32/43/20 30/45/20 29/46/20
f 29/46/21 30/45/21 26/47/21 25/48/21
f 27/49/22 31/44/22 29/46/22 25/50/22
f 32/43/23 28/51/23 26/52/23 30/45/23
o Cube.005
v -2.776173 0.42467 1.051791
v -2.776173 0.464701 1.051791
v -2.776173 0.42467 -1.049921
v -2.776173 0.464701 -1.049921
v -4.093071 0.42467 1.051791
v -4.093071 0.464701 1.051791
v -4.093071 0.42467 -1.049921
v -4.093071 0.464701 -1.049921
vn -0.0000 -0.0000 1.0000
vn -1.0000 -0.0000 -0.0000
vn -0.0000 1.0000 -0.0000
vn -0.0000 -1.0000 -0.0000
vn -0.0000 -0.0000 -1.0000
vt 0.375000 1.000000
vt 0.625000 1.000000
vt 0.375000 0.000000
vt 0.625000 0.000000
vt 0.625000 0.250000
vt 0.375000 0.250000
vt 0.875000 0.750000
vt 0.875000 0.500000
vt 0.125000 0.500000
vt 0.125000 0.750000
s 0
usemtl SolarPanels
f 33/53/24 34/54/24 38/54/24 37/53/24
f 37/55/25 38/56/25 40/57/25 39/58/25
f 34/59/26 36/60/26 40/60/26 38/59/26
f 35/61/27 33/62/27 37/62/27 39/61/27
f 36/57/28 35/58/28 39/58/28 40/57/28
o Cone
v 0.011933 -0.284706 1.515506
v 0.011933 -0.454689 1.260531
v 0.448995 -0.284706 1.356436
v 0.285097 -0.454689 1.161107
v 0.68155 -0.284706 0.953642
v 0.43045 -0.454689 0.909362
v 0.600773 -0.284706 0.495604
v 0.379964 -0.454689 0.623092
v 0.244488 -0.284706 0.196637
v 0.157286 -0.454689 0.436246
v -0.220605 -0.284706 0.196637
v -0.133403 -0.454689 0.436246
v -0.576908 -0.284706 0.495604
v -0.356082 -0.454689 0.623092
v -0.657667 -0.284706 0.953642
v -0.406567 -0.454689 0.909362
v -0.425112 -0.284706 1.356436
v -0.261214 -0.454689 1.161107
vn 0.1979 -0.8156 0.5437
vn 0.5011 -0.8156 0.2893
vn 0.5698 -0.8156 -0.1005
vn 0.3719 -0.8156 -0.4433
vn -0.0000 -0.8156 -0.5786
vn -0.3719 -0.8156 -0.4433
vn -0.5698 -0.8156 -0.1005
vn -0.0000 -1.0000 -0.0000
vn -0.5011 -0.8156 0.2893
vn -0.1979 -0.8156 0.5437
vn -0.0000 1.0000 -0.0000
vt 1.000000 0.500000
vt 1.000000 1.000000
vt 0.888889 1.000000
vt 0.888889 0.500000
vt 0.777778 1.000000
vt 0.777778 0.500000
vt 0.666667 1.000000
vt 0.666667 0.500000
vt 0.555556 1.000000
vt 0.555556 0.500000
vt 0.444444 1.000000
vt 0.444444 0.500000
vt 0.333333 1.000000
vt 0.333333 0.500000
vt 0.222222 1.000000
vt 0.222222 0.500000
vt 0.404269 0.433851
vt 0.250000 0.490000
vt 0.095731 0.433851
vt 0.013646 0.291676
vt 0.042154 0.130000
vt 0.167915 0.024474
vt 0.332085 0.024474
vt 0.457846 0.130000
vt 0.486354 0.291676
vt 0.111111 1.000000
vt 0.111111 0.500000
vt 0.000000 1.000000
vt 0.000000 0.500000
vt 0.750000 0.490000
vt 0.904269 0.433851
vt 0.986354 0.291676
vt 0.957846 0.130000
vt 0.832085 0.024474
vt 0.667915 0.024474
vt 0.542154 0.130000
vt 0.513646 0.291676
vt 0.595731 0.433851
s 0
usemtl DarkGrayMetal
f 41/63/29 42/64/29 44/65/29 43/66/29
f 43/66/30 44/65/30 46/67/30 45/68/30
f 45/68/31 46/67/31 48/69/31 47/70/31
f 47/70/32 48/69/32 50/71/32 49/72/32
f 49/72/33 50/71/33 52/73/33 51/74/33
f 51/74/34 52/73/34 54/75/34 53/76/34
f 53/76/35 54/75/35 56/77/35 55/78/35
f 44/79/36 42/80/36 58/81/36 56/82/36 54/83/36 52/84/36 50/85/36 48/86/36 46/87/36
f 55/78/37 56/77/37 58/88/37 57/89/37
f 57/89/38 58/88/38 42/90/38 41/91/38
f 41/92/39 43/93/39 45/94/39 47/95/39 49/96/39 51/97/39 53/98/39 55/99/39 57/100/39
o Cone.001
v 0.011933 -0.455267 1.273739
v 0.011933 -0.497763 1.109432
v 0.289312 -0.455267 1.171238
v 0.185299 -0.497763 1.045366
v 0.436892 -0.455267 0.911656
v 0.277532 -0.497763 0.883133
v 0.385642 -0.455267 0.616497
v 0.245507 -0.497763 0.69865
v 0.15953 -0.455267 0.42382
v 0.104183 -0.497763 0.578233
v -0.135647 -0.455267 0.42382
v -0.0803 -0.497763 0.578233
v -0.361759 -0.455267 0.616497
v -0.221625 -0.497763 0.69865
v -0.413026 -0.455267 0.911656
v -0.253667 -0.497763 0.883133
v -0.265429 -0.455267 1.171238
v -0.161416 -0.497763 1.045366
vn 0.0921 -0.9640 0.2493
vn 0.2332 -0.9634 0.1326
vn 0.2651 -0.9631 -0.0460
vn 0.1731 -0.9637 -0.2032
vn -0.0000 -0.9642 -0.2654
vn -0.1731 -0.9637 -0.2032
vn -0.2651 -0.9631 -0.0460
vn -0.0000 -1.0000 -0.0000
vn -0.2332 -0.9634 0.1326
vn -0.0921 -0.9640 0.2493
vn -0.0000 1.0000 -0.0000
vt 1.000000 0.500000
vt 1.000000 1.000000
vt 0.888889 1.000000
vt 0.888889 0.500000
vt 0.777778 1.000000
vt 0.777778 0.500000
vt 0.666667 1.000000
vt 0.666667 0.500000
vt 0.555556 1.000000
vt 0.555556 0.500000
vt 0.444444 1.000000
vt 0.444444 0.500000
vt 0.333333 1.000000
vt 0.333333 0.500000
vt 0.222222 1.000000
vt 0.222222 0.500000
vt 0.404269 0.433851
vt 0.250000 0.490000
vt 0.095731 0.433851
vt 0.013646 0.291676
vt 0.042154 0.130000
vt 0.167915 0.024474
vt 0.332085 0.024474
vt 0.457846 0.130000
vt 0.486354 0.291676
vt 0.111111 1.000000
vt 0.111111 0.500000
vt 0.000000 1.000000
vt 0.000000 0.500000
vt 0.750000 0.490000
vt 0.904269 0.433851
vt 0.986354 0.291676
vt 0.957846 0.130000
vt 0.832085 0.024474
vt 0.667915 0.024474
vt 0.542154 0.130000
vt 0.513646 0.291676
vt 0.595731 0.433851
s 0
usemtl GoldFoil
f 59/101/40 60/102/40 62/103/40 61/104/40
f 61/104/41 62/103/41 64/105/41 63/106/41
f 63/106/42 64/105/42 66/107/42 65/108/42
f 65/108/43 66/107/43 68/109/43 67/110/43
f 67/110/44 68/109/44 70/111/44 69/112/44
f 69/112/45 70/111/45 72/113/45 71/114/45
f 71/114/46 72/113/46 74/115/46 73/116/46
f 73/116/48 74/115/48 76/126/48 75/127/48
f 75/127/49 76/126/49 60/128/49 59/129/49
f 59/130/50 61/131/50 63/132/50 65/133/50 67/134/50 69/135/50 71/136/50 73/137/50 75/138/50
usemtl LightGrayMetal
f 62/117/47 60/118/47 76/119/47 74/120/47 72/121/47 70/122/47 68/123/47 66/124/47 64/125/47
o Cone.003
v 0.269798 -0.284706 0.20189
v 0.269798 -0.454689 -0.254874
v 0.619454 -0.284706 0.074623
v 0.325859 -0.454689 -0.275272
v 0.805485 -0.284706 -0.247615
v 0.355674 -0.454689 -0.32693
v 0.740874 -0.284706 -0.614032
v 0.345322 -0.454689 -0.385659
v 0.455845 -0.284706 -0.853216
v 0.29963 -0.454689 -0.42399
v 0.083768 -0.284706 -0.853216
v 0.239983 -0.454689 -0.42399
v -0.201261 -0.284706 -0.614032
v 0.194291 -0.454689 -0.385659
v -0.265871 -0.284706 -0.247615
v 0.183939 -0.454689 -0.32693
v -0.079841 -0.284706 0.074623
v 0.213754 -0.454689 -0.275272
vn 0.1259 -0.9297 0.3460
vn 0.3189 -0.9297 0.1841
vn 0.3626 -0.9297 -0.0639
vn 0.2367 -0.9297 -0.2821
vn -0.0000 -0.9297 -0.3682
vn -0.2367 -0.9297 -0.2821
vn -0.3626 -0.9297 -0.0639
vn -0.0000 -1.0000 -0.0000
vn -0.3189 -0.9297 0.1841
vn -0.1259 -0.9297 0.3460
vn -0.0000 1.0000 -0.0000
vt 1.000000 0.500000
vt 1.000000 1.000000
vt 0.888889 1.000000
vt 0.888889 0.500000
vt 0.777778 1.000000
vt 0.777778 0.500000
vt 0.666667 1.000000
vt 0.666667 0.500000
vt 0.555556 1.000000
vt 0.555556 0.500000
vt 0.444444 1.000000
vt 0.444444 0.500000
vt 0.333333 1.000000
vt 0.333333 0.500000
vt 0.222222 1.000000
vt 0.222222 0.500000
vt 0.404269 0.433851
vt 0.250000 0.490000
vt 0.095731 0.433851
vt 0.013646 0.291676
vt 0.042154 0.130000
vt 0.167915 0.024474
vt 0.332085 0.024474
vt 0.457846 0.130000
vt 0.486354 0.291676
vt 0.111111 1.000000
vt 0.111111 0.500000
vt 0.000000 1.000000
vt 0.000000 0.500000
vt 0.750000 0.490000
vt 0.904269 0.433851
vt 0.986354 0.291676
vt 0.957846 0.130000
vt 0.832085 0.024474
vt 0.667915 0.024474
vt 0.542154 0.130000
vt 0.513646 0.291676
vt 0.595731 0.433851
s 0
usemtl DarkGrayMetal.002
f 77/139/51 78/140/51 80/141/51 79/142/51
f 79/142/52 80/141/52 82/143/52 81/144/52
f 81/144/53 82/143/53 84/145/53 83/146/53
f 83/146/54 84/145/54 86/147/54 85/148/54
f 85/148/55 86/147/55 88/149/55 87/150/55
f 87/150/56 88/149/56 90/151/56 89/152/56
f 89/152/57 90/151/57 92/153/57 91/154/57
f 80/155/58 78/156/58 94/157/58 92/158/58 90/159/58 88/160/58 86/161/58 84/162/58 82/163/58
f 91/154/59 92/153/59 94/164/59 93/165/59
f 93/165/60 94/164/60 78/166/60 77/167/60
f 77/168/61 79/169/61 81/170/61 83/171/61 85/172/61 87/173/61 89/174/61 91/175/61 93/176/61
o Cone.002
v 0.269798 -0.455267 -0.254432
v 0.269798 -0.497763 -0.287289
v 0.325281 -0.455267 -0.274932
v 0.304475 -0.497763 -0.300106
v 0.35479 -0.455267 -0.326845
v 0.322918 -0.497763 -0.332556
v 0.34454 -0.455267 -0.38588
v 0.31651 -0.497763 -0.369442
v 0.299324 -0.455267 -0.424415
v 0.288258 -0.497763 -0.393529
v 0.240289 -0.455267 -0.424415
v 0.251355 -0.497763 -0.393529
v 0.195056 -0.455267 -0.38588
v 0.223087 -0.497763 -0.369442
v 0.184806 -0.455267 -0.326845
v 0.216678 -0.497763 -0.332556
v 0.214332 -0.455267 -0.274932
v 0.235138 -0.497763 -0.300106
vn 0.2806 -0.5872 0.7593
vn 0.7060 -0.5834 0.4014
vn 0.8011 -0.5821 -0.1391
vn 0.5258 -0.5854 -0.6171
vn -0.0000 -0.5879 -0.8090
vn -0.5258 -0.5854 -0.6171
vn -0.8011 -0.5821 -0.1391
vn -0.0000 -1.0000 -0.0000
vn -0.7060 -0.5834 0.4014
vn -0.2806 -0.5872 0.7593
vn -0.0000 1.0000 -0.0000
vt 1.000000 0.500000
vt 1.000000 1.000000
vt 0.888889 1.000000
vt 0.888889 0.500000
vt 0.777778 1.000000
vt 0.777778 0.500000
vt 0.666667 1.000000
vt 0.666667 0.500000
vt 0.555556 1.000000
vt 0.555556 0.500000
vt 0.444444 1.000000
vt 0.444444 0.500000
vt 0.333333 1.000000
vt 0.333333 0.500000
vt 0.222222 1.000000
vt 0.222222 0.500000
vt 0.404269 0.433851
vt 0.250000 0.490000
vt 0.095731 0.433851
vt 0.013646 0.291676
vt 0.042154 0.130000
vt 0.167915 0.024474
vt 0.332085 0.024474
vt 0.457846 0.130000
vt 0.486354 0.291676
vt 0.111111 1.000000
vt 0.111111 0.500000
vt 0.000000 1.000000
vt 0.000000 0.500000
vt 0.750000 0.490000
vt 0.904269 0.433851
vt 0.986354 0.291676
vt 0.957846 0.130000
vt 0.832085 0.024474
vt 0.667915 0.024474
vt 0.542154 0.130000
vt 0.513646 0.291676
vt 0.595731 0.433851
s 0
usemtl GoldFoil.001
f 95/177/62 96/178/62 98/179/62 97/180/62
f 97/180/63 98/179/63 100/181/63 99/182/63
f 99/182/64 100/181/64 102/183/64 101/184/64
f 101/184/65 102/183/65 104/185/65 103/186/65
f 103/186/66 104/185/66 106/187/66 105/188/66
f 105/188/67 106/187/67 108/189/67 107/190/67
f 107/190/68 108/189/68 110/191/68 109/192/68
f 109/192/70 110/191/70 112/202/70 111/203/70
f 111/203/71 112/202/71 96/204/71 95/205/71
f 95/206/72 97/207/72 99/208/72 101/209/72 103/210/72 105/211/72 107/212/72 109/213/72 111/214/72
usemtl LightGrayMetal.001
f 98/193/69 96/194/69 112/195/69 110/196/69 108/197/69 106/198/69 104/199/69 102/200/69 100/201/69
o Cylinder
v -0.325179 -0.367998 -1.648893
v -0.325179 -0.283006 -1.648893
v 0.005371 -0.367998 -1.511971
v 0.005371 -0.283006 -1.511971
v 0.142276 -0.367998 -1.181437
v 0.142276 -0.283006 -1.181437
v 0.005371 -0.367998 -0.850887
v 0.005371 -0.283006 -0.850887
v -0.325179 -0.367998 -0.713982
v -0.325179 -0.283006 -0.713982
v -0.655712 -0.367998 -0.850887
v -0.655712 -0.283006 -0.850887
v -0.792634 -0.367998 -1.181437
v -0.792634 -0.283006 -1.181437
v -0.655712 -0.367998 -1.511971
v -0.655712 -0.283006 -1.511971
vn 0.3827 -0.0000 -0.9239
vn 0.9239 -0.0000 -0.3827
vn 0.9239 -0.0000 0.3827
vn 0.3827 -0.0000 0.9239
vn -0.3827 -0.0000 0.9239
vn -0.9239 -0.0000 0.3827
vn -0.0000 1.0000 -0.0000
vn -0.9239 -0.0000 -0.3827
vn -0.3827 -0.0000 -0.9239
vn -0.0000 -1.0000 -0.0000
vt 1.000000 0.500000
vt 1.000000 1.000000
vt 0.875000 1.000000
vt 0.875000 0.500000
vt 0.750000 1.000000
vt 0.750000 0.500000
vt 0.625000 1.000000
vt 0.625000 0.500000
vt 0.500000 1.000000
vt 0.500000 0.500000
vt 0.375000 1.000000
vt 0.375000 0.500000
vt 0.250000 1.000000
vt 0.250000 0.500000
vt 0.419706 0.419706
vt 0.250000 0.490000
vt 0.080294 0.419706
vt 0.010000 0.250000
vt 0.080294 0.080294
vt 0.250000 0.010000
vt 0.419706 0.080294
vt 0.490000 0.250000
vt 0.125000 1.000000
vt 0.125000 0.500000
vt 0.000000 1.000000
vt 0.000000 0.500000
vt 0.750000 0.490000
vt 0.919706 0.419706
vt 0.990000 0.250000
vt 0.919706 0.080294
vt 0.750000 0.010000
vt 0.580294 0.080294
vt 0.510000 0.250000
vt 0.580294 0.419706
s 0
usemtl GoldFoil
f 113/215/73 114/216/73 116/217/73 115/218/73
f 115/218/74 116/217/74 118/219/74 117/220/74
f 117/220/75 118/219/75 120/221/75 119/222/75
f 119/222/76 120/221/76 122/223/76 121/224/76
f 121/224/77 122/223/77 124/225/77 123/226/77
f 123/226/78 124/225/78 126/227/78 125/228/78
f 116/229/79 114/230/79 128/231/79 126/232/79 124/233/79 122/234/79 120/235/79 118/236/79
f 125/228/80 126/227/80 128/237/80 127/238/80
f 127/238/81 128/237/81 114/239/81 113/240/81
usemtl OrangeMetal
f 113/241/82 115/242/82 117/243/82 119/244/82 121/245/82 123/246/82 125/247/82 127/248/82
o Cube.007
v -4.368223 0.405275 0.040966
v -4.368223 0.485337 0.040966
v -4.368223 0.405275 -0.039096
v -4.368223 0.485337 -0.039096
v -3.973963 0.405275 0.040966
v -3.973963 0.485337 0.040966
v -3.973963 0.405275 -0.039096
v -3.973963 0.485337 -0.039096
vn -1.0000 -0.0000 -0.0000
vn -0.0000 -0.0000 -1.0000
vn 1.0000 -0.0000 -0.0000
vn -0.0000 -0.0000 1.0000
vn -0.0000 -1.0000 -0.0000
vn -0.0000 1.0000 -0.0000
vt 0.375000 0.000000
vt 0.625000 0.000000
vt 0.625000 0.250000
vt 0.375000 0.250000
vt 0.625000 0.500000
vt 0.375000 0.500000
vt 0.625000 0.750000
vt 0.375000 0.750000
vt 0.625000 1.000000
vt 0.375000 1.000000
vt 0.125000 0.500000
vt 0.125000 0.750000
vt 0.875000 0.500000
vt 0.875000 0.750000
s 0
usemtl DarkGrayMetal.003
f 129/249/83 130/250/83 132/251/83 131/252/83
f 131/252/84 132/251/84 136/253/84 135/254/84
f 135/254/85 136/253/85 134/255/85 133/256/85
f 133/256/86 134/255/86 130/257/86 129/258/86
f 131/259/87 135/254/87 133/256/87 129/260/87
f 136/253/88 132/261/88 130/262/88 134/255/88
o Cube.006
v -4.183859 0.42467 1.051791
v -4.183859 0.464701 1.051791
v -4.183859 0.42467 -1.049921
v -4.183859 0.464701 -1.049921
v -5.500756 0.42467 1.051791
v -5.500756 0.464701 1.051791
v -5.500756 0.42467 -1.049921
v -5.500756 0.464701 -1.049921
vn -0.0000 -0.0000 1.0000
vn -1.0000 -0.0000 -0.0000
vn -0.0000 1.0000 -0.0000
vn -0.0000 -1.0000 -0.0000
vn -0.0000 -0.0000 -1.0000
vt 0.375000 1.000000
vt 0.625000 1.000000
vt 0.375000 0.000000
vt 0.625000 0.000000
vt 0.625000 0.250000
vt 0.375000 0.250000
vt 0.875000 0.750000
vt 0.875000 0.500000
vt 0.125000 0.500000
vt 0.125000 0.750000
s 0
usemtl SolarPanels.001
f 137/263/89 138/264/89 142/264/89 141/263/89
f 141/265/90 142/266/90 144/267/90 143/268/90
f 138/269/91 140/270/91 144/270/91 142/269/91
f 139/271/92 137/272/92 141/272/92 143/271/92
f 140/267/93 139/268/93 143/268/93 144/267/93
o Cube.013
v 1.587205 0.405275 -0.039844
v 1.587205 0.485337 -0.039844
v 1.587036 0.405275 0.040218
v 1.587036 0.485337 0.040218
v 0.312345 0.405275 -0.042683
v 0.312345 0.485337 -0.042683
v 0.312158 0.405275 0.037396
v 0.312158 0.485337 0.037396
vn 1.0000 -0.0000 0.0022
vn -0.0022 -0.0000 1.0000
vn -1.0000 -0.0000 -0.0022
vn 0.0022 -0.0000 -1.0000
vn -0.0000 -1.0000 -0.0000
vn -0.0000 1.0000 -0.0000
vt 0.375000 0.000000
vt 0.625000 0.000000
vt 0.625000 0.250000
vt 0.375000 0.250000
vt 0.625000 0.500000
vt 0.375000 0.500000
vt 0.625000 0.750000
vt 0.375000 0.750000
vt 0.625000 1.000000
vt 0.375000 1.000000
vt 0.125000 0.500000
vt 0.125000 0.750000
vt 0.875000 0.500000
vt 0.875000 0.750000
s 0
usemtl DarkGrayMetal.005
f 145/273/94 146/274/94 148/275/94 147/276/94
f 147/276/95 148/275/95 152/277/95 151/278/95
f 151/278/96 152/277/96 150/279/96 149/280/96
f 149/280/97 150/279/97 146/281/97 145/282/97
f 147/283/98 151/278/98 149/280/98 145/284/98
f 152/277/99 148/285/99 146/286/99 150/279/99
o Cube.012
v 1.382018 0.42467 -1.053661
v 1.382018 0.464701 -1.053661
v 1.377361 0.42467 1.048034
v 1.377361 0.464701 1.048034
v 2.698916 0.42467 -1.050737
v 2.698916 0.464701 -1.050737
v 2.694258 0.42467 1.050958
v 2.694258 0.464701 1.050958
vn 0.0022 -0.0000 -1.0000
vn 1.0000 -0.0000 0.0022
vn -0.0000 1.0000 -0.0000
vn -0.0000 -1.0000 -0.0000
vn -0.0022 -0.0000 1.0000
vt 0.375000 1.000000
vt 0.625000 1.000000
vt 0.375000 0.000000
vt 0.625000 0.000000
vt 0.625000 0.250000
vt 0.375000 0.250000
vt 0.875000 0.750000
vt 0.875000 0.500000
vt 0.125000 0.500000
vt 0.125000 0.750000
s 0
usemtl SolarPanels.004
f 153/287/100 154/288/100 158/288/100 157/287/100
f 157/289/101 158/290/101 160/291/101 159/292/101
f 154/293/102 156/294/102 160/294/102 158/293/102
f 155/295/103 153/296/103 157/296/103 159/295/103
f 156/291/104 155/292/104 159/292/104 160/291/104
o Cube.011
v 2.956781 0.405275 -0.039351
v 2.956781 0.485337 -0.039351
v 2.956611 0.405275 0.040711
v 2.956611 0.485337 0.040711
v 2.562538 0.405275 -0.040218
v 2.562538 0.485337 -0.040218
v 2.562351 0.405275 0.039844
v 2.562351 0.485337 0.039844
vn 1.0000 -0.0000 0.0022
vn -0.0022 -0.0000 1.0000
vn -1.0000 -0.0000 -0.0022
vn 0.0022 -0.0000 -1.0000
vn -0.0000 -1.0000 -0.0000
vn -0.0000 1.0000 -0.0000
vt 0.375000 0.000000
vt 0.625000 0.000000
vt 0.625000 0.250000
vt 0.375000 0.250000
vt 0.625000 0.500000
vt 0.375000 0.500000
vt 0.625000 0.750000
vt 0.375000 0.750000
vt 0.625000 1.000000
vt 0.375000 1.000000
vt 0.125000 0.500000
vt 0.125000 0.750000
vt 0.875000 0.500000
vt 0.875000 0.750000
s 0
usemtl DarkGrayMetal.005
f 161/297/105 162/298/105 164/299/105 163/300/105
f 163/300/106 164/299/106 168/301/106 167/302/106
f 167/302/107 168/301/107 166/303/107 165/304/107
f 165/304/108 166/303/108 162/305/108 161/306/108
f 163/307/109 167/302/109 165/304/109 161/308/109
f 168/301/110 164/309/110 162/310/110 166/303/110
o Cube.010
v 2.77466 0.42467 -1.050567
v 2.77466 0.464701 -1.050567
v 2.770003 0.42467 1.051128
v 2.770003 0.464701 1.051128
v 4.091558 0.42467 -1.047643
v 4.091558 0.464701 -1.047643
v 4.0869 0.42467 1.054052
v 4.0869 0.464701 1.054052
vn 0.0022 -0.0000 -1.0000
vn 1.0000 -0.0000 0.0022
vn -0.0000 1.0000 -0.0000
vn -0.0000 -1.0000 -0.0000
vn -0.0022 -0.0000 1.0000
vt 0.375000 1.000000
vt 0.625000 1.000000
vt 0.375000 0.000000
vt 0.625000 0.000000
vt 0.625000 0.250000
vt 0.375000 0.250000
vt 0.875000 0.750000
vt 0.875000 0.500000
vt 0.125000 0.500000
vt 0.125000 0.750000
s 0
usemtl SolarPanels.004
f 169/311/111 170/312/111 174/312/111 173/311/111
f 173/313/112 174/314/112 176/315/112 175/316/112
f 170/317/113 172/318/113 176/318/113 174/317/113
f 171/319/114 169/320/114 173/320/114 175/319/114
f 172/315/115 171/316/115 175/316/115 176/315/115
o Cube.009
v 4.182346 0.42467 -1.047456
v 4.182346 0.464701 -1.047456
v 4.177689 0.42467 1.054256
v 4.177689 0.464701 1.054256
v 5.499244 0.42467 -1.044533
v 5.499244 0.464701 -1.044533
v 5.494586 0.42467 1.057179
v 5.494586 0.464701 1.057179
vn 0.0022 -0.0000 -1.0000
vn 1.0000 -0.0000 0.0022
vn -0.0000 1.0000 -0.0000
vn -0.0000 -1.0000 -0.0000
vn -0.0022 -0.0000 1.0000
vt 0.375000 1.000000
vt 0.625000 1.000000
vt 0.375000 0.000000
vt 0.625000 0.000000
vt 0.625000 0.250000
vt 0.375000 0.250000
vt 0.875000 0.750000
vt 0.875000 0.500000
vt 0.125000 0.500000
vt 0.125000 0.750000
s 0
usemtl SolarPanels.003
f 177/321/116 178/322/116 182/322/116 181/321/116
f 181/323/117 182/324/117 184/325/117 183/326/117
f 178/327/118 180/328/118 184/328/118 182/327/118
f 179/329/119 177/330/119 181/330/119 183/329/119
f 180/325/120 179/326/120 183/326/120 184/325/120
o Cube.008
v 4.364467 0.405275 -0.036224
v 4.364467 0.485337 -0.036224
v 4.364297 0.405275 0.043839
v 4.364297 0.485337 0.043839
v 3.970223 0.405275 -0.03709
v 3.970223 0.485337 -0.03709
v 3.970037 0.405275 0.042972
v 3.970037 0.485337 0.042972
vn 1.0000 -0.0000 0.0022
vn -0.0022 -0.0000 1.0000
vn -1.0000 -0.0000 -0.0022
vn 0.0022 -0.0000 -1.0000
vn -0.0000 -1.0000 -0.0000
vn -0.0000 1.0000 -0.0000
vt 0.375000 0.000000
vt 0.625000 0.000000
vt 0.625000 0.250000
vt 0.375000 0.250000
vt 0.625000 0.500000
vt 0.375000 0.500000
vt 0.625000 0.750000
vt 0.375000 0.750000
vt 0.625000 1.000000
vt 0.375000 1.000000
vt 0.125000 0.500000
vt 0.125000 0.750000
vt 0.875000 0.500000
vt 0.875000 0.750000
s 0
usemtl DarkGrayMetal.004
f 185/331/121 186/332/121 188/333/121 187/334/121
f 187/334/122 188/333/122 192/335/122 191/336/122
f 191/336/123 192/335/123 190/337/123 189/338/123
f 189/338/124 190/337/124 186/339/124 185/340/124
f 187/341/125 191/336/125 189/338/125 185/342/125
f 192/335/126 188/343/126 186/344/126 190/337/126
