# Blender 3.6.4
# www.blender.org
mtllib orbcomm.mtl
o Cube.003
v 0.026500 0.068005 0.049749
v 0.028837 0.067540 0.049749
v 0.026500 0.068005 -0.049639
v 0.028837 0.067540 -0.049639
v 0.035974 0.191900 0.049749
v 0.038312 0.191436 0.049749
v 0.035974 0.191900 -0.049639
v 0.038312 0.191436 -0.049639
vn -0.0000 -0.0000 1.0000
vn 0.1948 0.9809 -0.0000
vn 0.9971 -0.0763 -0.0000
vn -0.9971 0.0763 -0.0000
vn -0.0000 -0.0000 -1.0000
vt 0.375000 1.000000
vt 0.625000 1.000000
vt 0.375000 0.000000
vt 0.625000 0.000000
vt 0.625000 0.250000
vt 0.375000 0.250000
vt 0.875000 0.750000
vt 0.875000 0.500000
vt 0.125000 0.500000
vt 0.125000 0.750000
s 0
usemtl SolarPanels
f 1/1/1 2/2/1 6/2/1 5/1/1
f 5/3/2 6/4/2 8/5/2 7/6/2
f 2/7/3 4/8/3 8/8/3 6/7/3
f 3/9/4 1/10/4 5/10/4 7/9/4
f 4/5/5 3/6/5 7/6/5 8/5/5
o Cube.004
v 0.036713 0.216597 0.042567
v 0.041388 0.215669 0.042567
v 0.036713 0.216597 0.037857
v 0.041388 0.215669 0.037857
v 0.033877 0.179505 0.042567
v 0.038552 0.178577 0.042567
v 0.033877 0.179505 0.037857
v 0.038552 0.178577 0.037857
vn 0.1948 0.9809 -0.0000
vn -0.0000 -0.0000 -1.0000
vn -0.1948 -0.9809 -0.0000
vn -0.0000 -0.0000 1.0000
vn -0.9971 0.0763 -0.0000
vn 0.9971 -0.0763 -0.0000
vt 0.375000 0.000000
vt 0.625000 0.000000
vt 0.625000 0.250000
vt 0.375000 0.250000
vt 0.625000 0.500000
vt 0.375000 0.500000
vt 0.625000 0.750000
vt 0.375000 0.750000
vt 0.625000 1.000000
vt 0.375000 1.000000
vt 0.125000 0.500000
vt 0.125000 0.750000
vt 0.875000 0.500000
vt 0.875000 0.750000
s 0
usemtl DarkGrayMetal
f 9/11/6 10/12/6 12/13/6 11/14/6
f 11/14/7 12/13/7 16/15/7 15/16/7
f 15/16/8 16/15/8 14/17/8 13/18/8
f 13/18/9 14/17/9 10/19/9 9/20/9
f 11/21/10 15/16/10 13/18/10 9/22/10
f 16/15/11 12/23/11 10/24/11 14/17/11
o Cube.005
v 0.036519 0.199027 0.049749
v 0.038857 0.198563 0.049749
v 0.036519 0.199027 -0.049639
v 0.038857 0.198563 -0.049639
v 0.045994 0.322923 0.049749
v 0.048332 0.322458 0.049749
v 0.045994 0.322923 -0.049639
v 0.048332 0.322458 -0.049639
vn -0.0000 -0.0000 1.0000
vn 0.1948 0.9809 -0.0000
vn 0.9971 -0.0763 -0.0000
vn -0.9971 0.0763 -0.0000
vn -0.0000 -0.0000 -1.0000
vt 0.375000 1.000000
vt 0.625000 1.000000
vt 0.375000 0.000000
vt 0.625000 0.000000
vt 0.625000 0.250000
vt 0.375000 0.250000
vt 0.875000 0.750000
vt 0.875000 0.500000
vt 0.125000 0.500000
vt 0.125000 0.750000
s 0
usemtl SolarPanels
f 17/25/12 18/26/12 22/26/12 21/25/12
f 21/27/13 22/28/13 24/29/13 23/30/13
f 18/31/14 20/32/14 24/32/14 22/31/14
f 19/33/15 17/34/15 21/34/15 23/33/15
f 20/29/16 19/30/16 23/30/16 24/29/16
o Cube.007
v 0.046841 0.349034 0.042567
v 0.051516 0.348106 0.042567
v 0.046841 0.349034 0.037857
v 0.051516 0.348106 0.037857
v 0.044005 0.311942 0.042567
v 0.048679 0.311014 0.042567
v 0.044005 0.311942 0.037857
v 0.048679 0.311014 0.037857
vn 0.1948 0.9809 -0.0000
vn -0.0000 -0.0000 -1.0000
vn -0.1948 -0.9809 -0.0000
vn -0.0000 -0.0000 1.0000
vn -0.9971 0.0763 -0.0000
vn 0.9971 -0.0763 -0.0000
vt 0.375000 0.000000
vt 0.625000 0.000000
vt 0.625000 0.250000
vt 0.375000 0.250000
vt 0.625000 0.500000
vt 0.375000 0.500000
vt 0.625000 0.750000
vt 0.375000 0.750000
vt 0.625000 1.000000
vt 0.375000 1.000000
vt 0.125000 0.500000
vt 0.125000 0.750000
vt 0.875000 0.500000
vt 0.875000 0.750000
s 0
usemtl DarkGrayMetal.003
f 25/35/17 26/36/17 28/37/17 27/38/17
f 27/38/18 28/37/18 32/39/18 31/40/18
f 31/40/19 32/39/19 30/41/19 29/42/19
f 29/42/20 30/41/20 26/43/20 25/44/20
f 27/45/21 31/40/21 29/42/21 25/46/21
f 32/39/22 28/47/22 26/48/22 30/41/22
o Cube.006
v 0.046647 0.331464 0.049749
v 0.048985 0.331000 0.049749
v 0.046647 0.331464 -0.049639
v 0.048985 0.331000 -0.049639
v 0.056122 0.455360 0.049749
v 0.058460 0.454895 0.049749
v 0.056122 0.455360 -0.049639
v 0.058460 0.454895 -0.049639
vn -0.0000 -0.0000 1.0000
vn 0.1948 0.9809 -0.0000
vn 0.9971 -0.0763 -0.0000
vn -0.9971 0.0763 -0.0000
vn -0.0000 -0.0000 -1.0000
vt 0.375000 1.000000
vt 0.625000 1.000000
vt 0.375000 0.000000
vt 0.625000 0.000000
vt 0.625000 0.250000
vt 0.375000 0.250000
vt 0.875000 0.750000
vt 0.875000 0.500000
vt 0.125000 0.500000
vt 0.125000 0.750000
s 0
usemtl SolarPanels.001
f 33/49/23 34/50/23 38/50/23 37/49/23
f 37/51/24 38/52/24 40/53/24 39/54/24
f 34/55/25 36/56/25 40/56/25 38/55/25
f 35/57/26 33/58/26 37/58/26 39/57/26
f 36/53/27 35/54/27 39/54/27 40/53/27
o Cube
v -0.025286 0.050153 0.050000
v 0.024714 0.050153 0.050000
v -0.025286 0.050153 -0.050000
v 0.024714 0.050153 -0.050000
v 0.000000 -0.049847 -0.014676
v 0.000000 -0.032671 -0.014676
v 0.005616 -0.049847 -0.013558
v 0.005616 -0.032671 -0.013558
v 0.010377 -0.049847 -0.010377
v 0.010377 -0.032671 -0.010377
v 0.013559 -0.049847 -0.005616
v 0.013559 -0.032671 -0.005616
v 0.014676 -0.049847 0.000000
v 0.014676 -0.032671 0.000000
v 0.013559 -0.049847 0.005616
v 0.013559 -0.032671 0.005616
v 0.010377 -0.049847 0.010377
v 0.010377 -0.032671 0.010377
v 0.005616 -0.049847 0.013558
v 0.005616 -0.032671 0.013558
v 0.000000 -0.049847 0.014676
v 0.000000 -0.032671 0.014676
v -0.005616 -0.049847 0.013559
v -0.005616 -0.032671 0.013559
v -0.010377 -0.049847 0.010377
v -0.010377 -0.032671 0.010377
v -0.013558 -0.049847 0.005616
v -0.013558 -0.032671 0.005616
v -0.014676 -0.049847 -0.000000
v -0.014676 -0.032671 -0.000000
v -0.013558 -0.049847 -0.005616
v -0.013558 -0.032671 -0.005616
v -0.010377 -0.049847 -0.010377
v -0.010377 -0.032671 -0.010377
v -0.005616 -0.049847 -0.013559
v -0.005616 -0.032671 -0.013559
v 0.024714 -0.049847 0.000000
v -0.025286 -0.049847 0.000000
v -0.025286 -0.039847 -0.050000
v -0.025286 -0.049847 -0.040000
v 0.024714 -0.049847 -0.040000
v 0.024714 -0.039847 -0.050000
v -0.025286 -0.039847 0.050000
v -0.025286 -0.049847 0.040000
v 0.024714 -0.049847 0.040000
v 0.024714 -0.039847 0.050000
v 0.001872 -0.049847 -0.014303
v 0.003744 -0.049847 -0.013931
v 0.007203 -0.049847 -0.012498
v 0.008790 -0.049847 -0.011438
v 0.011438 -0.049847 -0.008790
v 0.012498 -0.049847 -0.007203
v 0.013931 -0.049847 -0.003744
v 0.014303 -0.049847 -0.001872
v 0.014303 -0.049847 0.001872
v 0.013931 -0.049847 0.003744
v 0.012498 -0.049847 0.007203
v 0.011438 -0.049847 0.008790
v 0.008790 -0.049847 0.011438
v 0.007203 -0.049847 0.012498
v 0.003744 -0.049847 0.013931
v 0.001872 -0.049847 0.014303
v -0.001872 -0.049847 0.014303
v -0.003744 -0.049847 0.013931
v -0.007203 -0.049847 0.012498
v -0.008790 -0.049847 0.011438
v -0.011438 -0.049847 0.008790
v -0.012498 -0.049847 0.007203
v -0.013931 -0.049847 0.003744
v -0.014303 -0.049847 0.001872
v -0.014303 -0.049847 -0.001872
v -0.013931 -0.049847 -0.003744
v -0.012498 -0.049847 -0.007203
v -0.011438 -0.049847 -0.008790
v -0.008790 -0.049847 -0.011438
v -0.007203 -0.049847 -0.012498
v -0.003744 -0.049847 -0.013931
v -0.001872 -0.049847 -0.014303
v 0.000000 -0.849194 -0.014676
v 0.005616 -0.849194 -0.013558
v 0.010377 -0.849194 -0.010377
v 0.013559 -0.849194 -0.005616
v 0.014676 -0.849194 0.000000
v 0.010377 -0.849194 0.010377
v 0.005616 -0.849194 0.013558
v 0.000000 -0.849194 0.014676
v -0.005616 -0.849194 0.013559
v -0.010377 -0.849194 0.010377
v -0.013558 -0.849194 0.005616
v -0.014676 -0.849194 -0.000000
v -0.013558 -0.849194 -0.005616
v -0.010377 -0.849194 -0.010377
v -0.005616 -0.849194 -0.013559
v 0.013559 -0.849194 0.005616
v 0.008790 -0.849194 0.011438
v 0.007203 -0.849194 0.012498
v -0.001872 -0.849194 0.014303
v -0.003744 -0.849194 0.013931
v -0.011438 -0.849194 0.008790
v -0.012498 -0.849194 0.007203
v -0.014303 -0.849194 -0.001872
v -0.013931 -0.849194 -0.003744
v -0.008790 -0.849194 -0.011438
v -0.007203 -0.849194 -0.012498
v 0.001872 -0.849194 -0.014303
v 0.003744 -0.849194 -0.013931
v 0.011438 -0.849194 -0.008790
v 0.012498 -0.849194 -0.007203
v 0.014303 -0.849194 0.001872
v 0.013931 -0.849194 0.003744
v 0.007203 -0.849194 -0.012498
v 0.008790 -0.849194 -0.011438
v -0.001872 -0.849194 -0.014303
v -0.003744 -0.849194 -0.013931
v -0.012498 -0.849194 -0.007203
v -0.011438 -0.849194 -0.008790
v -0.013931 -0.849194 0.003744
v -0.014303 -0.849194 0.001872
v -0.007203 -0.849194 0.012498
v -0.008790 -0.849194 0.011438
v 0.003744 -0.849194 0.013931
v 0.001872 -0.849194 0.014303
v 0.011438 -0.849194 0.008790
v 0.012498 -0.849194 0.007203
v 0.013931 -0.849194 -0.003744
v 0.014303 -0.849194 -0.001872
vn -0.0000 1.0000 -0.0000
vn 1.0000 -0.0000 -0.0000
vn -1.0000 -0.0000 -0.0000
vn 0.1951 -0.0000 -0.9808
vn 0.5556 -0.0000 -0.8315
vn 0.8315 -0.0000 -0.5556
vn 0.9808 -0.0000 -0.1951
vn -0.9808 -0.0000 -0.1951
vn -0.8315 -0.0000 -0.5556
vn -0.5556 -0.0000 -0.8315
vn -0.1951 -0.0000 -0.9808
vn -0.0000 -0.0000 1.0000
vn -0.0000 -0.7071 0.7071
vn -0.0000 -0.7071 -0.7071
vn -0.0000 -0.0000 -1.0000
vn 0.9808 -0.0000 0.1951
vn 0.8315 -0.0000 0.5556
vn 0.5556 -0.0000 0.8315
vn 0.1951 -0.0000 0.9808
vn -0.1951 -0.0000 0.9808
vn -0.5556 -0.0000 0.8315
vn -0.8315 -0.0000 0.5556
vn -0.9808 -0.0000 0.1951
vt 0.375000 0.000000
vt 0.625000 0.000000
vt 0.625000 0.250000
vt 0.375000 0.250000
vt 0.625000 0.525000
vt 0.650000 0.500000
vt 0.875000 0.500000
vt 0.875000 0.750000
vt 0.650000 0.750000
vt 0.625000 0.725000
vt 0.625000 0.625000
vt 0.125000 0.500000
vt 0.350000 0.500000
vt 0.375000 0.525000
vt 0.375000 0.625000
vt 0.375000 0.725000
vt 0.350000 0.750000
vt 0.125000 0.750000
vt 1.000000 0.500000
vt 1.000000 1.000000
vt 0.937500 1.000000
vt 0.937500 0.500000
vt 0.958333 0.500000
vt 0.979167 0.500000
vt 0.875000 1.000000
vt 0.895833 0.500000
vt 0.916667 0.500000
vt 0.812500 1.000000
vt 0.812500 0.500000
vt 0.833333 0.500000
vt 0.854167 0.500000
vt 0.750000 1.000000
vt 0.750000 0.500000
vt 0.770833 0.500000
vt 0.791667 0.500000
vt 0.250000 0.500000
vt 0.250000 1.000000
vt 0.187500 1.000000
vt 0.187500 0.500000
vt 0.208333 0.500000
vt 0.229167 0.500000
vt 0.125000 1.000000
vt 0.145833 0.500000
vt 0.166667 0.500000
vt 0.341844 0.471731
vt 0.250000 0.490000
vt 0.158156 0.471731
vt 0.080294 0.419706
vt 0.028269 0.341844
vt 0.010000 0.250000
vt 0.028269 0.158156
vt 0.080294 0.080294
vt 0.158156 0.028269
vt 0.250000 0.010000
vt 0.341844 0.028269
vt 0.419706 0.080294
vt 0.471731 0.158156
vt 0.490000 0.250000
vt 0.471731 0.341844
vt 0.419706 0.419706
vt 0.062500 1.000000
vt 0.062500 0.500000
vt 0.083333 0.500000
vt 0.104167 0.500000
vt 0.000000 1.000000
vt 0.000000 0.500000
vt 0.020833 0.500000
vt 0.041667 0.500000
vt 0.687500 1.000000
vt 0.625000 1.000000
vt 0.562500 1.000000
vt 0.500000 1.000000
vt 0.437500 1.000000
vt 0.375000 1.000000
vt 0.312500 1.000000
vt 0.270833 0.500000
vt 0.291667 0.500000
vt 0.312500 0.500000
vt 0.333333 0.500000
vt 0.354167 0.500000
vt 0.375000 0.500000
vt 0.395833 0.500000
vt 0.416667 0.500000
vt 0.437500 0.500000
vt 0.458333 0.500000
vt 0.479167 0.500000
vt 0.500000 0.500000
vt 0.520833 0.500000
vt 0.541667 0.500000
vt 0.562500 0.500000
vt 0.583333 0.500000
vt 0.604167 0.500000
vt 0.625000 0.500000
vt 0.645833 0.500000
vt 0.666667 0.500000
vt 0.687500 0.500000
vt 0.708333 0.500000
vt 0.729167 0.500000
vt 0.000000 0.000000
s 0
usemtl GoldFoil
f 41/59/28 42/60/28 44/61/28 43/62/28
f 81/63/29 82/64/29 44/65/29 42/66/29 86/67/29 85/68/29 77/69/29
f 43/70/30 79/71/30 80/72/30 78/73/30 84/74/30 83/75/30 41/76/30
f 86/67/40 83/75/40 84/74/40 85/68/40
f 80/72/41 79/71/41 82/64/41 81/63/41
f 69/94/28 111/99/28 112/98/28 71/97/28 113/102/28 114/101/28 73/70/28 115/122/28 116/121/28 75/120/28 117/126/28 118/125/28 45/124/28 80/72/28 78/73/28
f 45/124/28 87/136/28 88/151/28 47/80/28 89/85/28 90/84/28 49/65/28 91/89/28 92/88/28 51/87/28 93/93/28 94/92/28 53/91/28 77/69/28 81/63/28 80/72/28
f 53/91/28 95/156/28 96/155/28 55/154/28 97/153/28 98/152/28 57/151/28 99/150/28 100/149/28 59/148/28 101/147/28 102/146/28 61/145/28 85/68/28 77/69/28
f 61/145/28 103/144/28 104/143/28 63/142/28 105/141/28 106/140/28 65/139/28 107/138/28 108/137/28 67/136/28 109/135/28 110/134/28 69/94/28 78/73/28 84/74/28 85/68/28
f 42/66/39 41/76/39 83/75/39 86/67/39
f 44/65/42 82/64/42 79/71/42 43/70/42
usemtl WhiteMetal
f 45/77/31 46/78/31 48/79/31 47/80/31 88/81/31 87/82/31
f 47/80/32 48/79/32 50/83/32 49/65/32 90/84/32 89/85/32
f 49/65/33 50/83/33 52/86/33 51/87/33 92/88/33 91/89/33
f 51/87/34 52/86/34 54/90/34 53/91/34 94/92/34 93/93/34
f 69/94/35 70/95/35 72/96/35 71/97/35 112/98/35 111/99/35
f 71/97/36 72/96/36 74/100/36 73/70/36 114/101/36 113/102/36
f 48/103/28 46/104/28 76/105/28 74/106/28 72/107/28 70/108/28 68/109/28 66/110/28 64/111/28 62/112/28 60/113/28 58/114/28 56/115/28 54/116/28 52/117/28 50/118/28
f 73/70/37 74/100/37 76/119/37 75/120/37 116/121/37 115/122/37
f 75/120/38 76/119/38 46/123/38 45/124/38 118/125/38 117/126/38
f 53/91/39 54/90/39 56/127/39 58/128/39 60/129/39 62/130/39 64/131/39 66/132/39 68/133/39 70/95/39 69/94/39 110/134/39 109/135/39 67/136/39 108/137/39 107/138/39 65/139/39 106/140/39 105/141/39 63/142/39 104/143/39 103/144/39 61/145/39 102/146/39 101/147/39 59/148/39 100/149/39 99/150/39 57/151/39 98/152/39 97/153/39 55/154/39 96/155/39 95/156/39
f 100/157/37 136/157/37 125/157/37 59/157/37
f 57/157/37 124/157/37 135/157/37 99/157/37
f 102/146/38 101/147/38 161/157/38 162/157/38
f 104/157/31 138/157/31 127/157/31 63/157/31
f 61/157/31 126/157/31 137/157/31 103/157/31
f 105/141/32 159/157/32 160/157/32 106/140/32
f 108/157/33 140/157/33 129/157/33 67/157/33
f 65/157/33 128/157/33 139/157/33 107/157/33
f 110/134/34 109/135/34 157/157/34 158/157/34
f 112/157/43 142/157/43 131/157/43 71/157/43
f 69/157/43 130/157/43 141/157/43 111/157/43
f 114/101/44 113/102/44 155/157/44 156/157/44
f 116/157/45 144/157/45 133/157/45 75/157/45
f 73/157/45 132/157/45 143/157/45 115/157/45
f 118/125/46 117/126/46 154/157/46 153/157/46
f 88/157/47 146/157/47 120/157/47 47/157/47
f 45/157/47 119/157/47 145/157/47 87/157/47
f 90/84/48 89/85/48 151/157/48 152/157/48
f 92/157/49 148/157/49 122/157/49 51/157/49
f 49/157/49 121/157/49 147/157/49 91/157/49
f 96/157/35 150/157/35 134/157/35 55/157/35
f 53/157/35 123/157/35 149/157/35 95/157/35
f 97/153/36 164/157/36 163/157/36 98/152/36
f 93/93/50 165/157/50 166/157/50 94/92/50
f 136/157/28 135/157/28 124/157/28 163/157/28 164/157/28 134/157/28 150/157/28 149/157/28 123/157/28 166/157/28 165/157/28 122/157/28 148/157/28 147/157/28 121/157/28 152/157/28 151/157/28 120/157/28 146/157/28 145/157/28 119/157/28 153/157/28 154/157/28 133/157/28 144/157/28 143/157/28 132/157/28 156/157/28 155/157/28 131/157/28 142/157/28 141/157/28 130/157/28 158/157/28 157/157/28 129/157/28 140/157/28 139/157/28 128/157/28 160/157/28 159/157/28 127/157/28 138/157/28 137/157/28 126/157/28 162/157/28 161/157/28 125/157/28
o Cube.002
v 0.036713 0.216597 -0.037114
v 0.041388 0.215669 -0.037114
v 0.036713 0.216597 -0.041825
v 0.041388 0.215669 -0.041825
v 0.033877 0.179505 -0.037114
v 0.038552 0.178577 -0.037114
v 0.033877 0.179505 -0.041825
v 0.038552 0.178577 -0.041825
vn 0.1948 0.9809 -0.0000
vn -0.0000 -0.0000 -1.0000
vn -0.1948 -0.9809 -0.0000
vn -0.0000 -0.0000 1.0000
vn -0.9971 0.0763 -0.0000
vn 0.9971 -0.0763 -0.0000
vt 0.375000 0.000000
vt 0.625000 0.000000
vt 0.625000 0.250000
vt 0.375000 0.250000
vt 0.625000 0.500000
vt 0.375000 0.500000
vt 0.625000 0.750000
vt 0.375000 0.750000
vt 0.625000 1.000000
vt 0.375000 1.000000
vt 0.125000 0.500000
vt 0.125000 0.750000
vt 0.875000 0.500000
vt 0.875000 0.750000
s 0
usemtl DarkGrayMetal.007
f 167/158/51 168/159/51 170/160/51 169/161/51
f 169/161/52 170/160/52 174/162/52 173/163/52
f 173/163/53 174/162/53 172/164/53 171/165/53
f 171/165/54 172/164/54 168/166/54 167/167/54
f 169/168/55 173/163/55 171/165/55 167/169/55
f 174/162/56 170/170/56 168/171/56 172/164/56
o Cube.001
v 0.046841 0.349034 -0.037114
v 0.051516 0.348106 -0.037114
v 0.046841 0.349034 -0.041825
v 0.051516 0.348106 -0.041825
v 0.044005 0.311942 -0.037114
v 0.048679 0.311014 -0.037114
v 0.044005 0.311942 -0.041825
v 0.048679 0.311014 -0.041825
vn 0.1948 0.9809 -0.0000
vn -0.0000 -0.0000 -1.0000
vn -0.1948 -0.9809 -0.0000
vn -0.0000 -0.0000 1.0000
vn -0.9971 0.0763 -0.0000
vn 0.9971 -0.0763 -0.0000
vt 0.375000 0.000000
vt 0.625000 0.000000
vt 0.625000 0.250000
vt 0.375000 0.250000
vt 0.625000 0.500000
vt 0.375000 0.500000
vt 0.625000 0.750000
vt 0.375000 0.750000
vt 0.625000 1.000000
vt 0.375000 1.000000
vt 0.125000 0.500000
vt 0.125000 0.750000
vt 0.875000 0.500000
vt 0.875000 0.750000
s 0
usemtl DarkGrayMetal.006
f 175/172/57 176/173/57 178/174/57 177/175/57
f 177/175/58 178/174/58 182/176/58 181/177/58
f 181/177/59 182/176/59 180/178/59 179/179/59
f 179/179/60 180/178/60 176/180/60 175/181/60
f 177/182/61 181/177/61 179/179/61 175/183/61
f 182/176/62 178/184/62 176/185/62 180/178/62
o Cube.009
v 0.026698 0.085629 -0.037114
v 0.031372 0.084700 -0.037114
v 0.026698 0.085629 -0.041825
v 0.031372 0.084700 -0.041825
v 0.023861 0.048536 -0.037114
v 0.028536 0.047608 -0.037114
v 0.023861 0.048536 -0.041825
v 0.028536 0.047608 -0.041825
vn 0.1947 0.9809 -0.0000
vn -0.0000 -0.0000 -1.0000
vn -0.1947 -0.9809 -0.0000
vn -0.0000 -0.0000 1.0000
vn -0.9971 0.0763 -0.0000
vn 0.9971 -0.0763 -0.0000
vt 0.375000 0.000000
vt 0.625000 0.000000
vt 0.625000 0.250000
vt 0.375000 0.250000
vt 0.625000 0.500000
vt 0.375000 0.500000
vt 0.625000 0.750000
vt 0.375000 0.750000
vt 0.625000 1.000000
vt 0.375000 1.000000
vt 0.125000 0.500000
vt 0.125000 0.750000
vt 0.875000 0.500000
vt 0.875000 0.750000
s 0
usemtl DarkGrayMetal.009
f 183/186/63 184/187/63 186/188/63 185/189/63
f 185/189/64 186/188/64 190/190/64 189/191/64
f 189/191/65 190/190/65 188/192/65 187/193/65
f 187/193/66 188/192/66 184/194/66 183/195/66
f 185/196/67 189/191/67 187/193/67 183/197/67
f 190/190/68 186/198/68 184/199/68 188/192/68
o Cube.008
v 0.026698 0.085629 0.042567
v 0.031372 0.084700 0.042567
v 0.026698 0.085629 0.037857
v 0.031372 0.084700 0.037857
v 0.023861 0.048536 0.042567
v 0.028536 0.047608 0.042567
v 0.023861 0.048536 0.037857
v 0.028536 0.047608 0.037857
vn 0.1947 0.9809 -0.0000
vn -0.0000 -0.0000 -1.0000
vn -0.1947 -0.9809 -0.0000
vn -0.0000 -0.0000 1.0000
vn -0.9971 0.0763 -0.0000
vn 0.9971 -0.0763 -0.0000
vt 0.375000 0.000000
vt 0.625000 0.000000
vt 0.625000 0.250000
vt 0.375000 0.250000
vt 0.625000 0.500000
vt 0.375000 0.500000
vt 0.625000 0.750000
vt 0.375000 0.750000
vt 0.625000 1.000000
vt 0.375000 1.000000
vt 0.125000 0.500000
vt 0.125000 0.750000
vt 0.875000 0.500000
vt 0.875000 0.750000
s 0
usemtl DarkGrayMetal.008
f 191/200/69 192/201/69 194/202/69 193/203/69
f 193/203/70 194/202/70 198/204/70 197/205/70
f 197/205/71 198/204/71 196/206/71 195/207/71
f 195/207/72 196/206/72 192/208/72 191/209/72
f 193/210/73 197/205/73 195/207/73 191/211/73
f 198/204/74 194/212/74 192/213/74 196/206/74
o Cube.010
v 0.024941 -0.021969 0.049749
v 0.027270 -0.021701 0.049749
v 0.024941 -0.021969 -0.049639
v 0.027270 -0.021701 -0.049639
v 0.024999 0.027390 0.049749
v 0.027328 0.027658 0.049749
v 0.024999 0.027390 -0.049639
v 0.027328 0.027658 -0.049639
vn -0.0000 -0.0000 1.0000
vn -0.1143 0.9935 -0.0000
vn 1.0000 -0.0012 -0.0000
vn -1.0000 0.0012 -0.0000
vn -0.0000 -0.0000 -1.0000
vt 0.375000 1.000000
vt 0.625000 1.000000
vt 0.375000 0.000000
vt 0.625000 0.000000
vt 0.625000 0.250000
vt 0.375000 0.250000
vt 0.875000 0.750000
vt 0.875000 0.500000
vt 0.125000 0.500000
vt 0.125000 0.750000
s 0
usemtl SolarPanels.005
f 199/214/75 200/215/75 204/215/75 203/214/75
f 203/216/76 204/217/76 206/218/76 205/219/76
f 200/220/77 202/221/77 206/221/77 204/220/77
f 201/222/78 199/223/78 203/223/78 205/222/78
f 202/218/79 201/219/79 205/219/79 206/218/79
