# Generated by scripts/mesh-gen - do not hand-edit, re-run npm run generate-meshes
# Basis: 16U cubesat (bare-aluminum skin)
# Authored real meters 1:1 (1U = 0.1 m); 2x2x4 cm body
# Palette: alu, antenna: patch
# Reached via the size-scaled camera standoff (no visibility oversize); tumbles
# Seed: 20240611
mtllib s16u-b.mtl
o s16u-b
v 0.0970 -0.0970 -0.2000
v 0.0970 0.0000 -0.2000
v 0.0970 0.0000 -0.1000
v 0.0970 -0.0970 -0.1000
v 0.0970 0.0000 0.0000
v 0.0970 -0.0970 0.0000
v 0.0970 0.0000 0.1000
v 0.0970 -0.0970 0.1000
v 0.0970 0.0000 0.2000
v 0.0970 -0.0970 0.2000
v 0.0970 0.0970 -0.2000
v 0.0970 0.0970 -0.1000
v 0.0970 0.0970 0.0000
v 0.0970 0.0970 0.1000
v 0.0970 0.0970 0.2000
v -0.0970 -0.0970 -0.2000
v -0.0970 -0.0970 -0.1000
v -0.0970 0.0000 -0.1000
v -0.0970 0.0000 -0.2000
v -0.0970 0.0970 -0.1000
v -0.0970 0.0970 -0.2000
v -0.0970 -0.0970 0.0000
v -0.0970 0.0000 0.0000
v -0.0970 0.0970 0.0000
v -0.0970 -0.0970 0.1000
v -0.0970 0.0000 0.1000
v -0.0970 0.0970 0.1000
v -0.0970 -0.0970 0.2000
v -0.0970 0.0000 0.2000
v -0.0970 0.0970 0.2000
v 0.0000 0.0970 -0.1000
v 0.0000 0.0970 -0.2000
v 0.0000 0.0970 0.0000
v 0.0000 0.0970 0.1000
v 0.0000 0.0970 0.2000
v 0.0000 -0.0970 -0.2000
v 0.0000 -0.0970 -0.1000
v 0.0000 -0.0970 0.0000
v 0.0000 -0.0970 0.1000
v 0.0000 -0.0970 0.2000
v 0.0000 0.0000 0.2000
v 0.0000 0.0000 -0.2000
v -0.0920 -0.1000 -0.2000
v -0.0920 -0.0920 -0.2000
v -0.0920 -0.0920 -0.1000
v -0.0920 -0.1000 -0.1000
v -0.0920 -0.0920 0.0000
v -0.0920 -0.1000 0.0000
v -0.0920 -0.0920 0.1000
v -0.0920 -0.1000 0.1000
v -0.0920 -0.0920 0.2000
v -0.0920 -0.1000 0.2000
v -0.1000 -0.1000 -0.2000
v -0.1000 -0.1000 -0.1000
v -0.1000 -0.0920 -0.1000
v -0.1000 -0.0920 -0.2000
v -0.1000 -0.1000 0.0000
v -0.1000 -0.0920 0.0000
v -0.1000 -0.1000 0.1000
v -0.1000 -0.0920 0.1000
v -0.1000 -0.1000 0.2000
v -0.1000 -0.0920 0.2000
v -0.0920 0.0920 -0.2000
v -0.0920 0.1000 -0.2000
v -0.0920 0.1000 -0.1000
v -0.0920 0.0920 -0.1000
v -0.0920 0.1000 0.0000
v -0.0920 0.0920 0.0000
v -0.0920 0.1000 0.1000
v -0.0920 0.0920 0.1000
v -0.0920 0.1000 0.2000
v -0.0920 0.0920 0.2000
v -0.1000 0.0920 -0.2000
v -0.1000 0.0920 -0.1000
v -0.1000 0.1000 -0.1000
v -0.1000 0.1000 -0.2000
v -0.1000 0.0920 0.0000
v -0.1000 0.1000 0.0000
v -0.1000 0.0920 0.1000
v -0.1000 0.1000 0.1000
v -0.1000 0.0920 0.2000
v -0.1000 0.1000 0.2000
v 0.1000 -0.1000 -0.2000
v 0.1000 -0.0920 -0.2000
v 0.1000 -0.0920 -0.1000
v 0.1000 -0.1000 -0.1000
v 0.1000 -0.0920 0.0000
v 0.1000 -0.1000 0.0000
v 0.1000 -0.0920 0.1000
v 0.1000 -0.1000 0.1000
v 0.1000 -0.0920 0.2000
v 0.1000 -0.1000 0.2000
v 0.0920 -0.1000 -0.2000
v 0.0920 -0.1000 -0.1000
v 0.0920 -0.0920 -0.1000
v 0.0920 -0.0920 -0.2000
v 0.0920 -0.1000 0.0000
v 0.0920 -0.0920 0.0000
v 0.0920 -0.1000 0.1000
v 0.0920 -0.0920 0.1000
v 0.0920 -0.1000 0.2000
v 0.0920 -0.0920 0.2000
v 0.1000 0.0920 -0.2000
v 0.1000 0.1000 -0.2000
v 0.1000 0.1000 -0.1000
v 0.1000 0.0920 -0.1000
v 0.1000 0.1000 0.0000
v 0.1000 0.0920 0.0000
v 0.1000 0.1000 0.1000
v 0.1000 0.0920 0.1000
v 0.1000 0.1000 0.2000
v 0.1000 0.0920 0.2000
v 0.0920 0.0920 -0.2000
v 0.0920 0.0920 -0.1000
v 0.0920 0.1000 -0.1000
v 0.0920 0.1000 -0.2000
v 0.0920 0.0920 0.0000
v 0.0920 0.1000 0.0000
v 0.0920 0.0920 0.1000
v 0.0920 0.1000 0.1000
v 0.0920 0.0920 0.2000
v 0.0920 0.1000 0.2000
v -0.0982 -0.0834 -0.1860
v -0.0982 -0.0136 -0.1860
v -0.0982 -0.0136 -0.1140
v -0.0982 -0.0834 -0.1140
v -0.0982 -0.0834 -0.0860
v -0.0982 -0.0136 -0.0860
v -0.0982 -0.0136 -0.0140
v -0.0982 -0.0834 -0.0140
v -0.0982 -0.0834 0.0140
v -0.0982 -0.0136 0.0140
v -0.0982 -0.0136 0.0860
v -0.0982 -0.0834 0.0860
v -0.0982 -0.0834 0.1140
v -0.0982 -0.0136 0.1140
v -0.0982 -0.0136 0.1860
v -0.0982 -0.0834 0.1860
v -0.0982 0.0136 -0.1860
v -0.0982 0.0834 -0.1860
v -0.0982 0.0834 -0.1140
v -0.0982 0.0136 -0.1140
v -0.0982 0.0136 -0.0860
v -0.0982 0.0834 -0.0860
v -0.0982 0.0834 -0.0140
v -0.0982 0.0136 -0.0140
v -0.0982 0.0136 0.0140
v -0.0982 0.0834 0.0140
v -0.0982 0.0834 0.0860
v -0.0982 0.0136 0.0860
v -0.0982 0.0136 0.1140
v -0.0982 0.0834 0.1140
v -0.0982 0.0834 0.1860
v -0.0982 0.0136 0.1860
v 0.0982 -0.0834 -0.1860
v 0.0982 -0.0136 -0.1860
v 0.0982 -0.0136 -0.1140
v 0.0982 -0.0834 -0.1140
v 0.0982 -0.0834 -0.0860
v 0.0982 -0.0136 -0.0860
v 0.0982 -0.0136 -0.0140
v 0.0982 -0.0834 -0.0140
v 0.0982 -0.0834 0.0140
v 0.0982 -0.0136 0.0140
v 0.0982 -0.0136 0.0860
v 0.0982 -0.0834 0.0860
v 0.0982 -0.0834 0.1140
v 0.0982 -0.0136 0.1140
v 0.0982 -0.0136 0.1860
v 0.0982 -0.0834 0.1860
v 0.0982 0.0136 -0.1860
v 0.0982 0.0834 -0.1860
v 0.0982 0.0834 -0.1140
v 0.0982 0.0136 -0.1140
v 0.0982 0.0136 -0.0860
v 0.0982 0.0834 -0.0860
v 0.0982 0.0834 -0.0140
v 0.0982 0.0136 -0.0140
v 0.0982 0.0136 0.0140
v 0.0982 0.0834 0.0140
v 0.0982 0.0834 0.0860
v 0.0982 0.0136 0.0860
v 0.0982 0.0136 0.1140
v 0.0982 0.0834 0.1140
v 0.0982 0.0834 0.1860
v 0.0982 0.0136 0.1860
v 0.0150 -0.0150 -0.2080
v 0.0150 0.0150 -0.2080
v 0.0150 0.0150 -0.2000
v 0.0150 -0.0150 -0.2000
v -0.0150 -0.0150 -0.2080
v -0.0150 -0.0150 -0.2000
v -0.0150 0.0150 -0.2000
v -0.0150 0.0150 -0.2080
vn 1.0000 0.0000 0.0000
vn -1.0000 0.0000 0.0000
vn 0.0000 1.0000 0.0000
vn 0.0000 -1.0000 0.0000
vn 0.0000 0.0000 1.0000
vn 0.0000 0.0000 -1.0000
usemtl body
f 1//1 2//1 3//1 4//1
f 4//1 3//1 5//1 6//1
f 6//1 5//1 7//1 8//1
f 8//1 7//1 9//1 10//1
f 2//1 11//1 12//1 3//1
f 3//1 12//1 13//1 5//1
f 5//1 13//1 14//1 7//1
f 7//1 14//1 15//1 9//1
f 16//2 17//2 18//2 19//2
f 19//2 18//2 20//2 21//2
f 17//2 22//2 23//2 18//2
f 18//2 23//2 24//2 20//2
f 22//2 25//2 26//2 23//2
f 23//2 26//2 27//2 24//2
f 25//2 28//2 29//2 26//2
f 26//2 29//2 30//2 27//2
f 21//3 20//3 31//3 32//3
f 32//3 31//3 12//3 11//3
f 20//3 24//3 33//3 31//3
f 31//3 33//3 13//3 12//3
f 24//3 27//3 34//3 33//3
f 33//3 34//3 14//3 13//3
f 27//3 30//3 35//3 34//3
f 34//3 35//3 15//3 14//3
f 16//4 36//4 37//4 17//4
f 17//4 37//4 38//4 22//4
f 22//4 38//4 39//4 25//4
f 25//4 39//4 40//4 28//4
f 36//4 1//4 4//4 37//4
f 37//4 4//4 6//4 38//4
f 38//4 6//4 8//4 39//4
f 39//4 8//4 10//4 40//4
f 28//5 40//5 41//5 29//5
f 29//5 41//5 35//5 30//5
f 40//5 10//5 9//5 41//5
f 41//5 9//5 15//5 35//5
f 16//6 19//6 42//6 36//6
f 36//6 42//6 2//6 1//6
f 19//6 21//6 32//6 42//6
f 42//6 32//6 11//6 2//6
usemtl rail
f 43//1 44//1 45//1 46//1
f 46//1 45//1 47//1 48//1
f 48//1 47//1 49//1 50//1
f 50//1 49//1 51//1 52//1
f 53//2 54//2 55//2 56//2
f 54//2 57//2 58//2 55//2
f 57//2 59//2 60//2 58//2
f 59//2 61//2 62//2 60//2
f 56//3 55//3 45//3 44//3
f 55//3 58//3 47//3 45//3
f 58//3 60//3 49//3 47//3
f 60//3 62//3 51//3 49//3
f 53//4 43//4 46//4 54//4
f 54//4 46//4 48//4 57//4
f 57//4 48//4 50//4 59//4
f 59//4 50//4 52//4 61//4
f 61//5 52//5 51//5 62//5
f 53//6 56//6 44//6 43//6
f 63//1 64//1 65//1 66//1
f 66//1 65//1 67//1 68//1
f 68//1 67//1 69//1 70//1
f 70//1 69//1 71//1 72//1
f 73//2 74//2 75//2 76//2
f 74//2 77//2 78//2 75//2
f 77//2 79//2 80//2 78//2
f 79//2 81//2 82//2 80//2
f 76//3 75//3 65//3 64//3
f 75//3 78//3 67//3 65//3
f 78//3 80//3 69//3 67//3
f 80//3 82//3 71//3 69//3
f 73//4 63//4 66//4 74//4
f 74//4 66//4 68//4 77//4
f 77//4 68//4 70//4 79//4
f 79//4 70//4 72//4 81//4
f 81//5 72//5 71//5 82//5
f 73//6 76//6 64//6 63//6
f 83//1 84//1 85//1 86//1
f 86//1 85//1 87//1 88//1
f 88//1 87//1 89//1 90//1
f 90//1 89//1 91//1 92//1
f 93//2 94//2 95//2 96//2
f 94//2 97//2 98//2 95//2
f 97//2 99//2 100//2 98//2
f 99//2 101//2 102//2 100//2
f 96//3 95//3 85//3 84//3
f 95//3 98//3 87//3 85//3
f 98//3 100//3 89//3 87//3
f 100//3 102//3 91//3 89//3
f 93//4 83//4 86//4 94//4
f 94//4 86//4 88//4 97//4
f 97//4 88//4 90//4 99//4
f 99//4 90//4 92//4 101//4
f 101//5 92//5 91//5 102//5
f 93//6 96//6 84//6 83//6
f 103//1 104//1 105//1 106//1
f 106//1 105//1 107//1 108//1
f 108//1 107//1 109//1 110//1
f 110//1 109//1 111//1 112//1
f 113//2 114//2 115//2 116//2
f 114//2 117//2 118//2 115//2
f 117//2 119//2 120//2 118//2
f 119//2 121//2 122//2 120//2
f 116//3 115//3 105//3 104//3
f 115//3 118//3 107//3 105//3
f 118//3 120//3 109//3 107//3
f 120//3 122//3 111//3 109//3
f 113//4 103//4 106//4 114//4
f 114//4 106//4 108//4 117//4
f 117//4 108//4 110//4 119//4
f 119//4 110//4 112//4 121//4
f 121//5 112//5 111//5 122//5
f 113//6 116//6 104//6 103//6
usemtl cellB
f 123//2 124//2 125//2 126//2
f 147//2 148//2 149//2 150//2
f 155//1 156//1 157//1 158//1
f 175//1 176//1 177//1 178//1
f 179//1 180//1 181//1 182//1
usemtl cell
f 127//2 128//2 129//2 130//2
f 131//2 132//2 133//2 134//2
f 135//2 136//2 137//2 138//2
f 139//2 140//2 141//2 142//2
f 143//2 144//2 145//2 146//2
f 151//2 152//2 153//2 154//2
f 159//1 160//1 161//1 162//1
f 163//1 164//1 165//1 166//1
f 167//1 168//1 169//1 170//1
f 171//1 172//1 173//1 174//1
f 183//1 184//1 185//1 186//1
usemtl accent
f 187//1 188//1 189//1 190//1
f 191//2 192//2 193//2 194//2
f 194//3 193//3 189//3 188//3
f 191//4 187//4 190//4 192//4
f 192//5 190//5 189//5 193//5
f 191//6 194//6 188//6 187//6
