# Generated by scripts/mesh-gen - do not hand-edit, re-run npm run generate-meshes
# Basis: 1U cubesat (gold-MLI skin, patch antenna)
# Authored real meters 1:1 (1U = 0.1 m); 1x1x1 cm body
# Palette: gold, antenna: patch
# Reached via the size-scaled camera standoff (no visibility oversize); tumbles
# Seed: 20090512
mtllib s1u-b.mtl
o s1u-b
v 0.0470 -0.0470 -0.0500
v 0.0470 0.0470 -0.0500
v 0.0470 0.0470 0.0000
v 0.0470 -0.0470 0.0000
v 0.0470 0.0470 0.0500
v 0.0470 -0.0470 0.0500
v -0.0470 -0.0470 -0.0500
v -0.0470 -0.0470 0.0000
v -0.0470 0.0470 0.0000
v -0.0470 0.0470 -0.0500
v -0.0470 -0.0470 0.0500
v -0.0470 0.0470 0.0500
v -0.0420 -0.0500 -0.0500
v -0.0420 -0.0420 -0.0500
v -0.0420 -0.0420 0.0000
v -0.0420 -0.0500 0.0000
v -0.0420 -0.0420 0.0500
v -0.0420 -0.0500 0.0500
v -0.0500 -0.0500 -0.0500
v -0.0500 -0.0500 0.0000
v -0.0500 -0.0420 0.0000
v -0.0500 -0.0420 -0.0500
v -0.0500 -0.0500 0.0500
v -0.0500 -0.0420 0.0500
v -0.0420 0.0420 -0.0500
v -0.0420 0.0500 -0.0500
v -0.0420 0.0500 0.0000
v -0.0420 0.0420 0.0000
v -0.0420 0.0500 0.0500
v -0.0420 0.0420 0.0500
v -0.0500 0.0420 -0.0500
v -0.0500 0.0420 0.0000
v -0.0500 0.0500 0.0000
v -0.0500 0.0500 -0.0500
v -0.0500 0.0420 0.0500
v -0.0500 0.0500 0.0500
v 0.0500 -0.0500 -0.0500
v 0.0500 -0.0420 -0.0500
v 0.0500 -0.0420 0.0000
v 0.0500 -0.0500 0.0000
v 0.0500 -0.0420 0.0500
v 0.0500 -0.0500 0.0500
v 0.0420 -0.0500 -0.0500
v 0.0420 -0.0500 0.0000
v 0.0420 -0.0420 0.0000
v 0.0420 -0.0420 -0.0500
v 0.0420 -0.0500 0.0500
v 0.0420 -0.0420 0.0500
v 0.0500 0.0420 -0.0500
v 0.0500 0.0500 -0.0500
v 0.0500 0.0500 0.0000
v 0.0500 0.0420 0.0000
v 0.0500 0.0500 0.0500
v 0.0500 0.0420 0.0500
v 0.0420 0.0420 -0.0500
v 0.0420 0.0420 0.0000
v 0.0420 0.0500 0.0000
v 0.0420 0.0500 -0.0500
v 0.0420 0.0420 0.0500
v 0.0420 0.0500 0.0500
v -0.0482 -0.0338 -0.0360
v -0.0482 0.0338 -0.0360
v -0.0482 0.0338 0.0360
v -0.0482 -0.0338 0.0360
v 0.0482 -0.0338 -0.0360
v 0.0482 0.0338 -0.0360
v 0.0482 0.0338 0.0360
v 0.0482 -0.0338 0.0360
v 0.0150 -0.0150 -0.0580
v 0.0150 0.0150 -0.0580
v 0.0150 0.0150 -0.0500
v 0.0150 -0.0150 -0.0500
v -0.0150 -0.0150 -0.0580
v -0.0150 -0.0150 -0.0500
v -0.0150 0.0150 -0.0500
v -0.0150 0.0150 -0.0580
vn 1.0000 0.0000 0.0000
vn -1.0000 0.0000 0.0000
vn 0.0000 1.0000 0.0000
vn 0.0000 -1.0000 0.0000
vn 0.0000 0.0000 1.0000
vn 0.0000 0.0000 -1.0000
usemtl body
f 1//1 2//1 3//1 4//1
f 4//1 3//1 5//1 6//1
f 7//2 8//2 9//2 10//2
f 8//2 11//2 12//2 9//2
f 10//3 9//3 3//3 2//3
f 9//3 12//3 5//3 3//3
f 7//4 1//4 4//4 8//4
f 8//4 4//4 6//4 11//4
f 11//5 6//5 5//5 12//5
f 7//6 10//6 2//6 1//6
usemtl rail
f 13//1 14//1 15//1 16//1
f 16//1 15//1 17//1 18//1
f 19//2 20//2 21//2 22//2
f 20//2 23//2 24//2 21//2
f 22//3 21//3 15//3 14//3
f 21//3 24//3 17//3 15//3
f 19//4 13//4 16//4 20//4
f 20//4 16//4 18//4 23//4
f 23//5 18//5 17//5 24//5
f 19//6 22//6 14//6 13//6
f 25//1 26//1 27//1 28//1
f 28//1 27//1 29//1 30//1
f 31//2 32//2 33//2 34//2
f 32//2 35//2 36//2 33//2
f 34//3 33//3 27//3 26//3
f 33//3 36//3 29//3 27//3
f 31//4 25//4 28//4 32//4
f 32//4 28//4 30//4 35//4
f 35//5 30//5 29//5 36//5
f 31//6 34//6 26//6 25//6
f 37//1 38//1 39//1 40//1
f 40//1 39//1 41//1 42//1
f 43//2 44//2 45//2 46//2
f 44//2 47//2 48//2 45//2
f 46//3 45//3 39//3 38//3
f 45//3 48//3 41//3 39//3
f 43//4 37//4 40//4 44//4
f 44//4 40//4 42//4 47//4
f 47//5 42//5 41//5 48//5
f 43//6 46//6 38//6 37//6
f 49//1 50//1 51//1 52//1
f 52//1 51//1 53//1 54//1
f 55//2 56//2 57//2 58//2
f 56//2 59//2 60//2 57//2
f 58//3 57//3 51//3 50//3
f 57//3 60//3 53//3 51//3
f 55//4 49//4 52//4 56//4
f 56//4 52//4 54//4 59//4
f 59//5 54//5 53//5 60//5
f 55//6 58//6 50//6 49//6
usemtl cellB
f 61//2 62//2 63//2 64//2
usemtl cell
f 65//1 66//1 67//1 68//1
usemtl accent
f 69//1 70//1 71//1 72//1
f 73//2 74//2 75//2 76//2
f 76//3 75//3 71//3 70//3
f 73//4 69//4 72//4 74//4
f 74//5 72//5 71//5 75//5
f 73//6 76//6 70//6 69//6
