# Generated by scripts/mesh-gen - do not hand-edit, re-run npm run generate-meshes
# Basis: 3U cubesat
# Authored real meters 1:1 (1U = 0.1 m); 1x1x3 cm body
# Palette: black, antenna: whip
# Reached via the size-scaled camera standoff (no visibility oversize); tumbles
# Seed: 20130421
mtllib s3u.mtl
o s3u
v 0.0470 -0.0470 -0.1500
v 0.0470 0.0470 -0.1500
v 0.0470 0.0470 -0.0500
v 0.0470 -0.0470 -0.0500
v 0.0470 0.0470 0.0500
v 0.0470 -0.0470 0.0500
v 0.0470 0.0470 0.1500
v 0.0470 -0.0470 0.1500
v -0.0470 -0.0470 -0.1500
v -0.0470 -0.0470 -0.0500
v -0.0470 0.0470 -0.0500
v -0.0470 0.0470 -0.1500
v -0.0470 -0.0470 0.0500
v -0.0470 0.0470 0.0500
v -0.0470 -0.0470 0.1500
v -0.0470 0.0470 0.1500
v -0.0420 -0.0500 -0.1500
v -0.0420 -0.0420 -0.1500
v -0.0420 -0.0420 -0.0500
v -0.0420 -0.0500 -0.0500
v -0.0420 -0.0420 0.0500
v -0.0420 -0.0500 0.0500
v -0.0420 -0.0420 0.1500
v -0.0420 -0.0500 0.1500
v -0.0500 -0.0500 -0.1500
v -0.0500 -0.0500 -0.0500
v -0.0500 -0.0420 -0.0500
v -0.0500 -0.0420 -0.1500
v -0.0500 -0.0500 0.0500
v -0.0500 -0.0420 0.0500
v -0.0500 -0.0500 0.1500
v -0.0500 -0.0420 0.1500
v -0.0420 0.0420 -0.1500
v -0.0420 0.0500 -0.1500
v -0.0420 0.0500 -0.0500
v -0.0420 0.0420 -0.0500
v -0.0420 0.0500 0.0500
v -0.0420 0.0420 0.0500
v -0.0420 0.0500 0.1500
v -0.0420 0.0420 0.1500
v -0.0500 0.0420 -0.1500
v -0.0500 0.0420 -0.0500
v -0.0500 0.0500 -0.0500
v -0.0500 0.0500 -0.1500
v -0.0500 0.0420 0.0500
v -0.0500 0.0500 0.0500
v -0.0500 0.0420 0.1500
v -0.0500 0.0500 0.1500
v 0.0500 -0.0500 -0.1500
v 0.0500 -0.0420 -0.1500
v 0.0500 -0.0420 -0.0500
v 0.0500 -0.0500 -0.0500
v 0.0500 -0.0420 0.0500
v 0.0500 -0.0500 0.0500
v 0.0500 -0.0420 0.1500
v 0.0500 -0.0500 0.1500
v 0.0420 -0.0500 -0.1500
v 0.0420 -0.0500 -0.0500
v 0.0420 -0.0420 -0.0500
v 0.0420 -0.0420 -0.1500
v 0.0420 -0.0500 0.0500
v 0.0420 -0.0420 0.0500
v 0.0420 -0.0500 0.1500
v 0.0420 -0.0420 0.1500
v 0.0500 0.0420 -0.1500
v 0.0500 0.0500 -0.1500
v 0.0500 0.0500 -0.0500
v 0.0500 0.0420 -0.0500
v 0.0500 0.0500 0.0500
v 0.0500 0.0420 0.0500
v 0.0500 0.0500 0.1500
v 0.0500 0.0420 0.1500
v 0.0420 0.0420 -0.1500
v 0.0420 0.0420 -0.0500
v 0.0420 0.0500 -0.0500
v 0.0420 0.0500 -0.1500
v 0.0420 0.0420 0.0500
v 0.0420 0.0500 0.0500
v 0.0420 0.0420 0.1500
v 0.0420 0.0500 0.1500
v -0.0482 -0.0338 -0.1360
v -0.0482 0.0338 -0.1360
v -0.0482 0.0338 -0.0640
v -0.0482 -0.0338 -0.0640
v -0.0482 -0.0338 -0.0360
v -0.0482 0.0338 -0.0360
v -0.0482 0.0338 0.0360
v -0.0482 -0.0338 0.0360
v -0.0482 -0.0338 0.0640
v -0.0482 0.0338 0.0640
v -0.0482 0.0338 0.1360
v -0.0482 -0.0338 0.1360
v 0.0482 -0.0338 -0.1360
v 0.0482 0.0338 -0.1360
v 0.0482 0.0338 -0.0640
v 0.0482 -0.0338 -0.0640
v 0.0482 -0.0338 -0.0360
v 0.0482 0.0338 -0.0360
v 0.0482 0.0338 0.0360
v 0.0482 -0.0338 0.0360
v 0.0482 -0.0338 0.0640
v 0.0482 0.0338 0.0640
v 0.0482 0.0338 0.1360
v 0.0482 -0.0338 0.1360
v 0.0268 0.0283 -0.1500
v 0.0268 0.0283 -0.3483
v 0.0275 0.0296 -0.1500
v 0.0275 0.0296 -0.3483
v 0.0290 0.0296 -0.1500
v 0.0290 0.0296 -0.3483
v 0.0298 0.0283 -0.1500
v 0.0298 0.0283 -0.3483
v 0.0290 0.0270 -0.1500
v 0.0290 0.0270 -0.3483
v 0.0275 0.0270 -0.1500
v 0.0275 0.0270 -0.3483
v 0.0283 0.0283 -0.3483
vn 1.0000 0.0000 0.0000
vn -1.0000 0.0000 0.0000
vn 0.0000 1.0000 0.0000
vn 0.0000 -1.0000 0.0000
vn 0.0000 0.0000 1.0000
vn 0.0000 0.0000 -1.0000
vn -0.5000 0.8660 0.0000
vn 0.5000 0.8660 0.0000
vn 0.5000 -0.8660 0.0000
vn -0.5000 -0.8660 0.0000
usemtl body
f 1//1 2//1 3//1 4//1
f 4//1 3//1 5//1 6//1
f 6//1 5//1 7//1 8//1
f 9//2 10//2 11//2 12//2
f 10//2 13//2 14//2 11//2
f 13//2 15//2 16//2 14//2
f 12//3 11//3 3//3 2//3
f 11//3 14//3 5//3 3//3
f 14//3 16//3 7//3 5//3
f 9//4 1//4 4//4 10//4
f 10//4 4//4 6//4 13//4
f 13//4 6//4 8//4 15//4
f 15//5 8//5 7//5 16//5
f 9//6 12//6 2//6 1//6
usemtl rail
f 17//1 18//1 19//1 20//1
f 20//1 19//1 21//1 22//1
f 22//1 21//1 23//1 24//1
f 25//2 26//2 27//2 28//2
f 26//2 29//2 30//2 27//2
f 29//2 31//2 32//2 30//2
f 28//3 27//3 19//3 18//3
f 27//3 30//3 21//3 19//3
f 30//3 32//3 23//3 21//3
f 25//4 17//4 20//4 26//4
f 26//4 20//4 22//4 29//4
f 29//4 22//4 24//4 31//4
f 31//5 24//5 23//5 32//5
f 25//6 28//6 18//6 17//6
f 33//1 34//1 35//1 36//1
f 36//1 35//1 37//1 38//1
f 38//1 37//1 39//1 40//1
f 41//2 42//2 43//2 44//2
f 42//2 45//2 46//2 43//2
f 45//2 47//2 48//2 46//2
f 44//3 43//3 35//3 34//3
f 43//3 46//3 37//3 35//3
f 46//3 48//3 39//3 37//3
f 41//4 33//4 36//4 42//4
f 42//4 36//4 38//4 45//4
f 45//4 38//4 40//4 47//4
f 47//5 40//5 39//5 48//5
f 41//6 44//6 34//6 33//6
f 49//1 50//1 51//1 52//1
f 52//1 51//1 53//1 54//1
f 54//1 53//1 55//1 56//1
f 57//2 58//2 59//2 60//2
f 58//2 61//2 62//2 59//2
f 61//2 63//2 64//2 62//2
f 60//3 59//3 51//3 50//3
f 59//3 62//3 53//3 51//3
f 62//3 64//3 55//3 53//3
f 57//4 49//4 52//4 58//4
f 58//4 52//4 54//4 61//4
f 61//4 54//4 56//4 63//4
f 63//5 56//5 55//5 64//5
f 57//6 60//6 50//6 49//6
f 65//1 66//1 67//1 68//1
f 68//1 67//1 69//1 70//1
f 70//1 69//1 71//1 72//1
f 73//2 74//2 75//2 76//2
f 74//2 77//2 78//2 75//2
f 77//2 79//2 80//2 78//2
f 76//3 75//3 67//3 66//3
f 75//3 78//3 69//3 67//3
f 78//3 80//3 71//3 69//3
f 73//4 65//4 68//4 74//4
f 74//4 68//4 70//4 77//4
f 77//4 70//4 72//4 79//4
f 79//5 72//5 71//5 80//5
f 73//6 76//6 66//6 65//6
usemtl cell
f 81//2 82//2 83//2 84//2
f 89//2 90//2 91//2 92//2
f 93//1 94//1 95//1 96//1
f 101//1 102//1 103//1 104//1
usemtl cellB
f 85//2 86//2 87//2 88//2
f 97//1 98//1 99//1 100//1
usemtl accent
f 105//2 107//7 108//7 106//2
f 107//7 109//8 110//8 108//7
f 109//8 111//1 112//1 110//8
f 111//1 113//9 114//9 112//1
f 113//9 115//10 116//10 114//9
f 115//10 105//2 106//2 116//10
f 117//6 108//6 106//6
f 117//6 110//6 108//6
f 117//6 112//6 110//6
f 117//6 114//6 112//6
f 117//6 116//6 114//6
f 117//6 106//6 116//6
