# Generated by scripts/mesh-gen - do not hand-edit, re-run npm run generate-meshes
# Basis: 8U cubesat
# Authored real meters 1:1 (1U = 0.1 m); 2x2x2 cm body
# Palette: gold, antenna: patch
# Reached via the size-scaled camera standoff (no visibility oversize); tumbles
# Seed: 20200903
mtllib s8u.mtl
o s8u
v 0.0970 -0.0970 -0.1000
v 0.0970 0.0000 -0.1000
v 0.0970 0.0000 0.0000
v 0.0970 -0.0970 0.0000
v 0.0970 0.0000 0.1000
v 0.0970 -0.0970 0.1000
v 0.0970 0.0970 -0.1000
v 0.0970 0.0970 0.0000
v 0.0970 0.0970 0.1000
v -0.0970 -0.0970 -0.1000
v -0.0970 -0.0970 0.0000
v -0.0970 0.0000 0.0000
v -0.0970 0.0000 -0.1000
v -0.0970 0.0970 0.0000
v -0.0970 0.0970 -0.1000
v -0.0970 -0.0970 0.1000
v -0.0970 0.0000 0.1000
v -0.0970 0.0970 0.1000
v 0.0000 0.0970 0.0000
v 0.0000 0.0970 -0.1000
v 0.0000 0.0970 0.1000
v 0.0000 -0.0970 -0.1000
v 0.0000 -0.0970 0.0000
v 0.0000 -0.0970 0.1000
v 0.0000 0.0000 0.1000
v 0.0000 0.0000 -0.1000
v -0.0920 -0.1000 -0.1000
v -0.0920 -0.0920 -0.1000
v -0.0920 -0.0920 0.0000
v -0.0920 -0.1000 0.0000
v -0.0920 -0.0920 0.1000
v -0.0920 -0.1000 0.1000
v -0.1000 -0.1000 -0.1000
v -0.1000 -0.1000 0.0000
v -0.1000 -0.0920 0.0000
v -0.1000 -0.0920 -0.1000
v -0.1000 -0.1000 0.1000
v -0.1000 -0.0920 0.1000
v -0.0920 0.0920 -0.1000
v -0.0920 0.1000 -0.1000
v -0.0920 0.1000 0.0000
v -0.0920 0.0920 0.0000
v -0.0920 0.1000 0.1000
v -0.0920 0.0920 0.1000
v -0.1000 0.0920 -0.1000
v -0.1000 0.0920 0.0000
v -0.1000 0.1000 0.0000
v -0.1000 0.1000 -0.1000
v -0.1000 0.0920 0.1000
v -0.1000 0.1000 0.1000
v 0.1000 -0.1000 -0.1000
v 0.1000 -0.0920 -0.1000
v 0.1000 -0.0920 0.0000
v 0.1000 -0.1000 0.0000
v 0.1000 -0.0920 0.1000
v 0.1000 -0.1000 0.1000
v 0.0920 -0.1000 -0.1000
v 0.0920 -0.1000 0.0000
v 0.0920 -0.0920 0.0000
v 0.0920 -0.0920 -0.1000
v 0.0920 -0.1000 0.1000
v 0.0920 -0.0920 0.1000
v 0.1000 0.0920 -0.1000
v 0.1000 0.1000 -0.1000
v 0.1000 0.1000 0.0000
v 0.1000 0.0920 0.0000
v 0.1000 0.1000 0.1000
v 0.1000 0.0920 0.1000
v 0.0920 0.0920 -0.1000
v 0.0920 0.0920 0.0000
v 0.0920 0.1000 0.0000
v 0.0920 0.1000 -0.1000
v 0.0920 0.0920 0.1000
v 0.0920 0.1000 0.1000
v -0.0982 -0.0834 -0.0860
v -0.0982 -0.0136 -0.0860
v -0.0982 -0.0136 -0.0140
v -0.0982 -0.0834 -0.0140
v -0.0982 -0.0834 0.0140
v -0.0982 -0.0136 0.0140
v -0.0982 -0.0136 0.0860
v -0.0982 -0.0834 0.0860
v -0.0982 0.0136 -0.0860
v -0.0982 0.0834 -0.0860
v -0.0982 0.0834 -0.0140
v -0.0982 0.0136 -0.0140
v -0.0982 0.0136 0.0140
v -0.0982 0.0834 0.0140
v -0.0982 0.0834 0.0860
v -0.0982 0.0136 0.0860
v 0.0982 -0.0834 -0.0860
v 0.0982 -0.0136 -0.0860
v 0.0982 -0.0136 -0.0140
v 0.0982 -0.0834 -0.0140
v 0.0982 -0.0834 0.0140
v 0.0982 -0.0136 0.0140
v 0.0982 -0.0136 0.0860
v 0.0982 -0.0834 0.0860
v 0.0982 0.0136 -0.0860
v 0.0982 0.0834 -0.0860
v 0.0982 0.0834 -0.0140
v 0.0982 0.0136 -0.0140
v 0.0982 0.0136 0.0140
v 0.0982 0.0834 0.0140
v 0.0982 0.0834 0.0860
v 0.0982 0.0136 0.0860
v 0.0150 -0.0150 -0.1080
v 0.0150 0.0150 -0.1080
v 0.0150 0.0150 -0.1000
v 0.0150 -0.0150 -0.1000
v -0.0150 -0.0150 -0.1080
v -0.0150 -0.0150 -0.1000
v -0.0150 0.0150 -0.1000
v -0.0150 0.0150 -0.1080
vn 1.0000 0.0000 0.0000
vn -1.0000 0.0000 0.0000
vn 0.0000 1.0000 0.0000
vn 0.0000 -1.0000 0.0000
vn 0.0000 0.0000 1.0000
vn 0.0000 0.0000 -1.0000
usemtl body
f 1//1 2//1 3//1 4//1
f 4//1 3//1 5//1 6//1
f 2//1 7//1 8//1 3//1
f 3//1 8//1 9//1 5//1
f 10//2 11//2 12//2 13//2
f 13//2 12//2 14//2 15//2
f 11//2 16//2 17//2 12//2
f 12//2 17//2 18//2 14//2
f 15//3 14//3 19//3 20//3
f 20//3 19//3 8//3 7//3
f 14//3 18//3 21//3 19//3
f 19//3 21//3 9//3 8//3
f 10//4 22//4 23//4 11//4
f 11//4 23//4 24//4 16//4
f 22//4 1//4 4//4 23//4
f 23//4 4//4 6//4 24//4
f 16//5 24//5 25//5 17//5
f 17//5 25//5 21//5 18//5
f 24//5 6//5 5//5 25//5
f 25//5 5//5 9//5 21//5
f 10//6 13//6 26//6 22//6
f 22//6 26//6 2//6 1//6
f 13//6 15//6 20//6 26//6
f 26//6 20//6 7//6 2//6
usemtl rail
f 27//1 28//1 29//1 30//1
f 30//1 29//1 31//1 32//1
f 33//2 34//2 35//2 36//2
f 34//2 37//2 38//2 35//2
f 36//3 35//3 29//3 28//3
f 35//3 38//3 31//3 29//3
f 33//4 27//4 30//4 34//4
f 34//4 30//4 32//4 37//4
f 37//5 32//5 31//5 38//5
f 33//6 36//6 28//6 27//6
f 39//1 40//1 41//1 42//1
f 42//1 41//1 43//1 44//1
f 45//2 46//2 47//2 48//2
f 46//2 49//2 50//2 47//2
f 48//3 47//3 41//3 40//3
f 47//3 50//3 43//3 41//3
f 45//4 39//4 42//4 46//4
f 46//4 42//4 44//4 49//4
f 49//5 44//5 43//5 50//5
f 45//6 48//6 40//6 39//6
f 51//1 52//1 53//1 54//1
f 54//1 53//1 55//1 56//1
f 57//2 58//2 59//2 60//2
f 58//2 61//2 62//2 59//2
f 60//3 59//3 53//3 52//3
f 59//3 62//3 55//3 53//3
f 57//4 51//4 54//4 58//4
f 58//4 54//4 56//4 61//4
f 61//5 56//5 55//5 62//5
f 57//6 60//6 52//6 51//6
f 63//1 64//1 65//1 66//1
f 66//1 65//1 67//1 68//1
f 69//2 70//2 71//2 72//2
f 70//2 73//2 74//2 71//2
f 72//3 71//3 65//3 64//3
f 71//3 74//3 67//3 65//3
f 69//4 63//4 66//4 70//4
f 70//4 66//4 68//4 73//4
f 73//5 68//5 67//5 74//5
f 69//6 72//6 64//6 63//6
usemtl cellB
f 75//2 76//2 77//2 78//2
f 103//1 104//1 105//1 106//1
usemtl cell
f 79//2 80//2 81//2 82//2
f 83//2 84//2 85//2 86//2
f 87//2 88//2 89//2 90//2
f 91//1 92//1 93//1 94//1
f 95//1 96//1 97//1 98//1
f 99//1 100//1 101//1 102//1
usemtl accent
f 107//1 108//1 109//1 110//1
f 111//2 112//2 113//2 114//2
f 114//3 113//3 109//3 108//3
f 111//4 107//4 110//4 112//4
f 112//5 110//5 109//5 113//5
f 111//6 114//6 108//6 107//6
