<svg xmlns="http://www.w3.org/2000/svg" viewBox="0 0 128 128">
  <g id="custom" fill-rule="evenodd">
      <path d="M59,118 C61.7271111,118 64.0608889,117.056 66.0013333,115.168 C67.9417778,113.28 68.912,110.92 68.912,108.088 C68.912,106.934222 68.676,105.728 68.204,104.469333 C67.732,103.210667 67.1288889,102.161778 66.3946667,101.322667 C64.7164444,99.4346667 63.8773333,97.2844444 63.8773333,94.872 C63.8773333,92.1448889 64.8475556,89.8373333 66.788,87.9493333 C68.7284444,86.0613333 71.0622222,85.1173333 73.7893333,85.1173333 L73.7893333,85.1173333 L85.1173333,85.1173333 C91.096,85.1173333 96.6026667,83.6751111 101.637333,80.7906667 C106.672,77.9062222 110.657778,73.9466667 113.594667,68.912 C116.531556,63.8773333 118,58.4231111 118,52.5493333 C118,43.0044444 115.325333,34.1937778 109.976,26.1173333 C104.731556,18.1457778 97.6515556,11.8524444 88.736,7.23733333 C79.6106667,2.41244444 69.6986667,0 59,0 C48.3013333,0 38.3893333,2.67466667 29.264,8.024 C20.3484444,13.2684444 13.2684444,20.3484444 8.024,29.264 C2.67466667,38.3893333 0,48.3013333 0,59 C0,69.6986667 2.67466667,79.6106667 8.024,88.736 C13.2684444,97.6515556 20.3484444,104.731556 29.264,109.976 C38.3893333,115.325333 48.3013333,118 59,118 Z M75.3626667,32.8826667 C72.5306667,32.8826667 70.1706667,31.9124444 68.2826667,29.972 C66.3946667,28.0315556 65.4506667,25.6977778 65.4506667,22.9706667 C65.4506667,20.2435556 66.4208889,17.936 68.3613333,16.048 C70.3017778,14.16 72.6355556,13.216 75.3626667,13.216 C78.0897778,13.216 80.3973333,14.1337778 82.2853333,15.9693333 C84.1733333,17.8048889 85.1173333,20.1386667 85.1173333,22.9706667 C85.1173333,25.8026667 84.1733333,28.1626667 82.2853333,30.0506667 C80.3973333,31.9386667 78.0897778,32.8826667 75.3626667,32.8826667 Z M42.7946667,32.8826667 C39.9626667,32.8826667 37.6026667,31.9124444 35.7146667,29.972 C33.8266667,28.0315556 32.8826667,25.6977778 32.8826667,22.9706667 C32.8826667,20.2435556 33.8528889,17.936 35.7933333,16.048 C37.7337778,14.16 40.0675556,13.216 42.7946667,13.216 C45.5217778,13.216 47.8293333,14.1337778 49.7173333,15.9693333 C51.6053333,17.8048889 52.5493333,20.1386667 52.5493333,22.9706667 C52.5493333,25.8026667 51.6053333,28.1626667 49.7173333,30.0506667 C47.8293333,31.9386667 45.5217778,32.8826667 42.7946667,32.8826667 Z M95.0293333,59 C92.1973333,59 89.8373333,58.0297778 87.9493333,56.0893333 C86.0613333,54.1488889 85.1173333,51.8151111 85.1173333,49.088 C85.1173333,46.3608889 86.0875556,44.0533333 88.028,42.1653333 C89.9684444,40.2773333 92.3022222,39.3333333 95.0293333,39.3333333 C97.7564444,39.3333333 100.064,40.2511111 101.952,42.0866667 C103.84,43.9222222 104.784,46.256 104.784,49.088 C104.784,51.92 103.84,54.28 101.952,56.168 C100.064,58.056 97.7564444,59 95.0293333,59 Z M23.128,59 C20.296,59 17.936,58.0297778 16.048,56.0893333 C14.16,54.1488889 13.216,51.8151111 13.216,49.088 C13.216,46.3608889 14.1862222,44.0533333 16.1266667,42.1653333 C18.0671111,40.2773333 20.4008889,39.3333333 23.128,39.3333333 C25.8551111,39.3333333 28.1626667,40.2511111 30.0506667,42.0866667 C31.9386667,43.9222222 32.8826667,46.256 32.8826667,49.088 C32.8826667,51.92 31.9386667,54.28 30.0506667,56.168 C28.1626667,58.056 25.8551111,59 23.128,59 Z" fill-rule="nonzero"></path>
    </g>
</svg>
