<svg width="512" height="342" viewBox="0 0 512 342" fill="none" xmlns="http://www.w3.org/2000/svg">
<rect width="512" height="341.333" fill="#0073CF"/>
<path d="M202.585 279.486V187.159C181.765 180.808 162.254 170.77 144.98 157.524C144.138 156.881 143.44 156.069 142.931 155.14C142.422 154.21 142.114 153.184 142.026 152.128C141.938 151.072 142.073 150.01 142.421 149.009C142.77 148.008 143.324 147.092 144.049 146.318C144.774 145.545 145.652 144.933 146.628 144.52C147.604 144.108 148.656 143.905 149.716 143.924C150.775 143.943 151.819 144.185 152.779 144.632C153.74 145.08 154.596 145.724 155.292 146.523C170.482 163.868 189.91 176.978 211.678 184.574V279.486H202.585ZM214.709 279.486V182.409C189.11 173.943 166.767 157.745 150.758 136.049C149.991 135.018 149.451 133.835 149.174 132.58C148.897 131.324 148.889 130.024 149.151 128.765C149.414 127.506 149.94 126.317 150.696 125.277C151.452 124.236 152.419 123.368 153.535 122.729C154.651 122.09 155.89 121.695 157.17 121.57C158.449 121.445 159.741 121.593 160.96 122.004C162.178 122.415 163.296 123.08 164.238 123.954C165.181 124.829 165.927 125.894 166.428 127.078C171.737 139.503 179.582 150.681 189.463 159.897C199.343 169.113 211.039 176.163 223.803 180.596V279.486H214.709ZM226.834 279.486V178.417C210.962 173.306 196.737 164.064 185.617 151.639C174.498 139.214 166.885 124.053 163.559 107.714C163.188 105.875 163.217 103.978 163.646 102.151C164.075 100.325 164.893 98.6126 166.045 97.1316C167.197 95.6506 168.654 94.4357 170.319 93.57C171.983 92.7043 173.815 92.2081 175.689 92.1155C177.563 92.0229 179.434 92.336 181.176 93.0334C182.918 93.7308 184.488 94.796 185.78 96.1563C187.072 97.5165 188.055 99.1397 188.662 100.915C189.269 102.69 189.486 104.575 189.297 106.442C187.73 121.769 191.519 137.166 200.02 150.016C208.52 162.866 221.208 172.375 235.927 176.929V279.486H226.834ZM238.958 279.486V174.656C227.913 171.659 217.88 165.739 209.915 157.52C201.951 149.301 196.349 139.086 193.701 127.952C191.053 116.818 191.456 105.175 194.867 94.2504C198.278 83.3257 204.572 73.5228 213.086 65.8738C214.646 64.4738 216.481 63.4129 218.472 62.7581C220.464 62.1033 222.57 61.8689 224.657 62.0697C226.744 62.2704 228.767 62.9021 230.597 63.9246C232.427 64.9471 234.026 66.3383 235.291 68.0102C236.556 69.682 237.461 71.5982 237.947 73.6376C238.434 75.6769 238.492 77.7951 238.118 79.8581C237.744 81.9211 236.947 83.8841 235.775 85.623C234.604 87.3619 233.084 88.8388 231.313 89.9603C223.539 94.881 217.442 102.044 213.825 110.504C210.208 118.963 209.243 128.32 211.056 137.34C212.87 146.359 217.377 154.617 223.982 161.021C230.588 167.425 238.98 171.674 248.052 173.208V279.486H238.958Z" fill="white"/>
<path d="M308.674 279.486V187.159C329.494 180.808 349.005 170.77 366.278 157.524C367.121 156.881 367.819 156.069 368.328 155.14C368.837 154.21 369.145 153.184 369.233 152.128C369.321 151.072 369.186 150.01 368.837 149.009C368.489 148.008 367.935 147.092 367.21 146.318C366.485 145.545 365.607 144.933 364.63 144.52C363.654 144.108 362.603 143.905 361.543 143.924C360.484 143.943 359.44 144.185 358.48 144.632C357.519 145.08 356.663 145.724 355.967 146.523C340.777 163.868 321.349 176.978 299.58 184.574V279.486H308.674ZM296.549 279.486V182.409C322.148 173.943 344.492 157.745 360.5 136.049C361.268 135.018 361.808 133.835 362.085 132.58C362.362 131.324 362.37 130.024 362.107 128.765C361.845 127.506 361.319 126.317 360.563 125.277C359.807 124.236 358.84 123.368 357.724 122.729C356.608 122.09 355.369 121.695 354.089 121.57C352.809 121.445 351.518 121.593 350.299 122.004C349.081 122.415 347.963 123.08 347.021 123.954C346.078 124.829 345.332 125.894 344.831 127.078C339.522 139.503 331.676 150.681 321.796 159.897C311.916 169.113 300.219 176.163 287.456 180.596V279.486H296.549ZM284.425 279.486V178.417C300.296 173.306 314.522 164.064 325.642 151.639C336.761 139.214 344.374 124.053 347.699 107.714C348.071 105.875 348.042 103.978 347.613 102.151C347.184 100.325 346.366 98.6126 345.214 97.1316C344.062 95.6506 342.604 94.4357 340.94 93.57C339.276 92.7043 337.444 92.2081 335.57 92.1155C333.696 92.0229 331.825 92.336 330.083 93.0334C328.341 93.7308 326.771 94.796 325.479 96.1563C324.187 97.5165 323.204 99.1397 322.597 100.915C321.99 102.69 321.773 104.575 321.962 106.442C323.529 121.769 319.74 137.166 311.239 150.016C302.738 162.866 290.05 172.375 275.332 176.929V279.486H284.425ZM272.3 279.486V174.656C283.346 171.659 293.379 165.739 301.344 157.52C309.308 149.301 314.91 139.086 317.558 127.952C320.206 116.818 319.803 105.175 316.392 94.2504C312.98 83.3257 306.687 73.5228 298.173 65.8738C296.612 64.4738 294.778 63.4129 292.786 62.7581C290.795 62.1033 288.689 61.8689 286.602 62.0697C284.515 62.2704 282.492 62.9021 280.662 63.9246C278.831 64.9471 277.233 66.3383 275.968 68.0102C274.703 69.682 273.798 71.5982 273.312 73.6376C272.825 75.6769 272.767 77.7951 273.14 79.8581C273.514 81.9211 274.312 83.8841 275.484 85.623C276.655 87.3619 278.174 88.8388 279.946 89.9603C287.719 94.881 293.817 102.044 297.434 110.504C301.051 118.963 302.016 128.32 300.202 137.34C298.389 146.359 293.882 154.617 287.276 161.021C280.671 167.425 272.278 171.674 263.207 173.208V279.486H272.3Z" fill="white"/>
<path d="M251.083 173.614C254.106 173.917 257.153 173.917 260.176 173.614V279.486H251.083V173.614Z" fill="white"/>
<path d="M255.629 146.564C265.674 146.564 273.816 138.421 273.816 128.377C273.816 118.333 265.674 110.19 255.629 110.19C245.585 110.19 237.443 118.333 237.443 128.377C237.443 138.421 245.585 146.564 255.629 146.564Z" fill="#FECB00"/>
</svg>
