<svg width="512" height="342" viewBox="0 0 512 342" fill="none" xmlns="http://www.w3.org/2000/svg">
<rect width="512" height="341.333" fill="white"/>
<g clip-path="url(#clip0_2_5)">
<path d="M153.183 164.605H181.804C181.804 164.605 182.936 160.3 177.839 153.846C167.771 143.436 156.462 150.34 156.462 150.34C150.916 153.282 143.794 165.51 147.972 183.055C153.183 200.605 173.204 204.216 185.644 200.143C193.877 197.447 198.625 191.506 200.909 187.779C201.644 184.763 202.168 181.748 202.498 178.75H153.183V164.605Z" fill="#003247"/>
<path d="M128.167 100.103C97.9653 101.711 71.0205 122.625 63.1954 153.501C53.5609 191.505 76.535 230.161 114.513 239.803C141.496 246.652 168.857 237.033 185.856 217.26C178.382 219.048 169.634 219.167 160.141 215.894C128.347 204.908 122.52 175.468 130.443 154.868C138.354 134.265 166.057 124.662 185.287 138.472C201.769 150.3 202.674 171.373 202.582 177.183C205.616 143.091 183.667 110.847 149.445 102.153C142.324 100.346 135.136 99.7325 128.167 100.103ZM93.5761 162.724C98.6182 162.724 102.679 166.79 102.679 171.832C102.679 176.877 98.6182 180.94 93.5761 180.94C88.5375 180.94 84.3595 176.877 84.3595 171.832C84.3595 166.79 88.5375 162.724 93.5761 162.724Z" fill="#003247"/>
<path d="M414.678 132.097C409.031 132.319 403.261 133.249 398.521 135.057C388.587 139.124 383.615 148.798 383.615 158.966H401.593C401.14 153.772 405.038 149.05 408.648 147.695C410.233 147.022 412.417 146.556 414.678 146.556C419.191 146.333 423.806 147.488 426.967 150.427C429.003 152.457 429.577 155.118 428.902 158.055C427.767 162.8 422.581 164.434 414.678 165.57C411.967 166.018 408.84 166.258 405.462 166.708C395.982 167.838 382.447 172.517 379.291 186.291C378.162 191.717 379.023 201.719 387.37 208.265C393.015 212.562 400.962 214.531 407.055 214.3C409.766 214.3 412.531 214.07 414.792 213.616C421.104 212.264 425.99 209.367 430.722 205.533C430.95 206.662 432.097 210.893 432.998 212.023H452C449.072 206.152 449.497 197.636 449.497 192.895V168.53C449.275 162.206 449.258 155.846 447.904 149.972C446.543 144.096 441.404 134.361 424.691 132.324C421.534 132.102 418.062 132.097 414.678 132.097ZM430.039 172.743C430.039 174.55 430.258 187.444 429.129 189.935C427.093 195.351 421.447 198.49 414.678 199.157C413.331 199.379 411.809 199.607 410.241 199.385C405.725 199.385 401.923 197.195 400.341 193.806C398.533 190.417 399.662 186.962 400.797 184.925C403.504 180.184 408.235 179.332 414.792 177.98C416.816 177.758 419.029 177.29 421.505 176.614C426.475 175.484 427.556 174.55 430.039 172.743Z" fill="#003247"/>
<path d="M282.639 143.181C274.736 134.368 262.543 130.524 250.128 132.331C238.84 134.141 230.714 140.466 225.069 149.502C222.132 154.698 220.103 160.573 219.196 166.221C217.39 180.004 221.229 203.042 245.39 212.079C256.673 216.376 270.901 214.792 281.736 206.885C287.83 202.366 293.934 192.199 294.379 185.875H274.288C273.607 188.588 272.03 192.199 268.416 194.912C260.285 200.783 251.029 196.949 246.966 194.005C240.873 189.486 238.84 182.032 238.615 171.415C238.615 165.771 240.193 156.735 244.937 152.439C250.128 148.145 256.45 147.02 262.543 148.824C269.097 150.86 274.061 158.087 273.607 164.636H245.163V178.875H294.379C294.832 173.675 293.934 168.708 293.027 163.961C291.448 156.961 287.158 148.372 282.639 143.181Z" fill="#003247"/>
<path d="M340.892 164.189C334.793 163.06 327.797 162.832 324.189 158.771C322.606 156.961 322.606 153.798 323.508 151.989C325.993 147.02 332.091 145.437 337.958 145.885C343.15 145.885 347.893 148.6 349.924 153.119C350.83 154.928 351.058 156.961 351.278 158.993H367.981C368.209 152.439 365.501 145.663 361.439 141.369C356.244 135.95 344.051 130.302 328.932 132.561C320.796 133.687 309.962 138.437 306.344 149.048C303.182 158.993 306.344 168.025 312.44 172.771C320.12 178.652 334.571 180.227 340.442 181.588C347.216 182.94 350.599 183.847 351.728 187.681C352.409 190.171 352.182 193.107 350.599 195.144C346.309 200.783 337.505 201.237 330.509 199.2C324.638 197.403 322.153 192.653 321.024 186.32H303.414C303.414 192.199 305.218 196.273 308.157 201.014C311.992 207.116 318.766 212.079 328.701 213.663C339.535 215.477 350.599 214.116 357.15 210.505C360.985 208.237 363.924 205.31 366.408 202.144C370.019 197.625 373.182 186.32 367.534 176.384C362.57 167.801 351.278 165.997 340.892 164.189Z" fill="#003247"/>
</g>
<defs>
<clipPath id="clip0_2_5">
<rect width="391" height="142" fill="white" transform="translate(61 100)"/>
</clipPath>
</defs>
</svg>
