<svg xmlns="http://www.w3.org/2000/svg" xmlns:xlink="http://www.w3.org/1999/xlink" viewBox="0 0 1023.49 381.79"><defs><radialGradient id="radial-gradient" cx="-15255.97" cy="8846.13" fx="-15267.120408988836" r="174.94" gradientTransform="matrix(0.76, 0.03, 0.05, -1.12, 11535.88, 10522.65)" gradientUnits="userSpaceOnUse"><stop offset="0.1" stop-color="#ffea00"/><stop offset="0.17" stop-color="#ffde00"/><stop offset="0.28" stop-color="#ffbf00"/><stop offset="0.43" stop-color="#ff8e00"/><stop offset="0.77" stop-color="#ff272d"/><stop offset="0.87" stop-color="#e0255a"/><stop offset="0.95" stop-color="#cc2477"/><stop offset="1" stop-color="#c42482"/></radialGradient><radialGradient id="radial-gradient-2" cx="-7884.44" cy="8442.2" r="306.99" gradientTransform="matrix(1.23, 0, 0, -1.23, 9918.06, 10417.47)" gradientUnits="userSpaceOnUse"><stop offset="0" stop-color="#00ccda"/><stop offset="0.22" stop-color="#0083ff"/><stop offset="0.26" stop-color="#007af9"/><stop offset="0.33" stop-color="#0060e8"/><stop offset="0.33" stop-color="#005fe7"/><stop offset="0.44" stop-color="#2639ad"/><stop offset="0.52" stop-color="#401e84"/><stop offset="0.57" stop-color="#4a1475"/></radialGradient><linearGradient id="linear-gradient" x1="209.78" y1="101.08" x2="135.5" y2="344.05" gradientTransform="matrix(1, 0, 0, -1, 0, 384)" gradientUnits="userSpaceOnUse"><stop offset="0" stop-color="#000f43" stop-opacity="0.4"/><stop offset="0.48" stop-color="#001962" stop-opacity="0.17"/><stop offset="1" stop-color="#002079" stop-opacity="0"/></linearGradient><radialGradient id="radial-gradient-3" cx="-8792.46" cy="7205.23" r="103.55" gradientTransform="matrix(1.22, 0.12, 0.12, -1.22, 10221.27, 10107.74)" gradientUnits="userSpaceOnUse"><stop offset="0" stop-color="#ffea00"/><stop offset="0.5" stop-color="#ff272d"/><stop offset="1" stop-color="#c42482"/></radialGradient><radialGradient id="radial-gradient-4" cx="-8801.82" cy="7304.52" r="172.92" gradientTransform="matrix(1.22, 0.12, 0.12, -1.22, 10221.27, 10107.74)" gradientUnits="userSpaceOnUse"><stop offset="0" stop-color="#ffe900"/><stop offset="0.16" stop-color="#ffaf0e"/><stop offset="0.32" stop-color="#ff7a1b"/><stop offset="0.47" stop-color="#ff4e26"/><stop offset="0.62" stop-color="#ff2c2e"/><stop offset="0.76" stop-color="#ff1434"/><stop offset="0.89" stop-color="#ff0538"/><stop offset="1" stop-color="#ff0039"/></radialGradient><radialGradient id="radial-gradient-5" cx="-8777.37" cy="7144.23" r="158.67" gradientTransform="matrix(1.22, 0.12, 0.12, -1.22, 10221.27, 10107.74)" gradientUnits="userSpaceOnUse"><stop offset="0" stop-color="#ff272d"/><stop offset="0.5" stop-color="#c42482"/><stop offset="0.99" stop-color="#620700"/></radialGradient><radialGradient id="radial-gradient-6" cx="277.49" cy="231.11" fx="288.34347563993333" r="303.48" gradientTransform="matrix(1, 0, 0, -1, 0, 384)" gradientUnits="userSpaceOnUse"><stop offset="0.16" stop-color="#ffea00"/><stop offset="0.23" stop-color="#ffde00"/><stop offset="0.37" stop-color="#ffbf00"/><stop offset="0.54" stop-color="#ff8e00"/><stop offset="0.76" stop-color="#ff272d"/><stop offset="0.8" stop-color="#f92433"/><stop offset="0.84" stop-color="#e91c45"/><stop offset="0.89" stop-color="#cf0e62"/><stop offset="0.94" stop-color="#b5007f"/></radialGradient><radialGradient id="radial-gradient-7" cx="260.09" cy="371.86" r="345.87" gradientTransform="matrix(1, 0, 0, -1, 0, 384)" gradientUnits="userSpaceOnUse"><stop offset="0.28" stop-color="#ffea00"/><stop offset="0.4" stop-color="#fd0"/><stop offset="0.63" stop-color="#ffba00"/><stop offset="0.86" stop-color="#ff9100"/><stop offset="0.93" stop-color="#ff6711"/><stop offset="0.99" stop-color="#ff4a1d"/></radialGradient><linearGradient id="linear-gradient-2" x1="-9059.76" y1="7275.74" x2="-8940.63" y2="7306.1" gradientTransform="matrix(1.22, 0.12, 0.12, -1.22, 10221.27, 10107.74)" gradientUnits="userSpaceOnUse"><stop offset="0" stop-color="#c42482" stop-opacity="0.5"/><stop offset="0.47" stop-color="#ff272d" stop-opacity="0.5"/><stop offset="0.49" stop-color="#ff2c2c" stop-opacity="0.51"/><stop offset="0.68" stop-color="#ff7a1a" stop-opacity="0.72"/><stop offset="0.83" stop-color="#ffb20d" stop-opacity="0.87"/><stop offset="0.94" stop-color="#ffd605" stop-opacity="0.96"/><stop offset="1" stop-color="#ffe302"/></linearGradient><linearGradient id="linear-gradient-3" x1="129.91" y1="1613.65" x2="108.74" y2="1667.91" gradientTransform="matrix(0.99, 0.1, 0.1, -0.99, -232.8, 1690.84)" gradientUnits="userSpaceOnUse"><stop offset="0" stop-color="#891551" stop-opacity="0.6"/><stop offset="1" stop-color="#c42482" stop-opacity="0"/></linearGradient><linearGradient id="linear-gradient-4" x1="-156.48" y1="-66.73" x2="-119.96" y2="-108.2" gradientTransform="matrix(0.99, 0.1, 0.1, -0.99, 246.33, 130.43)" gradientUnits="userSpaceOnUse"><stop offset="0.01" stop-color="#891551" stop-opacity="0.5"/><stop offset="0.48" stop-color="#ff272d" stop-opacity="0.5"/><stop offset="1" stop-color="#ff272d" stop-opacity="0"/></linearGradient><linearGradient id="linear-gradient-5" x1="-86.15" y1="-137.49" x2="-86.12" y2="-108.48" gradientTransform="matrix(0.99, 0.1, 0.1, -0.99, 246.33, 130.43)" gradientUnits="userSpaceOnUse"><stop offset="0" stop-color="#c42482"/><stop offset="0.08" stop-color="#c42482" stop-opacity="0.81"/><stop offset="0.21" stop-color="#c42482" stop-opacity="0.57"/><stop offset="0.33" stop-color="#c42482" stop-opacity="0.36"/><stop offset="0.45" stop-color="#c42482" stop-opacity="0.2"/><stop offset="0.56" stop-color="#c42482" stop-opacity="0.09"/><stop offset="0.67" stop-color="#c42482" stop-opacity="0.02"/><stop offset="0.77" stop-color="#c42482" stop-opacity="0"/></linearGradient><linearGradient id="linear-gradient-6" x1="240.77" y1="370" x2="359.36" y2="104.8" gradientTransform="matrix(1, 0, 0, -1, 0, 384)" gradientUnits="userSpaceOnUse"><stop offset="0" stop-color="#fff14f"/><stop offset="0.27" stop-color="#ffee4c"/><stop offset="0.45" stop-color="#ffe643"/><stop offset="0.61" stop-color="#ffd834"/><stop offset="0.76" stop-color="#ffc41e"/><stop offset="0.89" stop-color="#ffab02"/><stop offset="0.9" stop-color="#ffa900"/><stop offset="0.95" stop-color="#ffa000"/><stop offset="1" stop-color="#ff9100"/></linearGradient><linearGradient id="linear-gradient-7" x1="264.18" y1="217.47" x2="208" y2="66.64" gradientTransform="matrix(1, 0, 0, -1, 0, 384)" gradientUnits="userSpaceOnUse"><stop offset="0" stop-color="#ff8e00"/><stop offset="0.04" stop-color="#ff8e00" stop-opacity="0.86"/><stop offset="0.08" stop-color="#ff8e00" stop-opacity="0.73"/><stop offset="0.13" stop-color="#ff8e00" stop-opacity="0.63"/><stop offset="0.18" stop-color="#ff8e00" stop-opacity="0.56"/><stop offset="0.23" stop-color="#ff8e00" stop-opacity="0.51"/><stop offset="0.28" stop-color="#ff8e00" stop-opacity="0.5"/><stop offset="0.39" stop-color="#ff8e00" stop-opacity="0.48"/><stop offset="0.52" stop-color="#ff8e00" stop-opacity="0.42"/><stop offset="0.68" stop-color="#ff8e00" stop-opacity="0.31"/><stop offset="0.84" stop-color="#ff8e00" stop-opacity="0.17"/><stop offset="1" stop-color="#ff8e00" stop-opacity="0"/></linearGradient></defs><title>firefox-logo-horizontal-lockup</title><g id="Layer_2" data-name="Layer 2"><g id="Layer_1-2" data-name="Layer 1"><g id="Layer_2-2" data-name="Layer 2"><g id="Layer_1-2-2" data-name="Layer 1-2"><path d="M996.05,168.9H974.24L951,209.38,927.88,168.9H905.22l34.19,52.23-38.6,58.32h21.82l27.48-46.78,27.06,46.78h23.28l-38.39-59.16Zm-466,110.55h19.3V168.9h-19.3Zm63-87.23-1.89-23.32H574.65V279.44H594v-57c0-17.19,12.59-36.29,26.43-36.29a34.57,34.57,0,0,1,9.65,1.26l3.57-18.88a47.14,47.14,0,0,0-10.91-1.26c-13.43,0-23.69,8.37-29.58,24.95ZM436.69,279.44h19.93V215.88h47.2V200.15h-47.2v-49.3h54.54l2.31-15.94H436.69ZM539.51,127.82c-8,0-13.43,5.66-13.43,13.22,0,7.34,5.45,13,13.43,13,8.18,0,13.64-5.66,13.64-13C553.15,133.48,547.69,127.82,539.51,127.82Zm312.68,39.44c-31.47,0-49.51,22.83-49.51,57,0,35,17.83,57.69,49.3,57.69,31.26,0,49.3-23.7,49.3-57.9,0-35.05-17.62-56.8-49.09-56.8ZM852,266.44c-18.46,0-28.53-13.43-28.53-42.16,0-28.95,10.28-41.5,28.74-41.5,18.25,0,28.32,12.55,28.32,41.29C880.51,253,870.44,266.44,852,266.44Zm-78.17-105.2c0-10.7,4.2-18.56,16.36-18.56a47.41,47.41,0,0,1,19.3,4.2l6.08-14c-8.81-3.78-15.94-5.66-26.43-5.66-22.45,0-34.61,14.09-34.61,32.55v9.19H734.79V183.8h19.72v95.65h19.3V183.79h24.75l2.1-14.89H773.81Zm-92,6c-28.53,0-45.94,23.67-45.94,58.07,0,35,18,56.64,48.88,56.64,15.31,0,27.69-5.24,38.6-13.84L715,256.57c-9.65,6.71-17.83,9.65-28.74,9.65-15.94,0-27.9-9.86-29.79-35.45h70.48c.21-2.52.42-6.08.42-9.86-.07-33.76-15.8-53.66-45.59-53.66Zm26.43,49.26H656.38c1.47-24.54,11.12-33.95,25.8-33.95,17.41,0,26,11.08,26,32.69Zm310.1-41.21c0-1.86-1.28-2.8-3.94-2.8H1012v9.39h1.45v-3.83h1.24l2.24,3.83h1.73l-2.55-4.07a2.56,2.56,0,0,0,2.19-2.5Zm-4.87,1.55V173.7h1.14c1.45,0,2.24.38,2.24,1.59s-.79,1.55-2,1.55Zm1.42-7.84a8.27,8.27,0,0,0-8.25,8.29v.07a8.11,8.11,0,0,0,8,8.22h.25a8.29,8.29,0,0,0,.58-16.57h-.58Zm0,15.33a6.79,6.79,0,0,1-6.87-6.73v-.27a6.91,6.91,0,0,1,6.74-7.08h.13a6.83,6.83,0,0,1,6.94,6.72v.28a6.9,6.9,0,0,1-6.7,7.1h-.31Z" style="fill:#363959"/><path d="M298.87,35.52c-9.29,10.82-13.62,35.17-4.2,59.85s23.86,19.32,32.86,44.49c11.88,33.21,6.35,77.83,6.35,77.83s14.28,41.36,24.24-2.57C380.15,132.59,298.87,55.85,298.87,35.52Z" style="fill:url(#radial-gradient)"/><path id="_Path_" data-name=" Path " d="M185.49,378.15c95.15,0,172.23-77.5,172.23-173.06S280.64,32,185.58,32,13.44,109.54,13.44,205.1C13.26,300.75,90.43,378.15,185.49,378.15Z" style="fill:url(#radial-gradient-2)"/><path d="M314.54,311.81a95,95,0,0,1-11.69,7.06,271.38,271.38,0,0,0,14.86-24.43,96.25,96.25,0,0,0,9.77-12.28c1.33-2.1,2.84-4.69,4.43-7.69,9.67-17.42,20.33-45.61,20.63-74.57v-2.21A100.07,100.07,0,0,0,350.33,176c.08.56.15,1.11.22,1.66-.09-.43-.16-.86-.25-1.29.14.79.26,1.55.38,2.32,2,16.77.57,33.12-6.47,45.18l-.34.51c3.65-18.33,4.87-38.56.81-58.82,0,0-1.62-9.85-13.73-39.75-7-17.21-19.33-31.32-30.26-41.6-9.58-11.85-18.28-19.8-23.08-24.85-10-10.55-14.22-18.46-15.94-23.62-1.5-.75-20.62-19.32-22.14-20-8.35,12.94-34.59,53.42-22.11,91.24,5.66,17.14,20,34.93,35,44.9.66.75,8.91,9.72,12.84,29.94,4.06,20.89,1.92,37.19-6.42,61.3-9.81,21.15-35,42.05-58.48,44.19-50.31,4.57-68.73-25.26-68.73-25.26,18,7.19,37.86,5.68,49.94-1.77s19.55-13.12,25.53-10.92,10.59-4.17,6.38-10.77a30.46,30.46,0,0,0-30.81-13.41c-12.2,2-23.37,11.64-39.35,2.29a31.91,31.91,0,0,1-3-2c-1.05-.69,3.42,1.05,2.38.27a78.76,78.76,0,0,1-10-6.68c-.24-.22,2.41.85,2.18.63-14.94-12.3-13.08-20.62-12.61-25.83.38-4.17,3.09-9.51,7.66-11.68,2.21,1.21,3.58,2.13,3.58,2.13s-.94-1.92-1.45-2.94c.18-.08.35-.06.53-.13,1.81.87,5.81,3.14,7.92,4.53a11.71,11.71,0,0,1,3.62,3.66s.72-.4.19-2.09a10.81,10.81,0,0,0-3.75-5.11h.17a31.76,31.76,0,0,1,4.6,3.2c.77-2.79,2.14-5.7,1.84-10.9-.19-3.66-.1-4.61-.74-6-.58-1.21.32-1.69,1.33-.43a12.49,12.49,0,0,0-.86-2.87v-.09c1.25-4.36,26.48-15.7,28.32-17a26.13,26.13,0,0,0,7.42-8.07c1.4-2.24,2.46-5.37,2.72-10.13.14-3.43-1.46-5.72-27-8.39-7-.69-11.07-5.74-13.4-10.41-.42-1-.86-1.92-1.29-2.83a22,22,0,0,1-1-3.27,61.22,61.22,0,0,1,21.5-29.74c.56-.51-2.24.13-1.68-.38a62.41,62.41,0,0,1,5.74-2.71c1-.46-4.22-2.68-8.82-2.14a22,22,0,0,0-8.18,2.15c1-1,4.34-2.39,3.56-2.38-5,.77-11.32,3.71-16.69,7a4.24,4.24,0,0,1,.32-1.69c-2.5,1.06-8.64,5.35-10.42,9a16.16,16.16,0,0,0,.1-2.09A33.06,33.06,0,0,0,123,87.44l-.09.09c-14.49-5.84-27.25-6.22-38-3.6-2.36-2.37-3.51-.64-8.89-12.44-.37-.71.28.7,0,0-.88-2.29.54,3.05,0,0-9.13,7.12-21,15.2-26.72,20.9-.07.23,6.66-1.9,0,0-2.33.67-2.17,2-2.53,14.55-.09,1,0,2-.09,2.86a80.19,80.19,0,0,0-8.84,13.27c-5.89,10.16-12.39,26-18.68,51a129.62,129.62,0,0,1,10-19.56c-5.23,13.3-10.29,34.17-11.3,66.33a186.79,186.79,0,0,1,4.86-19.66,183.64,183.64,0,0,0,13.48,78,190.73,190.73,0,0,0,19.8,37,175.38,175.38,0,0,0,247.93,6.52q5.52-5.25,10.59-11Z" style="fill:url(#linear-gradient)"/><path d="M275.9,336.28c63.19-7.32,91.17-72.44,55.24-73.72C298.69,261.56,246,339.73,275.9,336.28Z" style="fill:url(#radial-gradient-3)"/><path d="M335.69,249.26c43.48-25.3,32.14-80,32.14-80s-16.78,19.49-28.18,50.56C328.4,250.63,309.56,264.54,335.69,249.26Z" style="fill:url(#radial-gradient-4)"/><path d="M197.67,368.62c60.61,19.34,112.71-28.41,80.6-44.36C249.07,309.88,168.9,359.47,197.67,368.62Z" style="fill:url(#radial-gradient-5)"/><path d="M340.21,272.46c1.48-2.08,3.47-8.74,5.23-11.72,10.7-17.28,10.78-31,10.78-31.36,6.46-32.29,5.88-45.47,1.9-69.86-3.2-19.63-17.2-47.76-29.32-61.3-12.49-14-3.69-9.41-15.79-19.6-10.6-11.75-20.88-23.39-26.48-28.07C246.07,16.72,247,9.54,247.76,8.31l-.57.64c-.48-1.91-.82-3.52-.82-3.52s-22.12,22.12-26.77,59c-3,24.06,6,49.15,19,65.18a148,148,0,0,0,22.89,22.5h0c9.86,14.15,15.28,31.62,15.28,50.4a85.3,85.3,0,0,1-104.29,83c-22.21-4.23-35-15.43-41.43-23a41.71,41.71,0,0,1-5.22-7.54c19.9,7.13,41.9,5.64,55.28-1.75s21.64-13,28.26-10.83,11.72-4.14,7.06-10.68-16.45-15.9-34.1-13.3c-13.5,2-25.86,11.55-43.55,2.27a35.6,35.6,0,0,1-3.32-2c-1.17-.69,3.79,1,2.63.26A87,87,0,0,1,127,212.34c-.26-.22,2.67.84,2.41.62-16.54-12.2-14.47-20.44-14-25.61a14.85,14.85,0,0,1,8.48-11.59c2.44,1.2,4,2.11,4,2.11s-1-1.91-1.61-2.92c.2-.08.39-.06.58-.13,2,.87,6.43,3.12,8.76,4.49a12.1,12.1,0,0,1,4,3.63s.8-.39.21-2.07a10.78,10.78,0,0,0-4.14-5.07h.19A35.12,35.12,0,0,1,141,179c.85-2.76,2.37-5.65,2-10.81-.2-3.63-.11-4.57-.82-6-.64-1.2.36-1.67,1.47-.42a11.51,11.51,0,0,0-1-2.85v-.09C144.09,154.51,172,143.26,174,142a27.15,27.15,0,0,0,8.22-8c1.55-2.22,2.72-5.33,3-10,.1-2.13-.56-3.81-8-5.42a199.16,199.16,0,0,0-21.9-2.9c-7.72-.68-12.25-5.69-14.83-10.32-.47-1-.95-1.9-1.43-2.8a20.6,20.6,0,0,1-1.1-3.24,61.44,61.44,0,0,1,23.78-29.51c.62-.51-2.48.13-1.86-.38s5.46-2.3,6.35-2.68c1.09-.46-4.67-2.65-9.76-2.12a26.15,26.15,0,0,0-9,2.13c1.15-1,4.8-2.37,3.94-2.36-5.59.77-12.53,3.68-18.47,7a3.7,3.7,0,0,1,.36-1.67c-2.77,1-9.56,5.31-11.54,8.9a16,16,0,0,0,.11-2.08,34.42,34.42,0,0,0-5.67,5.32l-.1.08c-16-5.9-30.14-6.23-42-3.63-2.61-2.35-6.82-5.91-12.76-17.61-.4-.71-.62,1.46-.93.76-2.31-5.36-3.71-14.14-3.48-20.19,0,0-4.78,2.18-8.74,11.28C47.45,54.13,47,55,46.51,55.93c-.22.26.49-3,.38-2.81-.69,1.17-2.47,2.79-3.25,4.9-.54,1.56-1.29,2.43-1.77,4.38l-.11.18c0-.57.14-2.36,0-2A91.77,91.77,0,0,0,37,72.16a107.72,107.72,0,0,0-5,28.93c-.09.94,0,2-.1,2.84-5,5.76-8.48,10.64-9.78,13.16C15.59,127.17,8.4,142.87,1.44,167.71a123.6,123.6,0,0,1,11.07-19.4C6.72,161.5,1.12,182.21,0,214.09A170.32,170.32,0,0,1,5.38,194.6,165.08,165.08,0,0,0,20.3,272c8,17.49,26.35,53,71.24,80.74h0s15.27,11.37,41.52,19.89c1.94.7,3.9,1.4,5.91,2.07-.63-.25-1.24-.52-1.83-.8A187.88,187.88,0,0,0,191,381.79c68,.06,88-27.24,88-27.24l-.2.15c1-.9,1.88-1.84,2.77-2.82-10.72,10.13-35.2,10.8-44.35,10.07,15.61-4.58,25.88-8.46,45.85-16.11q3.49-1.3,7.17-3l.8-.36,1.45-.68a135.86,135.86,0,0,0,27.26-17.07c20.06-16,24.42-31.64,26.71-41.94-.32,1-1.31,3.29-2,4.78-5.17,11.05-16.62,17.83-29.06,23.65A268.48,268.48,0,0,0,331.85,287C335.91,283,337.18,276.7,340.21,272.46Z" style="fill:url(#radial-gradient-6)"/><path d="M315.8,310.78a128.58,128.58,0,0,0,21.09-31c14.32-30.1,36.45-80.15,19-132.42-13.78-41.31-32.7-63.91-56.72-86C260.17,25.51,249.28,9.51,249.28,0c0,0-45,50.21-25.51,102.58s59.54,50.45,86,105.1C340.93,272,284.58,342.16,238,361.8c2.85-.63,103.58-23.43,108.88-81C346.74,281.82,344.47,297.75,315.8,310.78Z" style="fill:url(#radial-gradient-7)"/><path d="M185.3,123.91c.15-3.4-1.61-5.69-29.75-8.33-11.58-1.07-16-11.77-17.36-16.27-4.12,10.7-5.82,21.92-4.9,35.49.62,8.89,6.6,18.44,9.46,24,0,0,.63-.82.93-1.13,5.38-5.6,27.91-14.13,30-15.34C176,140.9,184.91,134.41,185.3,123.91Z" style="fill:url(#linear-gradient-2)"/><path d="M61.42,60.71c-.4-.71-.62,1.46-.93.76a51.68,51.68,0,0,1-3.38-20.18s-4.78,2.18-8.73,11.28C47.64,54.2,47.17,55.1,46.7,56c-.22.26.49-3,.38-2.81-.69,1.17-2.47,2.79-3.24,4.8A28.16,28.16,0,0,0,42,62.56c-.15.55.15-2.45,0-2.09C32.8,78.25,31,105.13,32,104,51.59,83.09,74,78.13,74,78.13c-2.39-1.76-7.58-6.84-12.69-17.42Z" style="fill:url(#linear-gradient-3)"/><path d="M135.74,279.4c-27.05-11.55-57.81-27.84-56.65-64.85,1.58-48.74,45.45-39.11,45.45-39.11-1.66.4-6.08,3.55-7.65,6.91-1.66,4.2-4.68,13.69,4.48,23.63,14.39,15.59-29.56,37,38.28,77.43,1.71.93-15.9-.55-23.92-4Z" style="fill:url(#linear-gradient-4)"/><path d="M126.13,255.11c19.18,6.68,41.53,5.51,54.91-1.88,9-5,20.45-13,27.52-11a48.16,48.16,0,0,0-16.33-3.83,27.82,27.82,0,0,1-3.12-.12,52,52,0,0,0-6.11.33c-3.45.32-7.28,2.5-10.76,2.15-.19,0,3.38-1.46,3.09-1.4-1.84.38-3.85.47-6,.73-1.35.15-2.5.32-3.84.37-40,3.39-73.73-21.66-73.73-21.66-2.87,9.68,12.87,28.83,34.35,36.31Z" style="fill:url(#linear-gradient-5)"/><path d="M315.72,311c40.41-39.68,60.86-87.91,52.22-142a114.29,114.29,0,0,1-9.64,56.11c6.29-27.7,7-62.12-9.69-97.77-22.31-47.58-59-72.62-73-83.06-21.22-15.83-30-31.94-30.18-35.27-6.34,13-25.52,57.5-2.06,95.83,22,35.91,56.59,46.57,80.83,79.52C368.85,245.08,315.72,311,315.72,311Z" style="fill:url(#linear-gradient-6)"/><path d="M309.93,207.79c-14.12-29.18-31.75-41.9-48.43-55.7,1.94,2.72,2.42,3.68,3.49,5.43,14.68,15.64,36.32,53.8,20.61,101.7C256,349.38,137.72,306.92,125.32,295c5,52.18,92.36,77.15,149.22,43.31C306.9,307.68,333.08,255.61,309.93,207.79Z" style="fill:url(#linear-gradient-7)"/></g></g></g></g></svg>