# Blender v2.83.5 OBJ File: 'debris0.blend'
# www.blender.org
mtllib debris0.mtl
o Cylinder.001_Cylinder.003
v 0.000000 -4.132656 -2.600000
v 0.000000 4.127694 -2.600000
v -0.000001 -4.132656 2.600000
v -0.000001 4.127694 2.600000
v -0.507236 -4.132656 2.550041
v -0.507236 4.127694 2.550041
v -0.994978 -4.132656 2.402086
v -0.994978 4.127694 2.402086
v -1.444484 -4.132656 2.161820
v -1.444484 4.127694 2.161820
v -1.838479 -4.132656 1.838476
v -1.838479 4.127694 1.838476
v -2.161822 -4.132656 1.444481
v -2.161822 4.127694 1.444481
v -2.402087 -4.132656 0.994975
v -2.402087 4.127694 0.994975
v -2.550042 -4.132656 0.507233
v -2.550042 4.127694 0.507233
v -2.600000 -4.132656 -0.000003
v -2.600000 4.127694 -0.000003
v -2.550041 -4.132656 -0.507237
v -2.550041 4.127694 -0.507237
v -2.402086 -4.132656 -0.994980
v -2.402086 4.127694 -0.994980
v -2.161819 -4.132656 -1.444485
v -2.161819 4.127694 -1.444485
v -1.838475 -4.132656 -1.838480
v -1.838475 4.127694 -1.838480
v -1.444480 -4.132656 -2.161823
v -1.444480 4.127694 -2.161823
v -0.994973 -4.132656 -2.402088
v -0.994973 4.127694 -2.402088
v -0.507231 -4.132656 -2.550042
v -0.507231 4.127694 -2.550042
v 0.000000 5.390658 -2.201151
v -0.429420 5.390658 -2.158857
v -0.842341 5.390658 -2.033600
v -1.222892 5.390658 -1.830192
v -1.556447 5.390658 -1.556451
v -1.830189 5.390658 -1.222896
v -2.033598 5.390658 -0.842346
v -2.158856 5.390658 -0.429426
v -2.201151 5.390658 -0.000002
v -2.158857 5.390658 0.429421
v -2.033599 5.390658 0.842342
v -1.830191 5.390658 1.222893
v -1.556450 5.390658 1.556448
v -1.222895 5.390658 1.830190
v -0.842345 5.390658 2.033598
v -0.429424 5.390658 2.158857
v -0.000001 5.390658 2.201151
v -0.085559 8.513737 -0.000000
v -0.125774 8.289070 -1.277017
v -0.372490 8.289070 -1.227942
v -0.604893 8.289070 -1.131678
v -0.814049 8.289070 -0.991925
v -0.991923 8.289070 -0.814052
v -1.131677 8.289070 -0.604896
v -1.227941 8.289070 -0.372493
v -1.277017 8.289070 -0.125776
v -1.277017 8.289070 0.125774
v -1.227942 8.289070 0.372491
v -1.131678 8.289070 0.604894
v -0.991924 8.289070 0.814050
v -0.814052 8.289070 0.991923
v -0.604895 8.289070 1.131677
v -0.372493 8.289070 1.227941
v -0.125776 8.289070 1.277017
v 0.000000 -3.926023 -2.470000
v 0.000000 4.110213 -2.542584
v -0.000001 -3.926023 2.470000
v -0.000001 4.089311 2.543809
v -0.481874 -3.926023 2.422539
v -0.481874 3.921309 2.422539
v -0.945229 -3.926023 2.281982
v -0.945229 3.921309 2.281982
v -1.372259 -3.926023 2.053729
v -1.372259 3.921309 2.053729
v -1.746555 -3.926023 1.746553
v -1.746555 3.921309 1.746553
v -2.053731 -3.926023 1.372257
v -2.053731 3.921309 1.372257
v -2.281983 -3.926023 0.945226
v -2.281983 3.921309 0.945226
v -2.422540 -3.926023 0.481871
v -2.422540 3.921309 0.481871
v -2.470000 -3.926023 -0.000002
v -2.470000 3.921309 -0.000002
v -2.422539 -3.926023 -0.481876
v -2.422539 3.921309 -0.481876
v -2.281981 -3.926023 -0.945231
v -2.281981 3.921309 -0.945231
v -2.053728 -3.926023 -1.372261
v -2.053728 3.921309 -1.372261
v -1.746551 -3.926023 -1.746556
v -1.746551 3.921309 -1.746556
v -1.372256 -3.926023 -2.053732
v -1.372256 3.921309 -2.053732
v -0.945225 -3.926023 -2.281984
v -0.945225 3.921309 -2.281984
v -0.481869 -3.926023 -2.422540
v -0.481869 3.921309 -2.422540
v 0.000000 5.310030 -2.163678
v -0.407949 5.121125 -2.050915
v -0.800224 5.121125 -1.931920
v -1.161747 5.121125 -1.738683
v -1.478625 5.121125 -1.478628
v -1.738679 5.121125 -1.161752
v -1.931918 5.121125 -0.800229
v -2.050913 5.121125 -0.407954
v -2.091094 5.121125 -0.000002
v -2.050914 5.121125 0.407950
v -1.931919 5.121125 0.800225
v -1.738682 5.121125 1.161748
v -1.478628 5.121125 1.478626
v -1.161750 5.121125 1.738680
v -0.800228 5.121125 1.931918
v -0.407953 5.121125 2.050914
v -0.000001 5.289127 2.164903
v -0.085559 8.477214 -0.000000
v -0.119485 8.254345 -1.213166
v -0.353866 7.874616 -1.166545
v -0.574648 7.874616 -1.075094
v -0.773347 7.874616 -0.942329
v -0.942326 7.874616 -0.773349
v -1.075093 7.874616 -0.574651
v -1.166544 7.874616 -0.353869
v -1.213166 7.874616 -0.119488
v -1.213166 7.874616 0.119485
v -1.166545 7.874616 0.353866
v -1.075094 7.874616 0.574649
v -0.942328 7.874616 0.773348
v -0.773349 7.874616 0.942327
v -0.574650 7.874616 1.075094
v -0.353868 7.874616 1.166544
v -0.119487 8.254345 1.213166
v -0.253618 4.127694 2.575021
v -0.751107 4.127694 2.476064
v -1.219731 4.127694 2.281953
v -1.641481 4.127694 2.000148
v -2.000150 4.127694 1.641479
v -2.281955 4.127694 1.219728
v -2.476065 4.127694 0.751104
v -2.575021 4.127694 0.253615
v -2.575021 4.127694 -0.253620
v -2.476063 4.127694 -0.751109
v -2.281952 4.127694 -1.219732
v -2.000147 4.127694 -1.641482
v -1.641477 4.127694 -2.000151
v -1.219727 4.127694 -2.281955
v -0.751102 4.127694 -2.476065
v -0.253615 4.127694 -2.575021
v -0.062887 8.423793 -0.638509
v -0.186245 8.423793 -0.613971
v -0.302446 8.423793 -0.565839
v -0.407025 8.423793 -0.495963
v -0.495961 8.423793 -0.407026
v -0.565838 8.423793 -0.302448
v -0.613971 8.423793 -0.186247
v -0.638508 8.423793 -0.062888
v -0.638508 8.423793 0.062887
v -0.613971 8.423793 0.186245
v -0.565839 8.423793 0.302447
v -0.495962 8.423793 0.407025
v -0.407026 8.423793 0.495962
v -0.302447 8.423793 0.565839
v -0.186246 8.423793 0.613971
v -0.062888 8.423793 0.638508
v -0.059743 8.383000 -0.606583
v -0.059743 8.383000 0.606583
v -0.122630 8.274917 -1.245091
v -0.085559 8.499898 -0.000000
v -0.122631 8.274917 1.245091
v -0.061316 8.409594 0.622546
v -0.061315 8.409594 -0.622546
vt 0.500000 0.500000
vt 0.500000 1.000000
vt 0.484375 1.000000
vt 0.468750 1.000000
vt 0.468750 0.500000
vt 0.453125 1.000000
vt 0.437500 1.000000
vt 0.437500 0.500000
vt 0.421875 1.000000
vt 0.406250 1.000000
vt 0.406250 0.500000
vt 0.390625 1.000000
vt 0.375000 1.000000
vt 0.375000 0.500000
vt 0.359375 1.000000
vt 0.343750 1.000000
vt 0.343750 0.500000
vt 0.328125 1.000000
vt 0.312500 1.000000
vt 0.312500 0.500000
vt 0.281250 0.500000
vt 0.281250 1.000000
vt 0.265625 1.000000
vt 0.250000 1.000000
vt 0.250000 0.500000
vt 0.234375 1.000000
vt 0.218750 1.000000
vt 0.218750 0.500000
vt 0.203125 1.000000
vt 0.187500 1.000000
vt 0.187500 0.500000
vt 0.171875 1.000000
vt 0.156250 1.000000
vt 0.156250 0.500000
vt 0.125000 0.500000
vt 0.125000 1.000000
vt 0.109375 1.000000
vt 0.093750 1.000000
vt 0.093750 0.500000
vt 0.078125 1.000000
vt 0.062500 1.000000
vt 0.062500 0.500000
vt 0.046875 1.000000
vt 0.031250 1.000000
vt 0.031250 0.500000
vt 0.015625 1.000000
vt 0.000000 1.000000
vt 0.000000 0.500000
vt 0.203179 0.485389
vt 0.210361 0.449279
vt 0.238390 0.367878
vt 0.250000 0.453183
vt 0.250000 0.490000
vt 0.226589 0.487694
vt 0.050447 0.116663
vt 0.081059 0.137118
vt 0.145537 0.194164
vt 0.062283 0.172245
vt 0.028269 0.158156
vt 0.039358 0.137410
vt 0.250000 0.010000
vt 0.250000 0.046817
vt 0.238390 0.132122
vt 0.210361 0.050721
vt 0.203178 0.014612
vt 0.226589 0.012306
vt 0.215616 0.136652
vt 0.172245 0.062283
vt 0.158156 0.028269
vt 0.180667 0.021440
vt 0.194164 0.145537
vt 0.137117 0.081059
vt 0.116663 0.050447
vt 0.137409 0.039358
vt 0.174857 0.158438
vt 0.106328 0.106328
vt 0.080294 0.080294
vt 0.098479 0.065371
vt 0.158438 0.174857
vt 0.065371 0.098479
vt 0.014611 0.203179
vt 0.050721 0.210361
vt 0.132122 0.238390
vt 0.046817 0.250000
vt 0.010000 0.250000
vt 0.012306 0.226589
vt 0.132122 0.261610
vt 0.050721 0.289639
vt 0.014612 0.296822
vt 0.012306 0.273411
vt 0.136652 0.284384
vt 0.062283 0.327755
vt 0.028269 0.341844
vt 0.021440 0.319333
vt 0.145538 0.305837
vt 0.081060 0.362883
vt 0.050447 0.383337
vt 0.039358 0.362591
vt 0.158438 0.325143
vt 0.106328 0.393672
vt 0.080295 0.419706
vt 0.065371 0.401521
vt 0.174857 0.341562
vt 0.137118 0.418941
vt 0.116663 0.449553
vt 0.098479 0.434629
vt 0.194164 0.354463
vt 0.172245 0.437717
vt 0.158156 0.471731
vt 0.137410 0.460642
vt 0.215616 0.363349
vt 0.180667 0.478560
vt 0.244195 0.308939
vt 0.232808 0.306674
vt 0.250000 0.250000
vt 0.222082 0.302231
vt 0.212428 0.295781
vt 0.204219 0.287572
vt 0.197769 0.277918
vt 0.193326 0.267192
vt 0.191061 0.255805
vt 0.191061 0.244195
vt 0.193326 0.232808
vt 0.197769 0.222082
vt 0.204219 0.212428
vt 0.212428 0.204219
vt 0.222082 0.197769
vt 0.232808 0.193326
vt 0.244195 0.191061
vt 0.500000 0.500000
vt 0.500000 1.000000
vt 0.468750 1.000000
vt 0.468750 0.500000
vt 0.437500 1.000000
vt 0.437500 0.500000
vt 0.406250 1.000000
vt 0.406250 0.500000
vt 0.375000 1.000000
vt 0.375000 0.500000
vt 0.343750 1.000000
vt 0.343750 0.500000
vt 0.312500 1.000000
vt 0.312500 0.500000
vt 0.281250 1.000000
vt 0.281250 0.500000
vt 0.250000 1.000000
vt 0.250000 0.500000
vt 0.218750 1.000000
vt 0.218750 0.500000
vt 0.187500 1.000000
vt 0.187500 0.500000
vt 0.156250 1.000000
vt 0.156250 0.500000
vt 0.125000 1.000000
vt 0.125000 0.500000
vt 0.093750 1.000000
vt 0.093750 0.500000
vt 0.062500 1.000000
vt 0.062500 0.500000
vt 0.031250 1.000000
vt 0.031250 0.500000
vt 0.000000 1.000000
vt 0.000000 0.500000
vt 0.203179 0.485389
vt 0.210361 0.449279
vt 0.238390 0.367878
vt 0.250000 0.453183
vt 0.250000 0.490000
vt 0.050447 0.116663
vt 0.081059 0.137118
vt 0.145537 0.194164
vt 0.062283 0.172245
vt 0.028269 0.158156
vt 0.250000 0.010000
vt 0.250000 0.046817
vt 0.238390 0.132122
vt 0.210361 0.050721
vt 0.203178 0.014612
vt 0.215616 0.136652
vt 0.172245 0.062283
vt 0.158156 0.028269
vt 0.194164 0.145537
vt 0.137117 0.081059
vt 0.116663 0.050447
vt 0.174857 0.158438
vt 0.106328 0.106328
vt 0.080294 0.080294
vt 0.158438 0.174857
vt 0.136652 0.215616
vt 0.050721 0.210361
vt 0.014611 0.203179
vt 0.132122 0.238390
vt 0.046817 0.250000
vt 0.010000 0.250000
vt 0.132122 0.261610
vt 0.050721 0.289639
vt 0.014612 0.296822
vt 0.136652 0.284384
vt 0.062283 0.327755
vt 0.028269 0.341844
vt 0.145538 0.305837
vt 0.081060 0.362883
vt 0.050447 0.383337
vt 0.158438 0.325143
vt 0.106328 0.393672
vt 0.080295 0.419706
vt 0.174857 0.341562
vt 0.137118 0.418941
vt 0.116663 0.449553
vt 0.194164 0.354463
vt 0.172245 0.437717
vt 0.158156 0.471731
vt 0.215616 0.363349
vt 0.250000 0.250000
vt 0.244195 0.308939
vt 0.244195 0.191061
vt 0.238390 0.367878
vt 0.244195 0.308939
vt 0.244195 0.191061
vt 0.238390 0.132122
vt 0.250000 0.250000
vt 0.136652 0.215616
vt 0.296875 1.000000
vt 0.021440 0.180667
vt 0.140625 1.000000
vn -0.0980 0.0000 0.9952
vn -0.0969 0.1499 0.9839
vn -0.0969 0.1514 0.9837
vn -0.1929 0.1507 0.9696
vn -0.1951 0.0000 0.9808
vn -0.2869 0.1514 0.9459
vn -0.3783 0.1507 0.9133
vn -0.3827 0.0000 0.9239
vn -0.4660 0.1514 0.8718
vn -0.5492 0.1507 0.8220
vn -0.5556 0.0000 0.8315
vn -0.6271 0.1514 0.7641
vn -0.6990 0.1507 0.6990
vn -0.7071 -0.0000 0.7071
vn -0.7641 0.1514 0.6271
vn -0.8220 0.1507 0.5492
vn -0.8315 -0.0000 0.5556
vn -0.8718 0.1514 0.4660
vn -0.9133 0.1507 0.3783
vn -0.9239 0.0000 0.3827
vn -0.9808 -0.0000 0.1951
vn -0.9696 0.1507 0.1929
vn -0.9837 0.1514 0.0969
vn -0.9886 0.1507 -0.0000
vn -1.0000 -0.0000 -0.0000
vn -0.9837 0.1514 -0.0969
vn -0.9696 0.1507 -0.1929
vn -0.9808 -0.0000 -0.1951
vn -0.9459 0.1514 -0.2869
vn -0.9133 0.1507 -0.3783
vn -0.9239 -0.0000 -0.3827
vn -0.8718 0.1514 -0.4660
vn -0.8220 0.1507 -0.5492
vn -0.8315 0.0000 -0.5556
vn -0.7071 0.0000 -0.7071
vn -0.6990 0.1507 -0.6990
vn -0.6271 0.1514 -0.7641
vn -0.5492 0.1507 -0.8220
vn -0.5556 -0.0000 -0.8315
vn -0.4660 0.1514 -0.8718
vn -0.3783 0.1507 -0.9133
vn -0.3827 -0.0000 -0.9239
vn -0.2869 0.1514 -0.9459
vn -0.1929 0.1507 -0.9696
vn -0.1951 -0.0000 -0.9808
vn -0.0969 0.1514 -0.9837
vn -0.0969 0.1499 -0.9839
vn -0.0980 -0.0000 -0.9952
vn -0.1859 0.3036 -0.9345
vn -0.1624 0.5058 -0.8472
vn -0.0935 0.2993 -0.9496
vn -0.7922 0.3036 0.5293
vn -0.7566 0.5139 0.4044
vn -0.8803 0.3036 0.3646
vn -0.0935 0.2993 0.9496
vn -0.1624 0.5058 0.8472
vn -0.1859 0.3036 0.9345
vn -0.2490 0.5139 0.8209
vn -0.3646 0.3036 0.8803
vn -0.4044 0.5139 0.7566
vn -0.5293 0.3036 0.7922
vn -0.5442 0.5139 0.6631
vn -0.6737 0.3036 0.6737
vn -0.6631 0.5139 0.5442
vn -0.9345 0.3036 0.1859
vn -0.8537 0.5139 0.0841
vn -0.9528 0.3036 -0.0000
vn -0.8537 0.5139 -0.0841
vn -0.9345 0.3036 -0.1859
vn -0.8209 0.5139 -0.2490
vn -0.8803 0.3036 -0.3646
vn -0.7566 0.5139 -0.4044
vn -0.7922 0.3036 -0.5293
vn -0.6631 0.5139 -0.5442
vn -0.6737 0.3036 -0.6737
vn -0.7641 0.1514 -0.6271
vn -0.5442 0.5139 -0.6631
vn -0.5293 0.3036 -0.7922
vn -0.4044 0.5139 -0.7566
vn -0.3646 0.3036 -0.8803
vn -0.2490 0.5139 -0.8209
vn -0.0279 0.9897 -0.1404
vn -0.0408 0.9896 -0.1383
vn -0.1081 0.9941 -0.0000
vn -0.0688 0.9890 -0.1309
vn -0.0952 0.9885 -0.1175
vn -0.1188 0.9880 -0.0986
vn -0.1380 0.9876 -0.0745
vn -0.1517 0.9873 -0.0464
vn -0.1588 0.9872 -0.0158
vn -0.1588 0.9872 0.0158
vn -0.1517 0.9873 0.0464
vn -0.1380 0.9876 0.0745
vn -0.1188 0.9880 0.0986
vn -0.0952 0.9885 0.1175
vn -0.0688 0.9890 0.1309
vn -0.0408 0.9896 0.1383
vn -0.0279 0.9897 0.1404
vn -0.1717 -0.0046 0.9851
vn -0.2840 0.1667 0.9442
vn -0.2678 0.1306 0.9546
vn -0.2314 -0.0023 0.9729
vn -0.2683 0.1289 -0.9547
vn -0.2308 -0.0023 -0.9730
vn -0.2919 0.1700 -0.9412
vn -0.1704 -0.0045 -0.9854
vn -0.3207 0.2898 -0.9018
vn -0.3639 0.2797 -0.8885
vn -0.7922 0.3035 0.5294
vn -0.7582 0.5108 0.4053
vn -0.8803 0.3035 0.3646
vn -0.3539 0.2801 0.8923
vn -0.3157 0.2899 0.9035
vn -0.5446 0.4844 0.6847
vn -0.4034 0.5171 0.7549
vn -0.5439 0.5146 0.6629
vn -0.6637 0.5125 0.5448
vn -0.8233 0.5096 0.2498
vn -0.9345 0.3035 0.1859
vn -0.8566 0.5090 0.0844
vn -0.9528 0.3035 -0.0000
vn -0.8566 0.5090 -0.0844
vn -0.9345 0.3035 -0.1859
vn -0.8233 0.5096 -0.2498
vn -0.8803 0.3035 -0.3646
vn -0.7582 0.5108 -0.4053
vn -0.7922 0.3035 -0.5294
vn -0.6637 0.5125 -0.5448
vn -0.5439 0.5146 -0.6629
vn -0.4034 0.5171 -0.7549
vn -0.5446 0.4844 -0.6847
vn -0.7405 0.4241 -0.5213
vn -0.8051 0.5932 -0.0000
vn -0.7405 0.4241 0.5213
vn 1.0000 -0.0000 0.0000
vn 0.1651 -0.5325 -0.8302
vn 0.0831 -0.5307 -0.8435
vn 0.3239 -0.5325 -0.7820
vn 0.4702 -0.5325 -0.7038
vn 0.5985 -0.5325 -0.5985
vn 0.7038 -0.5325 -0.4702
vn 0.7820 -0.5325 -0.3239
vn 0.8302 -0.5325 -0.1651
vn 0.8464 -0.5325 0.0000
vn 0.8302 -0.5325 0.1651
vn 0.7820 -0.5325 0.3239
vn 0.7038 -0.5325 0.4702
vn 0.5985 -0.5325 0.5985
vn 0.4702 -0.5325 0.7038
vn 0.3239 -0.5325 0.7820
vn 0.1651 -0.5325 0.8302
vn 0.0831 -0.5307 0.8435
vn 0.9994 0.0346 -0.0080
vn 0.9999 0.0108 -0.0025
vn 0.9988 0.0318 -0.0367
vn 0.9982 0.0215 -0.0565
vn 0.9980 0.0198 -0.0599
vn 0.9990 0.0338 -0.0283
vn 0.9995 0.0264 -0.0171
vn 0.9990 0.0338 0.0283
vn 0.9984 0.0205 0.0535
vn 0.9982 0.0189 0.0571
vn 0.9995 0.0264 0.0171
vn 0.9994 0.0342 0.0033
vn 1.0000 0.0090 0.0009
vn 0.9990 0.0302 0.0323
vn 0.9983 0.0584 0.0000
vn 0.9991 0.0430 0.0000
vn 0.9975 0.0713 0.0000
vn 0.9978 0.0202 0.0628
vn 0.9978 0.0202 -0.0628
vn -0.1668 0.5189 0.8384
vn -0.2478 0.5207 0.8170
vn -0.4025 0.5207 0.7529
vn -0.5416 0.5207 0.6599
vn -0.6600 0.5207 0.5416
vn -0.7529 0.5207 0.4024
vn -0.8170 0.5207 0.2478
vn -0.8209 0.5139 0.2490
vn -0.8496 0.5207 0.0837
vn -0.8496 0.5207 -0.0837
vn -0.8170 0.5207 -0.2478
vn -0.7529 0.5207 -0.4025
vn -0.6599 0.5207 -0.5416
vn -0.5416 0.5207 -0.6600
vn -0.4024 0.5207 -0.7529
vn -0.2478 0.5207 -0.8170
vn -0.1668 0.5189 -0.8384
vn -0.9459 0.1514 0.2869
usemtl WhiteMetal
s 1
f 3/1/1 4/2/2 137/3/3 6/4/4 5/5/5
f 5/5/5 6/4/4 138/6/6 8/7/7 7/8/8
f 7/8/8 8/7/7 139/9/9 10/10/10 9/11/11
f 9/11/11 10/10/10 140/12/12 12/13/13 11/14/14
f 11/14/14 12/13/13 141/15/15 14/16/16 13/17/17
f 13/17/17 14/16/16 142/18/18 16/19/19 15/20/20
f 17/21/21 18/22/22 144/23/23 20/24/24 19/25/25
f 19/25/25 20/24/24 145/26/26 22/27/27 21/28/28
f 21/28/28 22/27/27 146/29/29 24/30/30 23/31/31
f 23/31/31 24/30/30 147/32/32 26/33/33 25/34/34
f 27/35/35 28/36/36 149/37/37 30/38/38 29/39/39
f 29/39/39 30/38/38 150/40/40 32/41/41 31/42/42
f 31/42/42 32/41/41 151/43/43 34/44/44 33/45/45
f 33/45/45 34/44/44 152/46/46 2/47/47 1/48/48
f 34/49/44 36/50/49 53/51/50 35/52/51 2/53/47 152/54/46
f 14/55/16 46/56/52 63/57/53 45/58/54 16/59/19 142/60/18
f 4/61/2 51/62/55 68/63/56 50/64/57 6/65/4 137/66/3
f 6/65/4 50/64/57 67/67/58 49/68/59 8/69/7 138/70/6
f 8/69/7 49/68/59 66/71/60 48/72/61 10/73/10 139/74/9
f 10/73/10 48/72/61 65/75/62 47/76/63 12/77/13 140/78/12
f 12/77/13 47/76/63 64/79/64 46/56/52 14/55/16 141/80/15
f 18/81/22 44/82/65 61/83/66 43/84/67 20/85/24 144/86/23
f 20/85/24 43/84/67 60/87/68 42/88/69 22/89/27 145/90/26
f 22/89/27 42/88/69 59/91/70 41/92/71 24/93/30 146/94/29
f 24/93/30 41/92/71 58/95/72 40/96/73 26/97/33 147/98/32
f 26/97/33 40/96/73 57/99/74 39/100/75 28/101/36 148/102/76
f 28/101/36 39/100/75 56/103/77 38/104/78 30/105/38 149/106/37
f 30/105/38 38/104/78 55/107/79 37/108/80 32/109/41 150/110/40
f 32/109/41 37/108/80 54/111/81 36/50/49 34/49/44 151/112/43
f 153/113/82 154/114/83 52/115/84
f 154/114/83 155/116/85 52/115/84
f 155/116/85 156/117/86 52/115/84
f 156/117/86 157/118/87 52/115/84
f 157/118/87 158/119/88 52/115/84
f 158/119/88 159/120/89 52/115/84
f 159/120/89 160/121/90 52/115/84
f 160/121/90 161/122/91 52/115/84
f 161/122/91 162/123/92 52/115/84
f 162/123/92 163/124/93 52/115/84
f 163/124/93 164/125/94 52/115/84
f 164/125/94 165/126/95 52/115/84
f 165/126/95 166/127/96 52/115/84
f 166/127/96 167/128/97 52/115/84
f 167/128/97 168/129/98 52/115/84
f 71/130/99 72/131/100 74/132/101 73/133/102
f 73/133/102 74/132/101 76/134/7 75/135/8
f 75/135/8 76/134/7 78/136/10 77/137/11
f 77/137/11 78/136/10 80/138/13 79/139/14
f 79/139/14 80/138/13 82/140/16 81/141/17
f 81/141/17 82/140/16 84/142/19 83/143/20
f 83/143/20 84/142/19 86/144/22 85/145/21
f 85/145/21 86/144/22 88/146/24 87/147/25
f 87/147/25 88/146/24 90/148/27 89/149/28
f 89/149/28 90/148/27 92/150/30 91/151/31
f 91/151/31 92/150/30 94/152/33 93/153/34
f 93/153/34 94/152/33 96/154/36 95/155/35
f 95/155/35 96/154/36 98/156/38 97/157/39
f 97/157/39 98/156/38 100/158/41 99/159/42
f 99/159/42 100/158/41 102/160/103 101/161/104
f 101/161/104 102/160/103 70/162/105 69/163/106
f 102/164/103 104/165/107 121/166/108 103/167/108 70/168/105
f 82/169/16 114/170/109 131/171/110 113/172/111 84/173/19
f 72/174/100 119/175/112 136/176/112 118/177/113 74/178/101
f 74/178/101 118/177/113 135/179/114 117/180/59 76/181/7
f 76/181/7 117/180/59 134/182/115 116/183/61 78/184/10
f 78/184/10 116/183/61 133/185/116 115/186/63 80/187/13
f 80/187/13 115/186/63 132/188/117 114/170/109 82/169/16
f 84/173/19 113/172/111 130/189/118 112/190/119 86/191/22
f 86/191/22 112/190/119 129/192/120 111/193/121 88/194/24
f 88/194/24 111/193/121 128/195/122 110/196/123 90/197/27
f 90/197/27 110/196/123 127/198/124 109/199/125 92/200/30
f 92/200/30 109/199/125 126/201/126 108/202/127 94/203/33
f 94/203/33 108/202/127 125/204/128 107/205/75 96/206/36
f 96/206/36 107/205/75 124/207/129 106/208/78 98/209/38
f 98/209/38 106/208/78 123/210/130 105/211/80 100/212/41
f 100/212/41 105/211/80 122/213/131 104/165/107 102/164/103
f 104/165/132 122/213/131 120/214/133 169/215/132 121/166/132
f 105/211/80 123/210/130 120/214/133 122/213/131
f 106/208/78 124/207/129 120/214/133 123/210/130
f 107/205/75 125/204/128 120/214/133 124/207/129
f 108/202/127 126/201/126 120/214/133 125/204/128
f 109/199/125 127/198/124 120/214/133 126/201/126
f 110/196/123 128/195/122 120/214/133 127/198/124
f 111/193/121 129/192/120 120/214/133 128/195/122
f 112/190/119 130/189/118 120/214/133 129/192/120
f 113/172/111 131/171/110 120/214/133 130/189/118
f 114/170/109 132/188/117 120/214/133 131/171/110
f 115/186/63 133/185/116 120/214/133 132/188/117
f 116/183/61 134/182/115 120/214/133 133/185/116
f 117/180/59 135/179/114 120/214/133 134/182/115
f 118/177/134 136/176/134 170/216/134 120/214/133 135/179/114
f 3/1/135 71/130/135 72/131/135 4/2/135
f 5/5/136 73/133/136 71/130/137 3/1/137
f 7/8/138 75/135/138 73/133/136 5/5/136
f 9/11/139 77/137/139 75/135/138 7/8/138
f 11/14/140 79/139/140 77/137/139 9/11/139
f 13/17/141 81/141/141 79/139/140 11/14/140
f 15/20/142 83/143/142 81/141/141 13/17/141
f 17/21/143 85/145/143 83/143/142 15/20/142
f 19/25/144 87/147/144 85/145/143 17/21/143
f 21/28/145 89/149/145 87/147/144 19/25/144
f 23/31/146 91/151/146 89/149/145 21/28/145
f 25/34/147 93/153/147 91/151/146 23/31/146
f 27/35/148 95/155/148 93/153/147 25/34/147
f 29/39/149 97/157/149 95/155/148 27/35/148
f 31/42/150 99/159/150 97/157/149 29/39/149
f 33/45/151 101/161/151 99/159/150 31/42/150
f 1/48/152 69/163/152 101/161/151 33/45/151
f 2/47/135 70/162/135 69/163/135 1/48/135
f 35/52/153 103/167/154 70/168/135 2/47/135
f 53/51/155 171/217/156 121/166/157 103/167/154 35/52/153
f 175/218/158 169/215/159 121/166/157 171/217/156
f 174/219/160 173/220/161 136/176/162 170/216/163
f 51/62/164 119/175/165 136/176/162 173/220/161 68/63/166
f 51/62/164 4/2/135 72/174/135 119/175/165
f 172/221/167 174/219/160 170/216/163 120/214/168
f 52/115/169 168/129/170 174/219/160 172/221/167
f 168/129/170 68/63/166 173/220/161 174/219/160
f 153/113/171 175/218/158 171/217/156 53/51/155
f 52/115/169 172/221/167 175/218/158 153/113/171
f 172/221/167 120/214/168 169/215/159 175/218/158
f 50/64/57 68/63/56 168/129/172 167/128/173 67/67/58
f 49/68/59 67/67/58 167/128/173 166/127/174 66/71/60
f 48/72/61 66/71/60 166/127/174 165/126/175 65/75/62
f 47/76/63 65/75/62 165/126/175 164/125/176 64/79/64
f 46/56/52 64/79/64 164/125/176 163/124/177 63/57/53
f 45/58/54 63/57/53 163/124/177 162/123/178 62/222/179
f 44/82/65 62/222/179 162/123/178 161/122/180 61/83/66
f 43/84/67 61/83/66 161/122/180 160/121/181 60/87/68
f 42/88/69 60/87/68 160/121/181 159/120/182 59/91/70
f 41/92/71 59/91/70 159/120/182 158/119/183 58/95/72
f 40/96/73 58/95/72 158/119/183 157/118/184 57/99/74
f 39/100/75 57/99/74 157/118/184 156/117/185 56/103/77
f 38/104/78 56/103/77 156/117/185 155/116/186 55/107/79
f 37/108/80 55/107/79 155/116/186 154/114/187 54/111/81
f 36/50/49 54/111/81 154/114/187 153/113/188 53/51/50
usemtl SolarPanels
f 15/20/20 16/19/19 143/223/189 18/22/22 17/21/21
f 16/59/19 45/58/54 62/222/179 44/82/65 18/81/22 143/224/189
usemtl DarkGrayMetal
f 25/34/34 26/33/33 148/225/76 28/36/36 27/35/35
