# Blender v2.83.5 OBJ File: 'debris2.blend'
# www.blender.org
mtllib debris2.mtl
o Cylinder.001_Cylinder.003
v 1.077544 -0.796576 -3.955153
v 2.855895 -2.111225 2.190851
v -2.856963 2.112015 -2.194543
v -1.078612 0.797367 3.951460
v -2.517634 2.491954 -2.211458
v -0.739283 1.177305 3.934546
v -2.115746 2.801404 -2.261553
v -0.337395 1.486755 3.884451
v -1.666741 3.028474 -2.342902
v 0.111610 1.713825 3.803102
v -1.187876 3.164436 -2.452379
v 0.590475 1.849787 3.693625
v -0.697552 3.204067 -2.585777
v 1.080799 1.889418 3.560226
v -0.214613 3.145843 -2.737971
v 1.563738 1.831194 3.408033
v 0.242383 2.992001 -2.903110
v 2.020734 1.677352 3.242894
v 0.655873 2.748455 -3.074849
v 2.434224 1.433806 3.071155
v 1.009967 2.424562 -3.246588
v 2.788318 1.109913 2.899416
v 1.291057 2.032771 -3.411727
v 3.069408 0.718122 2.734277
v 1.488342 1.588137 -3.563920
v 3.266693 0.273488 2.582084
v 1.594239 1.107748 -3.697318
v 3.372591 -0.206901 2.448686
v 1.604680 0.610064 -3.806795
v 3.383031 -0.704584 2.339209
v 1.519263 0.114212 -3.888144
v 3.297614 -1.200437 2.257860
v 1.341270 -0.360753 -3.938238
v 3.119621 -1.675402 2.207766
v 1.023667 -0.756747 -3.757395
v 2.808689 -2.076328 2.197285
v -2.714115 2.006415 -2.084816
v -1.044359 0.772045 3.903877
v -2.391753 2.367357 -2.100885
v -0.702319 1.118440 3.737818
v -2.009959 2.661334 -2.148475
v -0.320525 1.412417 3.690228
v -1.583404 2.877050 -2.225756
v 0.106029 1.628133 3.612947
v -1.128482 3.006214 -2.329760
v 0.560951 1.757298 3.508944
v -0.662675 3.043863 -2.456488
v 1.026759 1.794947 3.382215
v -0.203882 2.988550 -2.601072
v 1.485551 1.739634 3.237632
v 0.230264 2.842401 -2.757954
v 1.919697 1.593484 3.080749
v 0.623079 2.611032 -2.921106
v 2.312513 1.362115 2.917597
v 0.959469 2.303334 -3.084258
v 2.648902 1.054418 2.754445
v 1.226505 1.931132 -3.241140
v 2.915938 0.682216 2.597563
v 1.413925 1.508730 -3.385724
v 3.103358 0.259814 2.452980
v 1.514528 1.052361 -3.512452
v 3.203961 -0.196556 2.326251
v 1.524446 0.579561 -3.616455
v 3.213880 -0.669355 2.222248
v 1.443300 0.108501 -3.693737
v 3.132733 -1.140415 2.144967
v 1.274206 -0.342716 -3.741326
v 2.963640 -1.591632 2.097377
v -0.908948 0.987336 3.943003
v -0.538339 1.332030 3.909498
v -0.112893 1.600290 3.843777
v 0.351042 1.781806 3.748363
v 0.835637 1.869602 3.626925
v 1.322269 1.860306 3.484130
v 1.792236 1.754273 3.325464
v 2.227479 1.555579 3.157024
v 2.611271 1.271860 2.985286
v 2.928863 0.914018 2.816846
v 3.168051 0.495805 2.658180
v 3.319642 0.033294 2.515385
v 3.377811 -0.455743 2.393947
v 3.340322 -0.952511 2.298534
v 3.208617 -1.437920 2.232813
v 2.987758 -1.893314 2.199308
vt 0.500000 0.500000
vt 0.500000 1.000000
vt 0.484375 1.000000
vt 0.468750 1.000000
vt 0.468750 0.500000
vt 0.437500 0.500000
vt 0.437500 1.000000
vt 0.421875 1.000000
vt 0.406250 1.000000
vt 0.406250 0.500000
vt 0.390625 1.000000
vt 0.375000 1.000000
vt 0.375000 0.500000
vt 0.359375 1.000000
vt 0.343750 1.000000
vt 0.343750 0.500000
vt 0.328125 1.000000
vt 0.312500 1.000000
vt 0.312500 0.500000
vt 0.281250 0.500000
vt 0.281250 1.000000
vt 0.265625 1.000000
vt 0.250000 1.000000
vt 0.250000 0.500000
vt 0.234375 1.000000
vt 0.218750 1.000000
vt 0.218750 0.500000
vt 0.203125 1.000000
vt 0.187500 1.000000
vt 0.187500 0.500000
vt 0.171875 1.000000
vt 0.156250 1.000000
vt 0.156250 0.500000
vt 0.125000 0.500000
vt 0.125000 1.000000
vt 0.109375 1.000000
vt 0.093750 1.000000
vt 0.093750 0.500000
vt 0.078125 1.000000
vt 0.062500 1.000000
vt 0.062500 0.500000
vt 0.046875 1.000000
vt 0.031250 1.000000
vt 0.031250 0.500000
vt 0.015625 1.000000
vt 0.000000 1.000000
vt 0.000000 0.500000
vt 0.500000 0.500000
vt 0.500000 1.000000
vt 0.468750 1.000000
vt 0.468750 0.500000
vt 0.437500 1.000000
vt 0.437500 0.500000
vt 0.406250 1.000000
vt 0.406250 0.500000
vt 0.375000 1.000000
vt 0.375000 0.500000
vt 0.343750 1.000000
vt 0.343750 0.500000
vt 0.312500 1.000000
vt 0.312500 0.500000
vt 0.281250 1.000000
vt 0.281250 0.500000
vt 0.250000 1.000000
vt 0.250000 0.500000
vt 0.218750 1.000000
vt 0.218750 0.500000
vt 0.187500 1.000000
vt 0.187500 0.500000
vt 0.156250 1.000000
vt 0.156250 0.500000
vt 0.125000 1.000000
vt 0.125000 0.500000
vt 0.093750 1.000000
vt 0.093750 0.500000
vt 0.062500 1.000000
vt 0.062500 0.500000
vt 0.031250 1.000000
vt 0.031250 0.500000
vt 0.000000 1.000000
vt 0.000000 0.500000
vt 0.453125 1.000000
vt 0.296875 1.000000
vt 0.140625 1.000000
vn -0.6947 0.6355 0.3369
vn -0.6261 0.7055 0.3321
vn -0.4716 0.8245 0.3128
vn -0.3871 0.8724 0.2986
vn -0.2989 0.9118 0.2815
vn -0.2078 0.9425 0.2617
vn -0.1147 0.9641 0.2394
vn -0.0205 0.9764 0.2148
vn 0.0739 0.9794 0.1881
vn 0.1676 0.9729 0.1596
vn 0.2597 0.9570 0.1296
vn 0.4354 0.8978 0.0661
vn 0.5174 0.8551 0.0332
vn 0.5945 0.8041 -0.0000
vn 0.6658 0.7454 -0.0332
vn 0.7306 0.6796 -0.0661
vn 0.7885 0.6071 -0.0983
vn 0.8388 0.5289 -0.1296
vn 0.8809 0.4455 -0.1596
vn 0.9146 0.3579 -0.1881
vn 0.9554 0.1731 -0.2394
vn 0.9620 0.0778 -0.2617
vn 0.9594 -0.0183 -0.2815
vn 0.9475 -0.1142 -0.2986
vn 0.9265 -0.2090 -0.3128
vn 0.8966 -0.3018 -0.3240
vn 0.8581 -0.3917 -0.3321
vn 0.8113 -0.4778 -0.3369
vn -0.6449 0.6902 0.3281
vn -0.6029 0.7278 0.3268
vn -0.5993 0.7308 0.3267
vn 0.8704 -0.3628 -0.3328
vn 0.8726 -0.3581 -0.3321
vn 0.8453 -0.4130 -0.3390
vn -0.5945 -0.8041 -0.0000
vn 0.3205 -0.4267 -0.8457
vn 0.3757 -0.3733 -0.8483
vn 0.1995 -0.5199 -0.8306
vn 0.0644 -0.5882 -0.8061
vn -0.0798 -0.6291 -0.7732
vn -0.2273 -0.6411 -0.7330
vn -0.3727 -0.6236 -0.6872
vn -0.5102 -0.5772 -0.6375
vn -0.6347 -0.5039 -0.5858
vn -0.7413 -0.4065 -0.5341
vn -0.8259 -0.2885 -0.4844
vn -0.8852 -0.1547 -0.4386
vn -0.9171 -0.0101 -0.3985
vn -0.9203 0.1397 -0.3655
vn -0.8946 0.2889 -0.3411
vn -0.8410 0.4318 -0.3260
vn -0.8050 0.4996 -0.3199
vn -0.5515 0.7687 0.3240
vn 0.3492 0.9319 0.0983
vn 0.9395 0.2668 -0.2148
usemtl LightGrayMetal
s 1
f 3/1/1 4/2/1 69/3/1 6/4/2 5/5/2
f 7/6/3 8/7/3 71/8/4 10/9/5 9/10/5
f 9/10/5 10/9/5 72/11/6 12/12/7 11/13/7
f 11/13/7 12/12/7 73/14/8 14/15/9 13/16/9
f 13/16/9 14/15/9 74/17/10 16/18/11 15/19/11
f 17/20/12 18/21/12 76/22/13 20/23/14 19/24/14
f 19/24/14 20/23/14 77/25/15 22/26/16 21/27/16
f 21/27/16 22/26/16 78/28/17 24/29/18 23/30/18
f 23/30/18 24/29/18 79/31/19 26/32/20 25/33/20
f 27/34/21 28/35/21 81/36/22 30/37/23 29/38/23
f 29/38/23 30/37/23 82/39/24 32/40/25 31/41/25
f 31/41/25 32/40/25 83/42/26 34/43/27 33/44/27
f 33/44/27 34/43/27 84/45/28 2/46/28 1/47/28
f 37/48/29 38/49/29 40/50/30 39/51/31
f 39/51/31 40/50/30 42/52/3 41/53/3
f 41/53/3 42/52/3 44/54/5 43/55/5
f 43/55/5 44/54/5 46/56/7 45/57/7
f 45/57/7 46/56/7 48/58/9 47/59/9
f 47/59/9 48/58/9 50/60/11 49/61/11
f 49/61/11 50/60/11 52/62/12 51/63/12
f 51/63/12 52/62/12 54/64/14 53/65/14
f 53/65/14 54/64/14 56/66/16 55/67/16
f 55/67/16 56/66/16 58/68/18 57/69/18
f 57/69/18 58/68/18 60/70/20 59/71/20
f 59/71/20 60/70/20 62/72/21 61/73/21
f 61/73/21 62/72/21 64/74/23 63/75/23
f 63/75/23 64/74/23 66/76/25 65/77/25
f 65/77/25 66/76/25 68/78/32 67/79/33
f 67/79/33 68/78/32 36/80/34 35/81/34
f 3/1/35 37/48/35 38/49/35 4/2/35
f 5/5/36 39/51/36 37/48/37 3/1/37
f 7/6/38 41/53/38 39/51/36 5/5/36
f 9/10/39 43/55/39 41/53/38 7/6/38
f 11/13/40 45/57/40 43/55/39 9/10/39
f 13/16/41 47/59/41 45/57/40 11/13/40
f 15/19/42 49/61/42 47/59/41 13/16/41
f 17/20/43 51/63/43 49/61/42 15/19/42
f 19/24/44 53/65/44 51/63/43 17/20/43
f 21/27/45 55/67/45 53/65/44 19/24/44
f 23/30/46 57/69/46 55/67/45 21/27/45
f 25/33/47 59/71/47 57/69/46 23/30/46
f 27/34/48 61/73/48 59/71/47 25/33/47
f 29/38/49 63/75/49 61/73/48 27/34/48
f 31/41/50 65/77/50 63/75/49 29/38/49
f 33/44/51 67/79/51 65/77/50 31/41/50
f 1/47/52 35/81/52 67/79/51 33/44/51
f 2/46/35 36/80/35 35/81/35 1/47/35
usemtl DarkGrayMetal
f 5/5/2 6/4/2 70/82/53 8/7/3 7/6/3
f 15/19/11 16/18/11 75/83/54 18/21/12 17/20/12
f 25/33/20 26/32/20 80/84/55 28/35/21 27/34/21
