# Blender v2.83.5 OBJ File: 'orbcomm.blend'
# www.blender.org
mtllib orbcomm.mtl
o Cube.003_Cube.004
v 0.264998 0.680045 0.497487
v 0.288372 0.675404 0.497487
v 0.264998 0.680045 -0.496386
v 0.288372 0.675404 -0.496386
v 0.359745 1.919002 0.497487
v 0.383120 1.914361 0.497487
v 0.359745 1.919002 -0.496386
v 0.383120 1.914361 -0.496386
vt 0.375000 1.000000
vt 0.625000 1.000000
vt 0.625000 1.000000
vt 0.375000 1.000000
vt 0.375000 0.000000
vt 0.625000 0.000000
vt 0.625000 0.250000
vt 0.375000 0.250000
vt 0.875000 0.750000
vt 0.875000 0.500000
vt 0.875000 0.500000
vt 0.875000 0.750000
vt 0.125000 0.500000
vt 0.125000 0.750000
vt 0.125000 0.750000
vt 0.125000 0.500000
vt 0.625000 0.250000
vt 0.375000 0.250000
vn -0.0000 0.0000 1.0000
vn 0.1948 0.9809 0.0000
vn 0.9971 -0.0763 0.0000
vn -0.9971 0.0763 0.0000
vn 0.0000 0.0000 -1.0000
usemtl SolarPanels
s off
f 1/1/1 2/2/1 6/3/1 5/4/1
f 5/5/2 6/6/2 8/7/2 7/8/2
f 2/9/3 4/10/3 8/11/3 6/12/3
f 3/13/4 1/14/4 5/15/4 7/16/4
f 4/17/5 3/18/5 7/8/5 8/7/5
o Cube.004_Cube.003
v 0.367132 2.165969 0.425671
v 0.413881 2.156686 0.425671
v 0.367132 2.165969 0.378568
v 0.413881 2.156686 0.378568
v 0.338766 1.795048 0.425671
v 0.385515 1.785765 0.425671
v 0.338766 1.795048 0.378568
v 0.385515 1.785765 0.378568
vt 0.375000 0.000000
vt 0.625000 0.000000
vt 0.625000 0.250000
vt 0.375000 0.250000
vt 0.625000 0.500000
vt 0.375000 0.500000
vt 0.625000 0.750000
vt 0.375000 0.750000
vt 0.625000 1.000000
vt 0.375000 1.000000
vt 0.125000 0.500000
vt 0.125000 0.750000
vt 0.875000 0.500000
vt 0.875000 0.750000
vn 0.1948 0.9809 0.0000
vn 0.0000 0.0000 -1.0000
vn -0.1948 -0.9809 0.0000
vn -0.0000 0.0000 1.0000
vn -0.9971 0.0763 0.0000
vn 0.9971 -0.0763 0.0000
usemtl DarkGrayMetal
s off
f 9/19/6 10/20/6 12/21/6 11/22/6
f 11/22/7 12/21/7 16/23/7 15/24/7
f 15/24/8 16/23/8 14/25/8 13/26/8
f 13/26/9 14/25/9 10/27/9 9/28/9
f 11/29/10 15/24/10 13/26/10 9/30/10
f 16/23/11 12/31/11 10/32/11 14/25/11
o Cube.005
v 0.365195 1.990268 0.497487
v 0.388570 1.985627 0.497487
v 0.365195 1.990268 -0.496386
v 0.388570 1.985627 -0.496386
v 0.459942 3.229226 0.497487
v 0.483317 3.224584 0.497487
v 0.459942 3.229226 -0.496386
v 0.483317 3.224584 -0.496386
vt 0.375000 1.000000
vt 0.625000 1.000000
vt 0.625000 1.000000
vt 0.375000 1.000000
vt 0.375000 0.000000
vt 0.625000 0.000000
vt 0.625000 0.250000
vt 0.375000 0.250000
vt 0.875000 0.750000
vt 0.875000 0.500000
vt 0.875000 0.500000
vt 0.875000 0.750000
vt 0.125000 0.500000
vt 0.125000 0.750000
vt 0.125000 0.750000
vt 0.125000 0.500000
vt 0.625000 0.250000
vt 0.375000 0.250000
vn -0.0000 0.0000 1.0000
vn 0.1948 0.9809 0.0000
vn 0.9971 -0.0763 0.0000
vn -0.9971 0.0763 0.0000
vn 0.0000 0.0000 -1.0000
usemtl SolarPanels
s off
f 17/33/12 18/34/12 22/35/12 21/36/12
f 21/37/13 22/38/13 24/39/13 23/40/13
f 18/41/14 20/42/14 24/43/14 22/44/14
f 19/45/15 17/46/15 21/47/15 23/48/15
f 20/49/16 19/50/16 23/40/16 24/39/16
o Cube.007_Cube.012
v 0.468411 3.490340 0.425671
v 0.515160 3.481058 0.425671
v 0.468411 3.490340 0.378568
v 0.515160 3.481058 0.378568
v 0.440045 3.119419 0.425671
v 0.486795 3.110137 0.425671
v 0.440045 3.119419 0.378568
v 0.486795 3.110137 0.378568
vt 0.375000 0.000000
vt 0.625000 0.000000
vt 0.625000 0.250000
vt 0.375000 0.250000
vt 0.625000 0.500000
vt 0.375000 0.500000
vt 0.625000 0.750000
vt 0.375000 0.750000
vt 0.625000 1.000000
vt 0.375000 1.000000
vt 0.125000 0.500000
vt 0.125000 0.750000
vt 0.875000 0.500000
vt 0.875000 0.750000
vn 0.1948 0.9809 0.0000
vn 0.0000 0.0000 -1.0000
vn -0.1948 -0.9809 0.0000
vn -0.0000 0.0000 1.0000
vn -0.9971 0.0763 0.0000
vn 0.9971 -0.0763 0.0000
usemtl DarkGrayMetal.003
s off
f 25/51/17 26/52/17 28/53/17 27/54/17
f 27/54/18 28/53/18 32/55/18 31/56/18
f 31/56/19 32/55/19 30/57/19 29/58/19
f 29/58/20 30/57/20 26/59/20 25/60/20
f 27/61/21 31/56/21 29/58/21 25/62/21
f 32/55/22 28/63/22 26/64/22 30/57/22
o Cube.006_Cube.001
v 0.466474 3.314640 0.497487
v 0.489849 3.309998 0.497487
v 0.466474 3.314640 -0.496386
v 0.489849 3.309998 -0.496386
v 0.561222 4.553596 0.497487
v 0.584596 4.548955 0.497487
v 0.561222 4.553596 -0.496386
v 0.584596 4.548955 -0.496386
vt 0.375000 1.000000
vt 0.625000 1.000000
vt 0.625000 1.000000
vt 0.375000 1.000000
vt 0.375000 0.000000
vt 0.625000 0.000000
vt 0.625000 0.250000
vt 0.375000 0.250000
vt 0.875000 0.750000
vt 0.875000 0.500000
vt 0.875000 0.500000
vt 0.875000 0.750000
vt 0.125000 0.500000
vt 0.125000 0.750000
vt 0.125000 0.750000
vt 0.125000 0.500000
vt 0.625000 0.250000
vt 0.375000 0.250000
vn -0.0000 0.0000 1.0000
vn 0.1948 0.9808 0.0000
vn 0.9971 -0.0763 0.0000
vn -0.9971 0.0763 0.0000
vn 0.0000 0.0000 -1.0000
usemtl SolarPanels.001
s off
f 33/65/23 34/66/23 38/67/23 37/68/23
f 37/69/24 38/70/24 40/71/24 39/72/24
f 34/73/25 36/74/25 40/75/25 38/76/25
f 35/77/26 33/78/26 37/79/26 39/80/26
f 36/81/27 35/82/27 39/72/27 40/71/27
o Cube
v -0.252864 0.501530 0.500000
v 0.247136 0.501530 0.500000
v -0.252864 0.501530 -0.500000
v 0.247136 0.501530 -0.500000
v 0.000000 -0.498470 -0.146756
v 0.000000 -0.326710 -0.146756
v 0.056161 -0.498470 -0.135585
v 0.056161 -0.326710 -0.135585
v 0.103772 -0.498470 -0.103772
v 0.103772 -0.326710 -0.103772
v 0.135585 -0.498470 -0.056161
v 0.135585 -0.326710 -0.056161
v 0.146756 -0.498470 0.000000
v 0.146756 -0.326710 0.000000
v 0.135585 -0.498470 0.056161
v 0.135585 -0.326710 0.056161
v 0.103772 -0.498470 0.103772
v 0.103772 -0.326710 0.103772
v 0.056161 -0.498470 0.135585
v 0.056161 -0.326710 0.135585
v 0.000000 -0.498470 0.146756
v 0.000000 -0.326710 0.146756
v -0.056161 -0.498470 0.135585
v -0.056161 -0.326710 0.135585
v -0.103772 -0.498470 0.103772
v -0.103772 -0.326710 0.103772
v -0.135585 -0.498470 0.056161
v -0.135585 -0.326710 0.056161
v -0.146756 -0.498470 -0.000000
v -0.146756 -0.326710 -0.000000
v -0.135585 -0.498470 -0.056161
v -0.135585 -0.326710 -0.056161
v -0.103772 -0.498470 -0.103772
v -0.103772 -0.326710 -0.103772
v -0.056161 -0.498470 -0.135585
v -0.056161 -0.326710 -0.135585
v 0.247136 -0.498470 0.000000
v -0.252864 -0.498470 0.000000
v -0.252864 -0.398470 -0.500000
v -0.252864 -0.498470 -0.400000
v 0.247136 -0.498470 -0.400000
v 0.247136 -0.398470 -0.500000
v -0.252864 -0.398470 0.500000
v -0.252864 -0.498470 0.400000
v 0.247136 -0.498470 0.400000
v 0.247136 -0.398470 0.500000
v 0.018720 -0.498470 -0.143032
v 0.037441 -0.498470 -0.139309
v 0.072032 -0.498470 -0.124981
v 0.087902 -0.498470 -0.114377
v 0.114377 -0.498470 -0.087902
v 0.124981 -0.498470 -0.072032
v 0.139309 -0.498470 -0.037441
v 0.143032 -0.498470 -0.018720
v 0.143032 -0.498470 0.018720
v 0.139309 -0.498470 0.037441
v 0.124981 -0.498470 0.072032
v 0.114377 -0.498470 0.087902
v 0.087902 -0.498470 0.114377
v 0.072032 -0.498470 0.124981
v 0.037441 -0.498470 0.139309
v 0.018720 -0.498470 0.143032
v -0.018720 -0.498470 0.143032
v -0.037441 -0.498470 0.139309
v -0.072031 -0.498470 0.124981
v -0.087902 -0.498470 0.114377
v -0.114376 -0.498470 0.087902
v -0.124981 -0.498470 0.072032
v -0.139309 -0.498470 0.037441
v -0.143032 -0.498470 0.018720
v -0.143032 -0.498470 -0.018720
v -0.139309 -0.498470 -0.037441
v -0.124981 -0.498470 -0.072032
v -0.114376 -0.498470 -0.087902
v -0.087902 -0.498470 -0.114377
v -0.072031 -0.498470 -0.124981
v -0.037441 -0.498470 -0.139309
v -0.018720 -0.498470 -0.143032
v 0.000000 -8.491940 -0.146756
v 0.056161 -8.491940 -0.135585
v 0.103772 -8.491940 -0.103772
v 0.135585 -8.491940 -0.056161
v 0.146756 -8.491940 0.000000
v 0.103772 -8.491940 0.103772
v 0.056161 -8.491940 0.135585
v 0.000000 -8.491940 0.146756
v -0.056161 -8.491940 0.135585
v -0.103772 -8.491940 0.103772
v -0.135585 -8.491940 0.056161
v -0.146756 -8.491940 -0.000000
v -0.135585 -8.491940 -0.056161
v -0.103772 -8.491940 -0.103772
v -0.056161 -8.491940 -0.135585
v 0.135585 -8.491940 0.056161
v 0.087902 -8.491940 0.114377
v 0.072032 -8.491940 0.124981
v -0.018720 -8.491940 0.143032
v -0.037441 -8.491940 0.139309
v -0.114376 -8.491940 0.087902
v -0.124981 -8.491940 0.072032
v -0.143032 -8.491940 -0.018720
v -0.139309 -8.491940 -0.037441
v -0.087902 -8.491940 -0.114377
v -0.072031 -8.491940 -0.124981
v 0.018720 -8.491940 -0.143032
v 0.037441 -8.491940 -0.139309
v 0.114377 -8.491940 -0.087902
v 0.124981 -8.491940 -0.072032
v 0.143032 -8.491940 0.018720
v 0.139309 -8.491940 0.037441
v 0.072032 -8.491940 -0.124981
v 0.087902 -8.491940 -0.114377
v -0.018720 -8.491940 -0.143032
v -0.037441 -8.491940 -0.139309
v -0.124981 -8.491940 -0.072032
v -0.114376 -8.491940 -0.087902
v -0.139309 -8.491940 0.037441
v -0.143032 -8.491940 0.018720
v -0.072031 -8.491940 0.124981
v -0.087902 -8.491940 0.114377
v 0.037441 -8.491940 0.139309
v 0.018720 -8.491940 0.143032
v 0.114377 -8.491940 0.087902
v 0.124981 -8.491940 0.072032
v 0.139309 -8.491940 -0.037441
v 0.143032 -8.491940 -0.018720
vt 0.375000 0.000000
vt 0.625000 0.000000
vt 0.625000 0.250000
vt 0.375000 0.250000
vt 0.625000 0.525000
vt 0.650000 0.500000
vt 0.875000 0.500000
vt 0.875000 0.750000
vt 0.650000 0.750000
vt 0.625000 0.725000
vt 0.625000 0.625000
vt 0.125000 0.500000
vt 0.350000 0.500000
vt 0.375000 0.525000
vt 0.375000 0.625000
vt 0.375000 0.725000
vt 0.350000 0.750000
vt 0.125000 0.750000
vt 0.250000 0.500000
vt 0.229167 0.500000
vt 0.208333 0.500000
vt 0.187500 0.500000
vt 0.166667 0.500000
vt 0.145833 0.500000
vt 0.125000 0.500000
vt 0.104167 0.500000
vt 0.083333 0.500000
vt 0.062500 0.500000
vt 0.041667 0.500000
vt 0.020833 0.500000
vt 0.000000 0.500000
vt 0.312500 0.500000
vt 0.625000 0.500000
vt 0.937500 0.500000
vt 0.916667 0.500000
vt 0.895833 0.500000
vt 0.875000 0.500000
vt 0.854167 0.500000
vt 0.833333 0.500000
vt 0.812500 0.500000
vt 0.791667 0.500000
vt 0.770833 0.500000
vt 0.750000 0.500000
vt 0.729167 0.500000
vt 0.708333 0.500000
vt 0.687500 0.500000
vt 0.666667 0.500000
vt 0.645833 0.500000
vt 0.625000 0.500000
vt 0.604167 0.500000
vt 0.583333 0.500000
vt 0.562500 0.500000
vt 0.541667 0.500000
vt 0.520833 0.500000
vt 0.500000 0.500000
vt 0.479167 0.500000
vt 0.458333 0.500000
vt 0.437500 0.500000
vt 0.416667 0.500000
vt 0.395833 0.500000
vt 0.375000 0.500000
vt 0.354167 0.500000
vt 0.333333 0.500000
vt 0.312500 0.500000
vt 0.291667 0.500000
vt 0.270833 0.500000
vt 1.000000 0.500000
vt 1.000000 1.000000
vt 0.937500 1.000000
vt 0.958333 0.500000
vt 0.979167 0.500000
vt 0.875000 1.000000
vt 0.812500 1.000000
vt 0.750000 1.000000
vt 0.250000 1.000000
vt 0.187500 1.000000
vt 0.125000 1.000000
vt 0.341844 0.471731
vt 0.250000 0.490000
vt 0.158156 0.471731
vt 0.080294 0.419706
vt 0.028269 0.341844
vt 0.010000 0.250000
vt 0.028269 0.158156
vt 0.080294 0.080294
vt 0.158156 0.028269
vt 0.250000 0.010000
vt 0.341844 0.028269
vt 0.419706 0.080294
vt 0.471731 0.158156
vt 0.490000 0.250000
vt 0.471731 0.341844
vt 0.419706 0.419706
vt 0.062500 1.000000
vt 0.000000 1.000000
vt 0.687500 1.000000
vt 0.625000 1.000000
vt 0.562500 1.000000
vt 0.500000 1.000000
vt 0.437500 1.000000
vt 0.375000 1.000000
vt 0.312500 1.000000
vt 0.000000 0.000000
vt 0.000000 0.000000
vt 0.000000 0.000000
vt 0.000000 0.000000
vt 0.000000 0.000000
vt 0.000000 0.000000
vt 0.000000 0.000000
vt 0.000000 0.000000
vt 0.000000 0.000000
vt 0.000000 0.000000
vt 0.000000 0.000000
vt 0.000000 0.000000
vt 0.000000 0.000000
vt 0.000000 0.000000
vt 0.000000 0.000000
vt 0.000000 0.000000
vt 0.000000 0.000000
vt 0.000000 0.000000
vt 0.000000 0.000000
vt 0.000000 0.000000
vt 0.000000 0.000000
vt 0.000000 0.000000
vt 0.000000 0.000000
vt 0.000000 0.000000
vt 0.000000 0.000000
vt 0.000000 0.000000
vt 0.000000 0.000000
vt 0.000000 0.000000
vt 0.000000 0.000000
vt 0.000000 0.000000
vt 0.000000 0.000000
vt 0.000000 0.000000
vt 0.000000 0.000000
vt 0.000000 0.000000
vt 0.000000 0.000000
vt 0.000000 0.000000
vt 0.000000 0.000000
vt 0.000000 0.000000
vt 0.000000 0.000000
vt 0.000000 0.000000
vt 0.000000 0.000000
vt 0.000000 0.000000
vt 0.000000 0.000000
vt 0.000000 0.000000
vt 0.000000 0.000000
vt 0.000000 0.000000
vt 0.000000 0.000000
vt 0.000000 0.000000
vt 0.000000 0.000000
vt 0.000000 0.000000
vt 0.000000 0.000000
vt 0.000000 0.000000
vt 0.000000 0.000000
vt 0.000000 0.000000
vt 0.000000 0.000000
vt 0.000000 0.000000
vt 0.000000 0.000000
vt 0.000000 0.000000
vt 0.000000 0.000000
vt 0.000000 0.000000
vt 0.000000 0.000000
vt 0.000000 0.000000
vt 0.000000 0.000000
vt 0.000000 0.000000
vt 0.000000 0.000000
vt 0.000000 0.000000
vt 0.000000 0.000000
vt 0.000000 0.000000
vt 0.000000 0.000000
vt 0.000000 0.000000
vt 0.000000 0.000000
vt 0.000000 0.000000
vt 0.000000 0.000000
vt 0.000000 0.000000
vt 0.000000 0.000000
vt 0.000000 0.000000
vt 0.000000 0.000000
vt 0.000000 0.000000
vt 0.000000 0.000000
vt 0.000000 0.000000
vn 0.0000 1.0000 0.0000
vn 1.0000 0.0000 0.0000
vn -1.0000 -0.0000 0.0000
vn 0.0000 -0.7071 0.7071
vn 0.0000 -0.7071 -0.7071
vn -0.0000 0.0000 1.0000
vn 0.0000 0.0000 -1.0000
vn 0.1951 -0.0000 -0.9808
vn 0.5556 0.0000 -0.8315
vn 0.8315 -0.0000 -0.5556
vn 0.9808 -0.0000 -0.1951
vn -0.9808 -0.0000 -0.1951
vn -0.8315 0.0000 -0.5556
vn -0.5556 0.0000 -0.8315
vn -0.1951 0.0000 -0.9808
vn 0.9808 0.0000 0.1951
vn 0.8315 0.0000 0.5556
vn 0.5556 0.0000 0.8315
vn 0.1951 0.0000 0.9808
vn -0.1951 0.0000 0.9808
vn -0.5556 0.0000 0.8315
vn -0.8315 0.0000 0.5556
vn -0.9808 0.0000 0.1951
usemtl GoldFoil
s off
f 41/83/28 42/84/28 44/85/28 43/86/28
f 81/87/29 82/88/29 44/89/29 42/90/29 86/91/29 85/92/29 77/93/29
f 43/94/30 79/95/30 80/96/30 78/97/30 84/98/30 83/99/30 41/100/30
f 86/91/31 83/99/31 84/98/31 85/92/31
f 80/96/32 79/95/32 82/88/32 81/87/32
f 69/101/28 111/102/28 112/103/28 71/104/28 113/105/28 114/106/28 73/107/28 115/108/28 116/109/28 75/110/28 117/111/28 118/112/28 45/113/28 80/96/28 78/97/28
f 45/113/28 87/114/28 88/115/28 47/116/28 89/117/28 90/118/28 49/119/28 91/120/28 92/121/28 51/122/28 93/123/28 94/124/28 53/125/28 77/93/28 81/87/28 80/96/28
f 53/125/28 95/126/28 96/127/28 55/128/28 97/129/28 98/130/28 57/131/28 99/132/28 100/133/28 59/134/28 101/135/28 102/136/28 61/137/28 85/92/28 77/93/28
f 61/137/28 103/138/28 104/139/28 63/140/28 105/141/28 106/142/28 65/143/28 107/144/28 108/145/28 67/146/28 109/147/28 110/148/28 69/101/28 78/97/28 84/98/28 85/92/28
f 42/90/33 41/100/33 83/99/33 86/91/33
f 44/89/34 82/88/34 79/95/34 43/94/34
usemtl WhiteMetal
f 45/149/35 46/150/35 48/151/35 47/116/35 88/152/35 87/153/35
f 47/116/36 48/151/36 50/154/36 49/119/36 90/118/36 89/117/36
f 49/119/37 50/154/37 52/155/37 51/122/37 92/121/37 91/120/37
f 51/122/38 52/155/38 54/156/38 53/125/38 94/124/38 93/123/38
f 69/101/39 70/157/39 72/158/39 71/104/39 112/103/39 111/102/39
f 71/104/40 72/158/40 74/159/40 73/107/40 114/106/40 113/105/40
f 48/160/28 46/161/28 76/162/28 74/163/28 72/164/28 70/165/28 68/166/28 66/167/28 64/168/28 62/169/28 60/170/28 58/171/28 56/172/28 54/173/28 52/174/28 50/175/28
f 73/107/41 74/159/41 76/176/41 75/110/41 116/109/41 115/108/41
f 75/110/42 76/176/42 46/177/42 45/113/42 118/112/42 117/111/42
f 53/125/33 54/156/33 56/178/33 58/179/33 60/180/33 62/181/33 64/182/33 66/183/33 68/184/33 70/157/33 69/101/33 110/148/33 109/147/33 67/146/33 108/145/33 107/144/33 65/143/33 106/142/33 105/141/33 63/140/33 104/139/33 103/138/33 61/137/33 102/136/33 101/135/33 59/134/33 100/133/33 99/132/33 57/131/33 98/130/33 97/129/33 55/128/33 96/127/33 95/126/33
f 100/185/41 136/186/41 125/187/41 59/188/41
f 57/189/41 124/190/41 135/191/41 99/192/41
f 102/136/42 101/135/42 161/193/42 162/194/42
f 104/195/35 138/196/35 127/197/35 63/198/35
f 61/199/35 126/200/35 137/201/35 103/202/35
f 105/141/36 159/203/36 160/204/36 106/142/36
f 108/205/37 140/206/37 129/207/37 67/208/37
f 65/209/37 128/210/37 139/211/37 107/212/37
f 110/148/38 109/147/38 157/213/38 158/214/38
f 112/215/43 142/216/43 131/217/43 71/218/43
f 69/219/43 130/220/43 141/221/43 111/222/43
f 114/106/44 113/105/44 155/223/44 156/224/44
f 116/225/45 144/226/45 133/227/45 75/228/45
f 73/229/45 132/230/45 143/231/45 115/232/45
f 118/112/46 117/111/46 154/233/46 153/234/46
f 88/235/47 146/236/47 120/237/47 47/238/47
f 45/239/47 119/240/47 145/241/47 87/242/47
f 90/118/48 89/117/48 151/243/48 152/244/48
f 92/245/49 148/246/49 122/247/49 51/248/49
f 49/249/49 121/250/49 147/251/49 91/252/49
f 96/253/39 150/254/39 134/255/39 55/256/39
f 53/257/39 123/258/39 149/259/39 95/260/39
f 97/129/40 164/261/40 163/262/40 98/130/40
f 93/123/50 165/263/50 166/264/50 94/124/50
f 136/186/28 135/191/28 124/190/28 163/262/28 164/261/28 134/255/28 150/254/28 149/259/28 123/258/28 166/264/28 165/263/28 122/247/28 148/246/28 147/251/28 121/250/28 152/244/28 151/243/28 120/237/28 146/236/28 145/241/28 119/240/28 153/234/28 154/233/28 133/227/28 144/226/28 143/231/28 132/230/28 156/224/28 155/223/28 131/217/28 142/216/28 141/221/28 130/220/28 158/214/28 157/213/28 129/207/28 140/206/28 139/211/28 128/210/28 160/204/28 159/203/28 127/197/28 138/196/28 137/201/28 126/200/28 162/194/28 161/193/28 125/187/28
o Cube.002_Cube.019
v 0.367132 2.165969 -0.371143
v 0.413881 2.156686 -0.371143
v 0.367132 2.165969 -0.418246
v 0.413881 2.156686 -0.418246
v 0.338766 1.795048 -0.371143
v 0.385515 1.785765 -0.371143
v 0.338766 1.795048 -0.418246
v 0.385515 1.785765 -0.418246
vt 0.375000 0.000000
vt 0.625000 0.000000
vt 0.625000 0.250000
vt 0.375000 0.250000
vt 0.625000 0.500000
vt 0.375000 0.500000
vt 0.625000 0.750000
vt 0.375000 0.750000
vt 0.625000 1.000000
vt 0.375000 1.000000
vt 0.125000 0.500000
vt 0.125000 0.750000
vt 0.875000 0.500000
vt 0.875000 0.750000
vn 0.1948 0.9809 0.0000
vn 0.0000 0.0000 -1.0000
vn -0.1948 -0.9809 0.0000
vn 0.0000 0.0000 1.0000
vn -0.9971 0.0763 0.0000
vn 0.9971 -0.0763 0.0000
usemtl DarkGrayMetal.007
s off
f 167/265/51 168/266/51 170/267/51 169/268/51
f 169/268/52 170/267/52 174/269/52 173/270/52
f 173/270/53 174/269/53 172/271/53 171/272/53
f 171/272/54 172/271/54 168/273/54 167/274/54
f 169/275/55 173/270/55 171/272/55 167/276/55
f 174/269/56 170/277/56 168/278/56 172/271/56
o Cube.001_Cube.018
v 0.468411 3.490340 -0.371143
v 0.515160 3.481058 -0.371143
v 0.468411 3.490340 -0.418246
v 0.515160 3.481058 -0.418246
v 0.440045 3.119419 -0.371143
v 0.486795 3.110137 -0.371143
v 0.440045 3.119419 -0.418246
v 0.486795 3.110137 -0.418246
vt 0.375000 0.000000
vt 0.625000 0.000000
vt 0.625000 0.250000
vt 0.375000 0.250000
vt 0.625000 0.500000
vt 0.375000 0.500000
vt 0.625000 0.750000
vt 0.375000 0.750000
vt 0.625000 1.000000
vt 0.375000 1.000000
vt 0.125000 0.500000
vt 0.125000 0.750000
vt 0.875000 0.500000
vt 0.875000 0.750000
vn 0.1948 0.9809 0.0000
vn 0.0000 0.0000 -1.0000
vn -0.1948 -0.9809 0.0000
vn 0.0000 0.0000 1.0000
vn -0.9971 0.0763 0.0000
vn 0.9971 -0.0763 0.0000
usemtl DarkGrayMetal.006
s off
f 175/279/57 176/280/57 178/281/57 177/282/57
f 177/282/58 178/281/58 182/283/58 181/284/58
f 181/284/59 182/283/59 180/285/59 179/286/59
f 179/286/60 180/285/60 176/287/60 175/288/60
f 177/289/61 181/284/61 179/286/61 175/290/61
f 182/283/62 178/291/62 176/292/62 180/285/62
o Cube.009_Cube.021
v 0.266976 0.856285 -0.371143
v 0.313725 0.847003 -0.371143
v 0.266976 0.856285 -0.418246
v 0.313725 0.847003 -0.418246
v 0.238610 0.485364 -0.371143
v 0.285359 0.476082 -0.371143
v 0.238610 0.485364 -0.418246
v 0.285359 0.476082 -0.418246
vt 0.375000 0.000000
vt 0.625000 0.000000
vt 0.625000 0.250000
vt 0.375000 0.250000
vt 0.625000 0.500000
vt 0.375000 0.500000
vt 0.625000 0.750000
vt 0.375000 0.750000
vt 0.625000 1.000000
vt 0.375000 1.000000
vt 0.125000 0.500000
vt 0.125000 0.750000
vt 0.875000 0.500000
vt 0.875000 0.750000
vn 0.1947 0.9809 0.0000
vn 0.0000 0.0000 -1.0000
vn -0.1947 -0.9809 0.0000
vn -0.0000 0.0000 1.0000
vn -0.9971 0.0763 0.0000
vn 0.9971 -0.0763 0.0000
usemtl DarkGrayMetal.009
s off
f 183/293/63 184/294/63 186/295/63 185/296/63
f 185/296/64 186/295/64 190/297/64 189/298/64
f 189/298/65 190/297/65 188/299/65 187/300/65
f 187/300/66 188/299/66 184/301/66 183/302/66
f 185/303/67 189/298/67 187/300/67 183/304/67
f 190/297/68 186/305/68 184/306/68 188/299/68
o Cube.008_Cube.020
v 0.266976 0.856285 0.425671
v 0.313725 0.847003 0.425671
v 0.266976 0.856285 0.378568
v 0.313725 0.847003 0.378568
v 0.238610 0.485364 0.425671
v 0.285359 0.476082 0.425671
v 0.238610 0.485364 0.378568
v 0.285359 0.476082 0.378568
vt 0.375000 0.000000
vt 0.625000 0.000000
vt 0.625000 0.250000
vt 0.375000 0.250000
vt 0.625000 0.500000
vt 0.375000 0.500000
vt 0.625000 0.750000
vt 0.375000 0.750000
vt 0.625000 1.000000
vt 0.375000 1.000000
vt 0.125000 0.500000
vt 0.125000 0.750000
vt 0.875000 0.500000
vt 0.875000 0.750000
vn 0.1947 0.9809 0.0000
vn 0.0000 0.0000 -1.0000
vn -0.1947 -0.9809 0.0000
vn 0.0000 0.0000 1.0000
vn -0.9971 0.0763 0.0000
vn 0.9971 -0.0763 0.0000
usemtl DarkGrayMetal.008
s off
f 191/307/69 192/308/69 194/309/69 193/310/69
f 193/310/70 194/309/70 198/311/70 197/312/70
f 197/312/71 198/311/71 196/313/71 195/314/71
f 195/314/72 196/313/72 192/315/72 191/316/72
f 193/317/73 197/312/73 195/314/73 191/318/73
f 198/311/74 194/319/74 192/320/74 196/313/74
o Cube.010_Cube.022
v 0.249413 -0.219688 0.497487
v 0.272704 -0.217009 0.497487
v 0.249413 -0.219688 -0.496386
v 0.272704 -0.217009 -0.496386
v 0.249989 0.273902 0.497487
v 0.273281 0.276581 0.497487
v 0.249989 0.273902 -0.496386
v 0.273281 0.276581 -0.496386
vt 0.375000 1.000000
vt 0.625000 1.000000
vt 0.625000 1.000000
vt 0.375000 1.000000
vt 0.375000 0.000000
vt 0.625000 0.000000
vt 0.625000 0.250000
vt 0.375000 0.250000
vt 0.875000 0.750000
vt 0.875000 0.500000
vt 0.875000 0.500000
vt 0.875000 0.750000
vt 0.125000 0.500000
vt 0.125000 0.750000
vt 0.125000 0.750000
vt 0.125000 0.500000
vt 0.625000 0.250000
vt 0.375000 0.250000
vn 0.0000 0.0000 1.0000
vn -0.1143 0.9935 0.0000
vn 1.0000 -0.0012 0.0000
vn -1.0000 0.0012 0.0000
vn 0.0000 0.0000 -1.0000
usemtl SolarPanels.005
s off
f 199/321/75 200/322/75 204/323/75 203/324/75
f 203/325/76 204/326/76 206/327/76 205/328/76
f 200/329/77 202/330/77 206/331/77 204/332/77
f 201/333/78 199/334/78 203/335/78 205/336/78
f 202/337/79 201/338/79 205/328/79 206/327/79
